M48
; DRILL file {KiCad 9.0.7} date 2026-02-12T20:02:39+0100
; FORMAT={-:-/ absolute / metric / decimal}
; #@! TF.CreationDate,2026-02-12T20:02:39+01:00
; #@! TF.GenerationSoftware,Kicad,Pcbnew,9.0.7
; #@! TF.FileFunction,NonPlated,1,2,NPTH
FMAT,2
METRIC
; #@! TA.AperFunction,NonPlated,NPTH,ComponentDrill
T1C0.500
%
G90
G05
T1
X101.0Y-51.375
X101.0Y-52.625
X101.0Y-55.375
X101.0Y-56.625
X101.0Y-59.375
X101.0Y-60.625
X101.0Y-63.375
X101.0Y-64.625
X101.0Y-67.375
X101.0Y-68.625
X101.0Y-71.375
X101.0Y-72.625
X101.0Y-75.375
X101.0Y-76.625
X101.0Y-79.375
X101.0Y-80.625
X101.0Y-83.375
X101.0Y-84.625
X101.0Y-87.375
X101.0Y-88.625
X101.0Y-91.375
X101.0Y-92.625
X101.0Y-95.375
X101.0Y-96.625
X101.0Y-99.375
X101.0Y-100.625
X101.0Y-103.375
X101.0Y-104.625
X101.0Y-107.375
X101.0Y-108.625
X101.0Y-111.375
X101.0Y-112.625
X101.0Y-115.375
X101.0Y-116.625
X101.0Y-119.375
X101.0Y-120.625
X101.0Y-123.375
X101.0Y-124.625
X101.0Y-127.375
X101.0Y-128.625
X101.0Y-131.375
X101.0Y-132.625
X101.0Y-135.375
X101.0Y-136.625
X101.0Y-139.375
X101.0Y-140.625
X101.0Y-143.375
X101.0Y-144.625
X101.0Y-147.375
X101.0Y-148.625
X102.375Y-50.025
X102.375Y-70.0
X102.375Y-90.0
X102.375Y-110.0
X102.375Y-130.0
X102.375Y-150.025
X103.625Y-50.025
X103.625Y-70.0
X103.625Y-90.0
X103.625Y-110.0
X103.625Y-130.0
X103.625Y-150.025
X106.375Y-50.025
X106.375Y-70.0
X106.375Y-90.0
X106.375Y-110.0
X106.375Y-130.0
X106.375Y-150.025
X107.625Y-50.025
X107.625Y-70.0
X107.625Y-90.0
X107.625Y-110.0
X107.625Y-130.0
X107.625Y-150.025
X110.3Y-90.0
X110.3Y-130.0
X110.375Y-50.025
X110.375Y-70.0
X110.375Y-110.0
X110.375Y-150.025
X111.625Y-50.025
X111.625Y-70.0
X111.625Y-110.0
X111.625Y-150.025
X111.7Y-90.0
X111.7Y-130.0
X114.375Y-50.025
X114.375Y-70.0
X114.375Y-90.0
X114.375Y-110.0
X114.375Y-130.0
X114.375Y-150.025
X115.625Y-50.025
X115.625Y-70.0
X115.625Y-90.0
X115.625Y-110.0
X115.625Y-130.0
X115.625Y-150.025
X118.375Y-50.025
X118.375Y-70.0
X118.375Y-90.0
X118.375Y-110.0
X118.375Y-130.0
X118.375Y-150.025
X119.625Y-50.025
X119.625Y-70.0
X119.625Y-90.0
X119.625Y-110.0
X119.625Y-130.0
X119.625Y-150.025
X121.0Y-51.375
X121.0Y-52.625
X121.0Y-55.375
X121.0Y-56.625
X121.0Y-59.28
X121.0Y-60.72
X121.0Y-63.375
X121.0Y-64.625
X121.0Y-67.375
X121.0Y-68.625
X121.0Y-71.375
X121.0Y-72.625
X121.0Y-75.375
X121.0Y-76.625
X121.0Y-79.28
X121.0Y-80.72
X121.0Y-83.375
X121.0Y-84.625
X121.0Y-87.375
X121.0Y-88.625
X121.0Y-91.375
X121.0Y-92.625
X121.0Y-95.375
X121.0Y-96.625
X121.0Y-99.28
X121.0Y-100.72
X121.0Y-103.375
X121.0Y-104.625
X121.0Y-107.375
X121.0Y-108.625
X121.0Y-111.375
X121.0Y-112.625
X121.0Y-115.375
X121.0Y-116.625
X121.0Y-119.28
X121.0Y-120.72
X121.0Y-123.375
X121.0Y-124.625
X121.0Y-127.375
X121.0Y-128.625
X121.0Y-131.375
X121.0Y-132.625
X121.0Y-135.375
X121.0Y-136.625
X121.0Y-139.28
X121.0Y-140.72
X121.0Y-143.375
X121.0Y-144.625
X121.0Y-147.375
X121.0Y-148.625
X122.375Y-50.025
X122.375Y-70.0
X122.375Y-90.0
X122.375Y-110.0
X122.375Y-130.0
X122.375Y-150.025
X123.625Y-50.025
X123.625Y-70.0
X123.625Y-90.0
X123.625Y-110.0
X123.625Y-130.0
X123.625Y-150.025
X126.375Y-50.025
X126.375Y-70.0
X126.375Y-90.0
X126.375Y-110.0
X126.375Y-130.0
X126.375Y-150.025
X127.625Y-50.025
X127.625Y-70.0
X127.625Y-90.0
X127.625Y-110.0
X127.625Y-130.0
X127.625Y-150.025
X130.375Y-50.025
X130.375Y-70.0
X130.375Y-90.0
X130.375Y-110.0
X130.375Y-130.0
X130.375Y-150.025
X131.625Y-50.025
X131.625Y-70.0
X131.625Y-90.0
X131.625Y-110.0
X131.625Y-130.0
X131.625Y-150.025
X134.375Y-50.025
X134.375Y-70.0
X134.375Y-90.0
X134.375Y-110.0
X134.375Y-130.0
X134.375Y-150.025
X135.625Y-50.025
X135.625Y-70.0
X135.625Y-90.0
X135.625Y-110.0
X135.625Y-130.0
X135.625Y-150.025
X138.375Y-50.025
X138.375Y-70.0
X138.375Y-90.0
X138.375Y-110.0
X138.375Y-130.0
X138.375Y-150.025
X139.625Y-50.025
X139.625Y-70.0
X139.625Y-90.0
X139.625Y-110.0
X139.625Y-130.0
X139.625Y-150.025
X141.0Y-51.375
X141.0Y-52.625
X141.0Y-55.375
X141.0Y-56.625
X141.0Y-59.28
X141.0Y-60.72
X141.0Y-63.375
X141.0Y-64.625
X141.0Y-67.375
X141.0Y-68.625
X141.0Y-71.375
X141.0Y-72.625
X141.0Y-75.375
X141.0Y-76.625
X141.0Y-79.28
X141.0Y-80.72
X141.0Y-83.375
X141.0Y-84.625
X141.0Y-87.375
X141.0Y-88.625
X141.0Y-91.375
X141.0Y-92.625
X141.0Y-95.375
X141.0Y-96.625
X141.0Y-99.28
X141.0Y-100.72
X141.0Y-103.375
X141.0Y-104.625
X141.0Y-107.375
X141.0Y-108.625
X141.0Y-111.375
X141.0Y-112.625
X141.0Y-115.375
X141.0Y-116.625
X141.0Y-119.28
X141.0Y-120.72
X141.0Y-123.375
X141.0Y-124.625
X141.0Y-127.375
X141.0Y-128.625
X141.0Y-131.375
X141.0Y-132.625
X141.0Y-135.375
X141.0Y-136.625
X141.0Y-139.28
X141.0Y-140.72
X141.0Y-143.375
X141.0Y-144.625
X141.0Y-147.375
X141.0Y-148.625
X142.375Y-50.025
X142.375Y-70.0
X142.375Y-90.0
X142.375Y-110.0
X142.375Y-130.0
X142.375Y-150.025
X143.625Y-50.025
X143.625Y-70.0
X143.625Y-90.0
X143.625Y-110.0
X143.625Y-130.0
X143.625Y-150.025
X146.375Y-50.025
X146.375Y-70.0
X146.375Y-90.0
X146.375Y-110.0
X146.375Y-130.0
X146.375Y-150.025
X147.625Y-50.025
X147.625Y-70.0
X147.625Y-90.0
X147.625Y-110.0
X147.625Y-130.0
X147.625Y-150.025
X150.375Y-50.025
X150.375Y-70.0
X150.375Y-90.0
X150.375Y-110.0
X150.375Y-130.0
X150.375Y-150.025
X151.625Y-50.025
X151.625Y-70.0
X151.625Y-90.0
X151.625Y-110.0
X151.625Y-130.0
X151.625Y-150.025
X154.375Y-50.025
X154.375Y-70.0
X154.375Y-90.0
X154.375Y-110.0
X154.375Y-130.0
X154.375Y-150.025
X155.625Y-50.025
X155.625Y-70.0
X155.625Y-90.0
X155.625Y-110.0
X155.625Y-130.0
X155.625Y-150.025
X158.375Y-50.025
X158.375Y-70.0
X158.375Y-90.0
X158.375Y-110.0
X158.375Y-130.0
X158.375Y-150.025
X159.625Y-50.025
X159.625Y-70.0
X159.625Y-90.0
X159.625Y-110.0
X159.625Y-130.0
X159.625Y-150.025
X161.0Y-51.375
X161.0Y-52.625
X161.0Y-55.375
X161.0Y-56.625
X161.0Y-59.28
X161.0Y-60.72
X161.0Y-63.375
X161.0Y-64.625
X161.0Y-67.375
X161.0Y-68.625
X161.0Y-71.375
X161.0Y-72.625
X161.0Y-75.375
X161.0Y-76.625
X161.0Y-79.28
X161.0Y-80.72
X161.0Y-83.375
X161.0Y-84.625
X161.0Y-87.375
X161.0Y-88.625
X161.0Y-91.375
X161.0Y-92.625
X161.0Y-95.375
X161.0Y-96.625
X161.0Y-99.28
X161.0Y-100.72
X161.0Y-103.375
X161.0Y-104.625
X161.0Y-107.375
X161.0Y-108.625
X161.0Y-111.375
X161.0Y-112.625
X161.0Y-115.375
X161.0Y-116.625
X161.0Y-119.28
X161.0Y-120.72
X161.0Y-123.375
X161.0Y-124.625
X161.0Y-127.375
X161.0Y-128.625
X161.0Y-131.375
X161.0Y-132.625
X161.0Y-135.375
X161.0Y-136.625
X161.0Y-139.28
X161.0Y-140.72
X161.0Y-143.375
X161.0Y-144.625
X161.0Y-147.375
X161.0Y-148.625
X162.375Y-50.025
X162.375Y-70.0
X162.375Y-90.0
X162.375Y-110.0
X162.375Y-130.0
X162.375Y-150.025
X163.625Y-50.025
X163.625Y-70.0
X163.625Y-90.0
X163.625Y-110.0
X163.625Y-130.0
X163.625Y-150.025
X166.375Y-50.025
X166.375Y-70.0
X166.375Y-90.0
X166.375Y-110.0
X166.375Y-130.0
X166.375Y-150.025
X167.625Y-50.025
X167.625Y-70.0
X167.625Y-90.0
X167.625Y-110.0
X167.625Y-130.0
X167.625Y-150.025
X170.375Y-50.025
X170.375Y-70.0
X170.375Y-90.0
X170.375Y-110.0
X170.375Y-130.0
X170.375Y-150.025
X171.625Y-50.025
X171.625Y-70.0
X171.625Y-90.0
X171.625Y-110.0
X171.625Y-130.0
X171.625Y-150.025
X174.375Y-50.025
X174.375Y-70.0
X174.375Y-90.0
X174.375Y-110.0
X174.375Y-130.0
X174.375Y-150.025
X175.625Y-50.025
X175.625Y-70.0
X175.625Y-90.0
X175.625Y-110.0
X175.625Y-130.0
X175.625Y-150.025
X178.375Y-50.025
X178.375Y-70.0
X178.375Y-90.0
X178.375Y-110.0
X178.375Y-130.0
X178.375Y-150.025
X179.625Y-50.025
X179.625Y-70.0
X179.625Y-90.0
X179.625Y-110.0
X179.625Y-130.0
X179.625Y-150.025
X181.0Y-51.375
X181.0Y-52.625
X181.0Y-55.375
X181.0Y-56.625
X181.0Y-59.28
X181.0Y-60.72
X181.0Y-63.375
X181.0Y-64.625
X181.0Y-67.375
X181.0Y-68.625
X181.0Y-71.375
X181.0Y-72.625
X181.0Y-75.375
X181.0Y-76.625
X181.0Y-79.28
X181.0Y-80.72
X181.0Y-83.375
X181.0Y-84.625
X181.0Y-87.375
X181.0Y-88.625
X181.0Y-91.375
X181.0Y-92.625
X181.0Y-95.375
X181.0Y-96.625
X181.0Y-99.28
X181.0Y-100.72
X181.0Y-103.375
X181.0Y-104.625
X181.0Y-107.375
X181.0Y-108.625
X181.0Y-111.375
X181.0Y-112.625
X181.0Y-115.375
X181.0Y-116.625
X181.0Y-119.28
X181.0Y-120.72
X181.0Y-123.375
X181.0Y-124.625
X181.0Y-127.375
X181.0Y-128.625
X181.0Y-131.375
X181.0Y-132.625
X181.0Y-135.375
X181.0Y-136.625
X181.0Y-139.28
X181.0Y-140.72
X181.0Y-143.375
X181.0Y-144.625
X181.0Y-147.375
X181.0Y-148.625
X182.375Y-50.025
X182.375Y-70.0
X182.375Y-90.0
X182.375Y-110.0
X182.375Y-130.0
X182.375Y-150.025
X183.625Y-50.025
X183.625Y-70.0
X183.625Y-90.0
X183.625Y-110.0
X183.625Y-130.0
X183.625Y-150.025
X186.375Y-50.025
X186.375Y-70.0
X186.375Y-90.0
X186.375Y-110.0
X186.375Y-130.0
X186.375Y-150.025
X187.625Y-50.025
X187.625Y-70.0
X187.625Y-90.0
X187.625Y-110.0
X187.625Y-130.0
X187.625Y-150.025
X190.3Y-70.0
X190.3Y-110.0
X190.375Y-50.025
X190.375Y-90.0
X190.375Y-130.0
X190.375Y-150.025
X191.625Y-50.025
X191.625Y-90.0
X191.625Y-130.0
X191.625Y-150.025
X191.7Y-70.0
X191.7Y-110.0
X194.375Y-50.025
X194.375Y-70.0
X194.375Y-90.0
X194.375Y-110.0
X194.375Y-130.0
X194.375Y-150.025
X195.625Y-50.025
X195.625Y-70.0
X195.625Y-90.0
X195.625Y-110.0
X195.625Y-130.0
X195.625Y-150.025
X198.375Y-50.025
X198.375Y-70.0
X198.375Y-90.0
X198.375Y-110.0
X198.375Y-130.0
X198.375Y-150.025
X199.625Y-50.025
X199.625Y-70.0
X199.625Y-90.0
X199.625Y-110.0
X199.625Y-130.0
X199.625Y-150.025
X201.0Y-51.375
X201.0Y-52.625
X201.0Y-55.375
X201.0Y-56.625
X201.0Y-59.375
X201.0Y-60.625
X201.0Y-63.375
X201.0Y-64.625
X201.0Y-67.375
X201.0Y-68.625
X201.0Y-71.375
X201.0Y-72.625
X201.0Y-75.375
X201.0Y-76.625
X201.0Y-79.375
X201.0Y-80.625
X201.0Y-83.375
X201.0Y-84.625
X201.0Y-87.375
X201.0Y-88.625
X201.0Y-91.375
X201.0Y-92.625
X201.0Y-95.375
X201.0Y-96.625
X201.0Y-99.375
X201.0Y-100.625
X201.0Y-103.375
X201.0Y-104.625
X201.0Y-107.375
X201.0Y-108.625
X201.0Y-111.375
X201.0Y-112.625
X201.0Y-115.375
X201.0Y-116.625
X201.0Y-119.375
X201.0Y-120.625
X201.0Y-123.375
X201.0Y-124.625
X201.0Y-127.375
X201.0Y-128.625
X201.0Y-131.375
X201.0Y-132.625
X201.0Y-135.375
X201.0Y-136.625
X201.0Y-139.375
X201.0Y-140.625
X201.0Y-143.375
X201.0Y-144.625
X201.0Y-147.375
X201.0Y-148.625
M30
