M48
; DRILL file {KiCad 9.0.7} date 2026-02-12T20:02:39+0100
; FORMAT={-:-/ absolute / metric / decimal}
; #@! TF.CreationDate,2026-02-12T20:02:39+01:00
; #@! TF.GenerationSoftware,Kicad,Pcbnew,9.0.7
; #@! TF.FileFunction,Plated,1,2,PTH
FMAT,2
METRIC
; #@! TA.AperFunction,Plated,PTH,ViaDrill
T1C0.300
; #@! TA.AperFunction,Plated,PTH,ViaDrill
T2C0.600
%
G90
G05
T1
X107.04Y-99.52
X107.04Y-139.52
X107.65Y-58.35
X110.52Y-63.96
X111.48Y-76.04
X111.48Y-116.04
X112.65Y-96.65
X112.65Y-136.65
X114.35Y-81.65
X114.35Y-121.65
X127.65Y-58.35
X127.65Y-98.35
X127.65Y-138.35
X130.52Y-63.96
X130.52Y-103.96
X130.52Y-143.96
X131.48Y-76.04
X131.48Y-116.04
X134.35Y-81.65
X134.35Y-121.65
X147.65Y-58.35
X147.65Y-98.35
X147.65Y-138.35
X150.52Y-63.96
X150.52Y-103.96
X150.52Y-143.96
X151.48Y-76.04
X151.48Y-116.04
X154.35Y-81.65
X154.35Y-121.65
X167.65Y-58.35
X167.65Y-98.35
X167.65Y-138.35
X170.52Y-63.96
X170.52Y-103.96
X170.52Y-143.96
X171.48Y-76.04
X171.48Y-116.04
X174.35Y-81.65
X174.35Y-121.65
X187.04Y-59.52
X187.04Y-99.52
X187.65Y-138.35
X190.52Y-143.96
X191.48Y-76.04
X191.48Y-116.04
X192.65Y-56.65
X192.65Y-96.65
X194.35Y-81.65
X194.35Y-121.65
T2
X104.25Y-57.05
X104.25Y-77.05
X104.25Y-94.94
X104.25Y-117.05
X104.25Y-134.94
X105.94Y-66.75
X105.96Y-86.75
X105.96Y-126.75
X108.05Y-106.75
X108.05Y-146.75
X113.95Y-93.25
X113.95Y-133.25
X116.04Y-53.25
X116.06Y-73.25
X116.06Y-113.25
X117.75Y-62.95
X117.75Y-82.95
X117.75Y-105.04
X117.75Y-122.95
X117.75Y-145.04
X124.25Y-57.05
X124.25Y-77.05
X124.25Y-97.05
X124.25Y-117.05
X124.25Y-137.05
X125.94Y-66.75
X125.94Y-106.75
X125.94Y-146.75
X125.96Y-86.75
X125.96Y-126.75
X136.04Y-53.25
X136.04Y-93.25
X136.04Y-133.25
X136.06Y-73.25
X136.06Y-113.25
X137.75Y-62.95
X137.75Y-82.95
X137.75Y-102.95
X137.75Y-122.95
X137.75Y-142.95
X144.25Y-57.05
X144.25Y-77.05
X144.25Y-97.05
X144.25Y-117.05
X144.25Y-137.05
X145.94Y-66.75
X145.94Y-106.75
X145.94Y-146.75
X145.96Y-86.75
X145.96Y-126.75
X156.04Y-53.25
X156.04Y-93.25
X156.04Y-133.25
X156.06Y-73.25
X156.06Y-113.25
X157.75Y-62.95
X157.75Y-82.95
X157.75Y-102.95
X157.75Y-122.95
X157.75Y-142.95
X164.25Y-57.05
X164.25Y-77.05
X164.25Y-97.05
X164.25Y-117.05
X164.25Y-137.05
X165.94Y-66.75
X165.94Y-106.75
X165.94Y-146.75
X165.96Y-86.75
X165.96Y-126.75
X176.04Y-53.25
X176.04Y-93.25
X176.04Y-133.25
X176.06Y-73.25
X176.06Y-113.25
X177.75Y-62.95
X177.75Y-82.95
X177.75Y-102.95
X177.75Y-122.95
X177.75Y-142.95
X184.25Y-54.94
X184.25Y-77.05
X184.25Y-94.94
X184.25Y-117.05
X184.25Y-137.05
X185.94Y-146.75
X185.96Y-86.75
X185.96Y-126.75
X188.05Y-66.75
X188.05Y-106.75
X193.95Y-53.25
X193.95Y-93.25
X196.04Y-133.25
X196.06Y-73.25
X196.06Y-113.25
X197.75Y-65.04
X197.75Y-82.95
X197.75Y-105.04
X197.75Y-122.95
X197.75Y-142.95
M30
