%TF.GenerationSoftware,KiCad,Pcbnew,9.0.7*%
%TF.CreationDate,2026-02-12T20:02:34+01:00*%
%TF.ProjectId,PCB_Neopixel_rigid,5043425f-4e65-46f7-9069-78656c5f7269,rev?*%
%TF.SameCoordinates,Original*%
%TF.FileFunction,Paste,Top*%
%TF.FilePolarity,Positive*%
%FSLAX46Y46*%
G04 Gerber Fmt 4.6, Leading zero omitted, Abs format (unit mm)*
G04 Created by KiCad (PCBNEW 9.0.7) date 2026-02-12 20:02:34*
%MOMM*%
%LPD*%
G01*
G04 APERTURE LIST*
G04 Aperture macros list*
%AMRoundRect*
0 Rectangle with rounded corners*
0 $1 Rounding radius*
0 $2 $3 $4 $5 $6 $7 $8 $9 X,Y pos of 4 corners*
0 Add a 4 corners polygon primitive as box body*
4,1,4,$2,$3,$4,$5,$6,$7,$8,$9,$2,$3,0*
0 Add four circle primitives for the rounded corners*
1,1,$1+$1,$2,$3*
1,1,$1+$1,$4,$5*
1,1,$1+$1,$6,$7*
1,1,$1+$1,$8,$9*
0 Add four rect primitives between the rounded corners*
20,1,$1+$1,$2,$3,$4,$5,0*
20,1,$1+$1,$4,$5,$6,$7,0*
20,1,$1+$1,$6,$7,$8,$9,0*
20,1,$1+$1,$8,$9,$2,$3,0*%
G04 Aperture macros list end*
%ADD10RoundRect,0.140000X0.140000X0.170000X-0.140000X0.170000X-0.140000X-0.170000X0.140000X-0.170000X0*%
%ADD11RoundRect,0.090000X0.660000X0.360000X-0.660000X0.360000X-0.660000X-0.360000X0.660000X-0.360000X0*%
%ADD12RoundRect,0.090000X-0.660000X-0.360000X0.660000X-0.360000X0.660000X0.360000X-0.660000X0.360000X0*%
%ADD13RoundRect,0.140000X-0.140000X-0.170000X0.140000X-0.170000X0.140000X0.170000X-0.140000X0.170000X0*%
%ADD14RoundRect,0.140000X0.170000X-0.140000X0.170000X0.140000X-0.170000X0.140000X-0.170000X-0.140000X0*%
%ADD15RoundRect,0.090000X0.360000X-0.660000X0.360000X0.660000X-0.360000X0.660000X-0.360000X-0.660000X0*%
G04 APERTURE END LIST*
D10*
%TO.C,C1401*%
X150520000Y-103500000D03*
X151480000Y-103500000D03*
%TD*%
D11*
%TO.C,D501*%
X168550000Y-61650000D03*
X168550000Y-58350000D03*
X173450000Y-58350000D03*
X173450000Y-61650000D03*
%TD*%
D12*
%TO.C,D901*%
X153450000Y-78350000D03*
X153450000Y-81650000D03*
X148550000Y-81650000D03*
X148550000Y-78350000D03*
%TD*%
D13*
%TO.C,C1901*%
X151480000Y-116500000D03*
X150520000Y-116500000D03*
%TD*%
D10*
%TO.C,C401*%
X150520000Y-63500000D03*
X151480000Y-63500000D03*
%TD*%
D13*
%TO.C,C2001*%
X131480000Y-116500000D03*
X130520000Y-116500000D03*
%TD*%
D14*
%TO.C,C1601*%
X187500000Y-99520000D03*
X187500000Y-100480000D03*
%TD*%
D13*
%TO.C,C2101*%
X111480000Y-116500000D03*
X110520000Y-116500000D03*
%TD*%
D10*
%TO.C,C2501*%
X170520000Y-143500000D03*
X171480000Y-143500000D03*
%TD*%
D15*
%TO.C,D601*%
X189350000Y-57550000D03*
X192650000Y-57550000D03*
X192650000Y-62450000D03*
X189350000Y-62450000D03*
%TD*%
D13*
%TO.C,C1801*%
X171480000Y-116500000D03*
X170520000Y-116500000D03*
%TD*%
D12*
%TO.C,D701*%
X193450000Y-78350000D03*
X193450000Y-81650000D03*
X188550000Y-81650000D03*
X188550000Y-78350000D03*
%TD*%
%TO.C,D1101*%
X113450000Y-78350000D03*
X113450000Y-81650000D03*
X108550000Y-81650000D03*
X108550000Y-78350000D03*
%TD*%
D11*
%TO.C,D301*%
X128550000Y-61650000D03*
X128550000Y-58350000D03*
X133450000Y-58350000D03*
X133450000Y-61650000D03*
%TD*%
%TO.C,D401*%
X148550000Y-61650000D03*
X148550000Y-58350000D03*
X153450000Y-58350000D03*
X153450000Y-61650000D03*
%TD*%
D14*
%TO.C,C1201*%
X107500000Y-99520000D03*
X107500000Y-100480000D03*
%TD*%
D15*
%TO.C,D2201*%
X109350000Y-137550000D03*
X112650000Y-137550000D03*
X112650000Y-142450000D03*
X109350000Y-142450000D03*
%TD*%
D14*
%TO.C,C601*%
X187500000Y-59520000D03*
X187500000Y-60480000D03*
%TD*%
D10*
%TO.C,C2301*%
X130520000Y-143500000D03*
X131480000Y-143500000D03*
%TD*%
D11*
%TO.C,D2601*%
X188550000Y-141650000D03*
X188550000Y-138350000D03*
X193450000Y-138350000D03*
X193450000Y-141650000D03*
%TD*%
D14*
%TO.C,C2201*%
X107500000Y-139520000D03*
X107500000Y-140480000D03*
%TD*%
D13*
%TO.C,C801*%
X171480000Y-76500000D03*
X170520000Y-76500000D03*
%TD*%
D15*
%TO.C,D1601*%
X189350000Y-97550000D03*
X192650000Y-97550000D03*
X192650000Y-102450000D03*
X189350000Y-102450000D03*
%TD*%
D12*
%TO.C,D1001*%
X133450000Y-78350000D03*
X133450000Y-81650000D03*
X128550000Y-81650000D03*
X128550000Y-78350000D03*
%TD*%
D10*
%TO.C,C301*%
X130520000Y-63500000D03*
X131480000Y-63500000D03*
%TD*%
D11*
%TO.C,D1301*%
X128550000Y-101650000D03*
X128550000Y-98350000D03*
X133450000Y-98350000D03*
X133450000Y-101650000D03*
%TD*%
D12*
%TO.C,D2101*%
X113450000Y-118350000D03*
X113450000Y-121650000D03*
X108550000Y-121650000D03*
X108550000Y-118350000D03*
%TD*%
D15*
%TO.C,D1201*%
X109350000Y-97550000D03*
X112650000Y-97550000D03*
X112650000Y-102450000D03*
X109350000Y-102450000D03*
%TD*%
D12*
%TO.C,D1701*%
X193450000Y-118350000D03*
X193450000Y-121650000D03*
X188550000Y-121650000D03*
X188550000Y-118350000D03*
%TD*%
D10*
%TO.C,C201*%
X110520000Y-63500000D03*
X111480000Y-63500000D03*
%TD*%
D13*
%TO.C,C1701*%
X191480000Y-116500000D03*
X190520000Y-116500000D03*
%TD*%
D10*
%TO.C,C2401*%
X150520000Y-143500000D03*
X151480000Y-143500000D03*
%TD*%
%TO.C,C501*%
X170520000Y-63500000D03*
X171480000Y-63500000D03*
%TD*%
%TO.C,C1501*%
X170520000Y-103500000D03*
X171480000Y-103500000D03*
%TD*%
D11*
%TO.C,D1501*%
X168550000Y-101650000D03*
X168550000Y-98350000D03*
X173450000Y-98350000D03*
X173450000Y-101650000D03*
%TD*%
D12*
%TO.C,D801*%
X173450000Y-78350000D03*
X173450000Y-81650000D03*
X168550000Y-81650000D03*
X168550000Y-78350000D03*
%TD*%
D13*
%TO.C,C701*%
X191480000Y-76500000D03*
X190520000Y-76500000D03*
%TD*%
%TO.C,C1101*%
X111480000Y-76500000D03*
X110520000Y-76500000D03*
%TD*%
D10*
%TO.C,C1301*%
X130520000Y-103500000D03*
X131480000Y-103500000D03*
%TD*%
D13*
%TO.C,C901*%
X151480000Y-76500000D03*
X150520000Y-76500000D03*
%TD*%
D12*
%TO.C,D1801*%
X173450000Y-118350000D03*
X173450000Y-121650000D03*
X168550000Y-121650000D03*
X168550000Y-118350000D03*
%TD*%
D11*
%TO.C,D201*%
X108550000Y-61650000D03*
X108550000Y-58350000D03*
X113450000Y-58350000D03*
X113450000Y-61650000D03*
%TD*%
%TO.C,D2301*%
X128550000Y-141650000D03*
X128550000Y-138350000D03*
X133450000Y-138350000D03*
X133450000Y-141650000D03*
%TD*%
D13*
%TO.C,C1001*%
X131480000Y-76500000D03*
X130520000Y-76500000D03*
%TD*%
D11*
%TO.C,D1401*%
X148550000Y-101650000D03*
X148550000Y-98350000D03*
X153450000Y-98350000D03*
X153450000Y-101650000D03*
%TD*%
D10*
%TO.C,C2601*%
X190520000Y-143500000D03*
X191480000Y-143500000D03*
%TD*%
D12*
%TO.C,D2001*%
X133450000Y-118350000D03*
X133450000Y-121650000D03*
X128550000Y-121650000D03*
X128550000Y-118350000D03*
%TD*%
D11*
%TO.C,D2501*%
X168550000Y-141650000D03*
X168550000Y-138350000D03*
X173450000Y-138350000D03*
X173450000Y-141650000D03*
%TD*%
%TO.C,D2401*%
X148550000Y-141650000D03*
X148550000Y-138350000D03*
X153450000Y-138350000D03*
X153450000Y-141650000D03*
%TD*%
D12*
%TO.C,D1901*%
X153450000Y-118350000D03*
X153450000Y-121650000D03*
X148550000Y-121650000D03*
X148550000Y-118350000D03*
%TD*%
M02*
