%TF.GenerationSoftware,KiCad,Pcbnew,9.0.7*%
%TF.CreationDate,2026-02-12T20:02:34+01:00*%
%TF.ProjectId,PCB_Neopixel_rigid,5043425f-4e65-46f7-9069-78656c5f7269,rev?*%
%TF.SameCoordinates,Original*%
%TF.FileFunction,Soldermask,Top*%
%TF.FilePolarity,Negative*%
%FSLAX46Y46*%
G04 Gerber Fmt 4.6, Leading zero omitted, Abs format (unit mm)*
G04 Created by KiCad (PCBNEW 9.0.7) date 2026-02-12 20:02:34*
%MOMM*%
%LPD*%
G01*
G04 APERTURE LIST*
G04 Aperture macros list*
%AMRoundRect*
0 Rectangle with rounded corners*
0 $1 Rounding radius*
0 $2 $3 $4 $5 $6 $7 $8 $9 X,Y pos of 4 corners*
0 Add a 4 corners polygon primitive as box body*
4,1,4,$2,$3,$4,$5,$6,$7,$8,$9,$2,$3,0*
0 Add four circle primitives for the rounded corners*
1,1,$1+$1,$2,$3*
1,1,$1+$1,$4,$5*
1,1,$1+$1,$6,$7*
1,1,$1+$1,$8,$9*
0 Add four rect primitives between the rounded corners*
20,1,$1+$1,$2,$3,$4,$5,0*
20,1,$1+$1,$4,$5,$6,$7,0*
20,1,$1+$1,$6,$7,$8,$9,0*
20,1,$1+$1,$8,$9,$2,$3,0*%
G04 Aperture macros list end*
%ADD10RoundRect,0.375000X0.375000X1.125000X-0.375000X1.125000X-0.375000X-1.125000X0.375000X-1.125000X0*%
%ADD11RoundRect,0.140000X0.140000X0.170000X-0.140000X0.170000X-0.140000X-0.170000X0.140000X-0.170000X0*%
%ADD12RoundRect,0.375000X-1.125000X0.375000X-1.125000X-0.375000X1.125000X-0.375000X1.125000X0.375000X0*%
%ADD13RoundRect,0.090000X0.660000X0.360000X-0.660000X0.360000X-0.660000X-0.360000X0.660000X-0.360000X0*%
%ADD14RoundRect,0.375000X1.125000X-0.375000X1.125000X0.375000X-1.125000X0.375000X-1.125000X-0.375000X0*%
%ADD15RoundRect,0.090000X-0.660000X-0.360000X0.660000X-0.360000X0.660000X0.360000X-0.660000X0.360000X0*%
%ADD16RoundRect,0.375000X-0.375000X-1.125000X0.375000X-1.125000X0.375000X1.125000X-0.375000X1.125000X0*%
%ADD17RoundRect,0.140000X-0.140000X-0.170000X0.140000X-0.170000X0.140000X0.170000X-0.140000X0.170000X0*%
%ADD18RoundRect,0.140000X0.170000X-0.140000X0.170000X0.140000X-0.170000X0.140000X-0.170000X-0.140000X0*%
%ADD19RoundRect,0.090000X0.360000X-0.660000X0.360000X0.660000X-0.360000X0.660000X-0.360000X-0.660000X0*%
%ADD20C,0.500000*%
G04 APERTURE END LIST*
D10*
%TO.C,J904*%
X154999998Y-73250000D03*
%TD*%
D11*
%TO.C,C1401*%
X150520000Y-103500000D03*
X151480000Y-103500000D03*
%TD*%
D12*
%TO.C,J1010*%
X137750000Y-80000000D03*
%TD*%
D10*
%TO.C,J503*%
X175000000Y-66749999D03*
%TD*%
D12*
%TO.C,J1701*%
X197749998Y-116000000D03*
%TD*%
D13*
%TO.C,D501*%
X168550000Y-61650000D03*
X168550000Y-58350000D03*
X173450000Y-58350000D03*
X173450000Y-61650000D03*
%TD*%
D14*
%TO.C,J311*%
X137750000Y-60000000D03*
%TD*%
D12*
%TO.C,J1811*%
X164250000Y-120000000D03*
%TD*%
D15*
%TO.C,D901*%
X153450000Y-78350000D03*
X153450000Y-81650000D03*
X148550000Y-81650000D03*
X148550000Y-78350000D03*
%TD*%
D16*
%TO.C,J601*%
X187000000Y-53250001D03*
%TD*%
D17*
%TO.C,C1901*%
X151480000Y-116500000D03*
X150520000Y-116500000D03*
%TD*%
D12*
%TO.C,J1006*%
X124250000Y-76000002D03*
%TD*%
D11*
%TO.C,C401*%
X150520000Y-63500000D03*
X151480000Y-63500000D03*
%TD*%
D16*
%TO.C,J2507*%
X167000000Y-133250001D03*
%TD*%
D17*
%TO.C,C2001*%
X131480000Y-116500000D03*
X130520000Y-116500000D03*
%TD*%
D10*
%TO.C,J804*%
X174999998Y-73250000D03*
%TD*%
%TO.C,J1809*%
X171000000Y-113250000D03*
%TD*%
D14*
%TO.C,J1510*%
X164250000Y-100000000D03*
%TD*%
D12*
%TO.C,J710*%
X197750000Y-80000000D03*
%TD*%
D18*
%TO.C,C1601*%
X187500000Y-99520000D03*
X187500000Y-100480000D03*
%TD*%
D12*
%TO.C,J1002*%
X137749999Y-83999998D03*
%TD*%
%TO.C,J1906*%
X144250000Y-116000002D03*
%TD*%
D17*
%TO.C,C2101*%
X111480000Y-116500000D03*
X110520000Y-116500000D03*
%TD*%
D16*
%TO.C,J1903*%
X147000000Y-113250002D03*
%TD*%
%TO.C,J1509*%
X171000000Y-106750000D03*
%TD*%
D14*
%TO.C,J411*%
X157750000Y-60000000D03*
%TD*%
D12*
%TO.C,J2106*%
X104250000Y-116000002D03*
%TD*%
%TO.C,J2011*%
X124250000Y-120000000D03*
%TD*%
%TO.C,J906*%
X144250000Y-76000002D03*
%TD*%
D11*
%TO.C,C2501*%
X170520000Y-143500000D03*
X171480000Y-143500000D03*
%TD*%
D14*
%TO.C,J1502*%
X164250001Y-96000001D03*
%TD*%
D19*
%TO.C,D601*%
X189350000Y-57550000D03*
X192650000Y-57550000D03*
X192650000Y-62450000D03*
X189350000Y-62450000D03*
%TD*%
D17*
%TO.C,C1801*%
X171480000Y-116500000D03*
X170520000Y-116500000D03*
%TD*%
D12*
%TO.C,J1209*%
X104250000Y-100000000D03*
%TD*%
D16*
%TO.C,J504*%
X167000001Y-66750000D03*
%TD*%
D12*
%TO.C,J2207*%
X117749999Y-136000000D03*
%TD*%
D14*
%TO.C,J2203*%
X104250001Y-144000000D03*
%TD*%
D16*
%TO.C,J611*%
X191000000Y-66750000D03*
%TD*%
D12*
%TO.C,J1005*%
X124250002Y-84000000D03*
%TD*%
D10*
%TO.C,J2007*%
X135000000Y-126749998D03*
%TD*%
D12*
%TO.C,J2005*%
X124250002Y-124000000D03*
%TD*%
%TO.C,J801*%
X177749998Y-76000000D03*
%TD*%
D10*
%TO.C,J1907*%
X155000000Y-126749998D03*
%TD*%
D12*
%TO.C,J1705*%
X184250002Y-124000000D03*
%TD*%
D14*
%TO.C,J1603*%
X184250001Y-104000000D03*
%TD*%
D10*
%TO.C,J912*%
X151000000Y-86750000D03*
%TD*%
D15*
%TO.C,D701*%
X193450000Y-78350000D03*
X193450000Y-81650000D03*
X188550000Y-81650000D03*
X188550000Y-78350000D03*
%TD*%
D12*
%TO.C,J911*%
X144250000Y-80000000D03*
%TD*%
D14*
%TO.C,J1410*%
X144250000Y-100000000D03*
%TD*%
D10*
%TO.C,J1707*%
X195000000Y-126749998D03*
%TD*%
D15*
%TO.C,D1101*%
X113450000Y-78350000D03*
X113450000Y-81650000D03*
X108550000Y-81650000D03*
X108550000Y-78350000D03*
%TD*%
D10*
%TO.C,J1108*%
X107000002Y-86750000D03*
%TD*%
D16*
%TO.C,J308*%
X134999999Y-53250000D03*
%TD*%
%TO.C,J312*%
X131000000Y-53250000D03*
%TD*%
D14*
%TO.C,J1302*%
X124250001Y-96000001D03*
%TD*%
D12*
%TO.C,J1102*%
X117749999Y-83999998D03*
%TD*%
D16*
%TO.C,J1412*%
X151000000Y-93250000D03*
%TD*%
%TO.C,J208*%
X114999999Y-53250000D03*
%TD*%
%TO.C,J605*%
X195000000Y-66749999D03*
%TD*%
D12*
%TO.C,J1706*%
X184250000Y-116000002D03*
%TD*%
D16*
%TO.C,J407*%
X147000000Y-53250001D03*
%TD*%
D14*
%TO.C,J202*%
X104250001Y-56000001D03*
%TD*%
D16*
%TO.C,J606*%
X187000002Y-66750000D03*
%TD*%
D12*
%TO.C,J711*%
X184250000Y-80000000D03*
%TD*%
D14*
%TO.C,J211*%
X117750000Y-60000000D03*
%TD*%
D10*
%TO.C,J909*%
X151000000Y-73250000D03*
%TD*%
D13*
%TO.C,D301*%
X128550000Y-61650000D03*
X128550000Y-58350000D03*
X133450000Y-58350000D03*
X133450000Y-61650000D03*
%TD*%
D16*
%TO.C,J2312*%
X131000000Y-133250000D03*
%TD*%
D12*
%TO.C,J1805*%
X164250002Y-124000000D03*
%TD*%
%TO.C,J910*%
X157750000Y-80000000D03*
%TD*%
D16*
%TO.C,J1611*%
X191000000Y-106750000D03*
%TD*%
%TO.C,J2308*%
X134999999Y-133250000D03*
%TD*%
%TO.C,J1407*%
X147000000Y-93250001D03*
%TD*%
%TO.C,J1512*%
X171000000Y-93250000D03*
%TD*%
%TO.C,J508*%
X174999999Y-53250000D03*
%TD*%
D12*
%TO.C,J701*%
X197749998Y-76000000D03*
%TD*%
D16*
%TO.C,J1404*%
X147000001Y-106750000D03*
%TD*%
D10*
%TO.C,J704*%
X194999998Y-73250000D03*
%TD*%
D13*
%TO.C,D401*%
X148550000Y-61650000D03*
X148550000Y-58350000D03*
X153450000Y-58350000D03*
X153450000Y-61650000D03*
%TD*%
D18*
%TO.C,C1201*%
X107500000Y-99520000D03*
X107500000Y-100480000D03*
%TD*%
D14*
%TO.C,J2502*%
X164250001Y-136000001D03*
%TD*%
D16*
%TO.C,J1201*%
X107000000Y-93250001D03*
%TD*%
%TO.C,J2003*%
X127000000Y-113250002D03*
%TD*%
D14*
%TO.C,J2401*%
X144250001Y-144000000D03*
%TD*%
D10*
%TO.C,J1808*%
X167000002Y-126750000D03*
%TD*%
D16*
%TO.C,J408*%
X154999999Y-53250000D03*
%TD*%
D14*
%TO.C,J2605*%
X197749999Y-136000000D03*
%TD*%
D12*
%TO.C,J2002*%
X137749999Y-123999998D03*
%TD*%
D16*
%TO.C,J903*%
X147000000Y-73250002D03*
%TD*%
D19*
%TO.C,D2201*%
X109350000Y-137550000D03*
X112650000Y-137550000D03*
X112650000Y-142450000D03*
X109350000Y-142450000D03*
%TD*%
D12*
%TO.C,J802*%
X177749999Y-83999998D03*
%TD*%
D18*
%TO.C,C601*%
X187500000Y-59520000D03*
X187500000Y-60480000D03*
%TD*%
D14*
%TO.C,J206*%
X117750000Y-63999999D03*
%TD*%
D16*
%TO.C,J412*%
X151000000Y-53250000D03*
%TD*%
%TO.C,J2608*%
X194999999Y-133250000D03*
%TD*%
%TO.C,J1312*%
X131000000Y-93250000D03*
%TD*%
%TO.C,J304*%
X127000001Y-66750000D03*
%TD*%
%TO.C,J1409*%
X151000000Y-106750000D03*
%TD*%
%TO.C,J2412*%
X151000000Y-133250000D03*
%TD*%
D11*
%TO.C,C2301*%
X130520000Y-143500000D03*
X131480000Y-143500000D03*
%TD*%
D14*
%TO.C,J2310*%
X124250000Y-140000000D03*
%TD*%
D12*
%TO.C,J2111*%
X104250000Y-120000000D03*
%TD*%
D13*
%TO.C,D2601*%
X188550000Y-141650000D03*
X188550000Y-138350000D03*
X193450000Y-138350000D03*
X193450000Y-141650000D03*
%TD*%
D14*
%TO.C,J2302*%
X124250001Y-136000001D03*
%TD*%
%TO.C,J1301*%
X124250001Y-104000000D03*
%TD*%
D18*
%TO.C,C2201*%
X107500000Y-139520000D03*
X107500000Y-140480000D03*
%TD*%
D17*
%TO.C,C801*%
X171480000Y-76500000D03*
X170520000Y-76500000D03*
%TD*%
D14*
%TO.C,J305*%
X137749999Y-56000000D03*
%TD*%
D10*
%TO.C,J1008*%
X127000002Y-86750000D03*
%TD*%
D19*
%TO.C,D1601*%
X189350000Y-97550000D03*
X192650000Y-97550000D03*
X192650000Y-102450000D03*
X189350000Y-102450000D03*
%TD*%
D16*
%TO.C,J1504*%
X167000001Y-106750000D03*
%TD*%
D15*
%TO.C,D1001*%
X133450000Y-78350000D03*
X133450000Y-81650000D03*
X128550000Y-81650000D03*
X128550000Y-78350000D03*
%TD*%
D12*
%TO.C,J2209*%
X104250000Y-140000000D03*
%TD*%
D10*
%TO.C,J1012*%
X131000000Y-86750000D03*
%TD*%
%TO.C,J2109*%
X111000000Y-113250000D03*
%TD*%
D11*
%TO.C,C301*%
X130520000Y-63500000D03*
X131480000Y-63500000D03*
%TD*%
D12*
%TO.C,J1208*%
X117750000Y-103999998D03*
%TD*%
D16*
%TO.C,J2103*%
X107000000Y-113250002D03*
%TD*%
%TO.C,J2508*%
X174999999Y-133250000D03*
%TD*%
%TO.C,J207*%
X107000000Y-53250001D03*
%TD*%
%TO.C,J2211*%
X111000000Y-146750000D03*
%TD*%
D10*
%TO.C,J1112*%
X111000000Y-86750000D03*
%TD*%
%TO.C,J1403*%
X155000000Y-106749999D03*
%TD*%
D13*
%TO.C,D1301*%
X128550000Y-101650000D03*
X128550000Y-98350000D03*
X133450000Y-98350000D03*
X133450000Y-101650000D03*
%TD*%
D14*
%TO.C,J1311*%
X137750000Y-100000000D03*
%TD*%
D10*
%TO.C,J907*%
X155000000Y-86749998D03*
%TD*%
D15*
%TO.C,D2101*%
X113450000Y-118350000D03*
X113450000Y-121650000D03*
X108550000Y-121650000D03*
X108550000Y-118350000D03*
%TD*%
D14*
%TO.C,J2501*%
X164250001Y-144000000D03*
%TD*%
D16*
%TO.C,J409*%
X151000000Y-66750000D03*
%TD*%
%TO.C,J1307*%
X127000000Y-93250001D03*
%TD*%
D14*
%TO.C,J505*%
X177749999Y-56000000D03*
%TD*%
D16*
%TO.C,J512*%
X171000000Y-53250000D03*
%TD*%
%TO.C,J1605*%
X195000000Y-106749999D03*
%TD*%
%TO.C,J1206*%
X107000002Y-106750000D03*
%TD*%
D14*
%TO.C,J1411*%
X157750000Y-100000000D03*
%TD*%
%TO.C,J1401*%
X144250001Y-104000000D03*
%TD*%
D10*
%TO.C,J1812*%
X171000000Y-126750000D03*
%TD*%
D16*
%TO.C,J1507*%
X167000000Y-93250001D03*
%TD*%
D12*
%TO.C,J1111*%
X104250000Y-80000000D03*
%TD*%
D14*
%TO.C,J2410*%
X144250000Y-140000000D03*
%TD*%
D10*
%TO.C,J812*%
X171000000Y-86750000D03*
%TD*%
D12*
%TO.C,J2105*%
X104250002Y-124000000D03*
%TD*%
D16*
%TO.C,J1308*%
X134999999Y-93250000D03*
%TD*%
%TO.C,J803*%
X167000000Y-73250002D03*
%TD*%
D10*
%TO.C,J2008*%
X127000002Y-126750000D03*
%TD*%
D16*
%TO.C,J1210*%
X111000000Y-93250000D03*
%TD*%
D10*
%TO.C,J908*%
X147000002Y-86750000D03*
%TD*%
D14*
%TO.C,J2311*%
X137750000Y-140000000D03*
%TD*%
D16*
%TO.C,J2210*%
X111000000Y-133250000D03*
%TD*%
%TO.C,J212*%
X111000000Y-53250000D03*
%TD*%
D12*
%TO.C,J1101*%
X117749998Y-76000000D03*
%TD*%
%TO.C,J1802*%
X177749999Y-123999998D03*
%TD*%
D16*
%TO.C,J509*%
X171000000Y-66750000D03*
%TD*%
D12*
%TO.C,J604*%
X184250000Y-56000002D03*
%TD*%
D10*
%TO.C,J708*%
X187000002Y-86750000D03*
%TD*%
D12*
%TO.C,J1901*%
X157749998Y-116000000D03*
%TD*%
D16*
%TO.C,J1408*%
X154999999Y-93250000D03*
%TD*%
D12*
%TO.C,J1207*%
X117749999Y-96000000D03*
%TD*%
%TO.C,J1106*%
X104250000Y-76000002D03*
%TD*%
D10*
%TO.C,J1704*%
X194999998Y-113250000D03*
%TD*%
D19*
%TO.C,D1201*%
X109350000Y-97550000D03*
X112650000Y-97550000D03*
X112650000Y-102450000D03*
X109350000Y-102450000D03*
%TD*%
D14*
%TO.C,J510*%
X164250000Y-60000000D03*
%TD*%
D15*
%TO.C,D1701*%
X193450000Y-118350000D03*
X193450000Y-121650000D03*
X188550000Y-121650000D03*
X188550000Y-118350000D03*
%TD*%
D16*
%TO.C,J2612*%
X191000000Y-133250000D03*
%TD*%
D12*
%TO.C,J1212*%
X117750000Y-100000000D03*
%TD*%
D16*
%TO.C,J2206*%
X107000002Y-146750000D03*
%TD*%
D12*
%TO.C,J1710*%
X197750000Y-120000000D03*
%TD*%
D10*
%TO.C,J2012*%
X131000000Y-126750000D03*
%TD*%
D16*
%TO.C,J307*%
X127000000Y-53250001D03*
%TD*%
D12*
%TO.C,J2208*%
X117750000Y-143999998D03*
%TD*%
D14*
%TO.C,J2405*%
X157749999Y-136000000D03*
%TD*%
D10*
%TO.C,J1708*%
X187000002Y-126750000D03*
%TD*%
D16*
%TO.C,J2201*%
X107000000Y-133250001D03*
%TD*%
D12*
%TO.C,J2101*%
X117749998Y-116000000D03*
%TD*%
D10*
%TO.C,J1912*%
X151000000Y-126750000D03*
%TD*%
D12*
%TO.C,J806*%
X164250000Y-76000002D03*
%TD*%
D16*
%TO.C,J2409*%
X151000000Y-146750000D03*
%TD*%
D14*
%TO.C,J406*%
X157750000Y-63999999D03*
%TD*%
D12*
%TO.C,J705*%
X184250002Y-84000000D03*
%TD*%
D16*
%TO.C,J1606*%
X187000002Y-106750000D03*
%TD*%
D14*
%TO.C,J1405*%
X157749999Y-96000000D03*
%TD*%
D12*
%TO.C,J1011*%
X124250000Y-80000000D03*
%TD*%
D11*
%TO.C,C201*%
X110520000Y-63500000D03*
X111480000Y-63500000D03*
%TD*%
D16*
%TO.C,J2304*%
X127000001Y-146750000D03*
%TD*%
D10*
%TO.C,J808*%
X167000002Y-86750000D03*
%TD*%
D12*
%TO.C,J1911*%
X144250000Y-120000000D03*
%TD*%
D14*
%TO.C,J2606*%
X197750000Y-143999999D03*
%TD*%
D17*
%TO.C,C1701*%
X191480000Y-116500000D03*
X190520000Y-116500000D03*
%TD*%
D14*
%TO.C,J1310*%
X124250000Y-100000000D03*
%TD*%
D16*
%TO.C,J2512*%
X171000000Y-133250000D03*
%TD*%
%TO.C,J2609*%
X191000000Y-146750000D03*
%TD*%
D14*
%TO.C,J501*%
X164250001Y-64000000D03*
%TD*%
D16*
%TO.C,J2607*%
X187000000Y-133250001D03*
%TD*%
D10*
%TO.C,J2107*%
X115000000Y-126749998D03*
%TD*%
D11*
%TO.C,C2401*%
X150520000Y-143500000D03*
X151480000Y-143500000D03*
%TD*%
D14*
%TO.C,J603*%
X184250001Y-64000000D03*
%TD*%
D10*
%TO.C,J2004*%
X134999998Y-113250000D03*
%TD*%
%TO.C,J1009*%
X131000000Y-73250000D03*
%TD*%
D11*
%TO.C,C501*%
X170520000Y-63500000D03*
X171480000Y-63500000D03*
%TD*%
D14*
%TO.C,J2306*%
X137750000Y-143999999D03*
%TD*%
D12*
%TO.C,J2204*%
X104250000Y-136000002D03*
%TD*%
D14*
%TO.C,J302*%
X124250001Y-56000001D03*
%TD*%
D10*
%TO.C,J2403*%
X155000000Y-146749999D03*
%TD*%
%TO.C,J709*%
X191000000Y-73250000D03*
%TD*%
D14*
%TO.C,J2611*%
X197750000Y-140000000D03*
%TD*%
D12*
%TO.C,J905*%
X144250002Y-84000000D03*
%TD*%
%TO.C,J901*%
X157749998Y-76000000D03*
%TD*%
D11*
%TO.C,C1501*%
X170520000Y-103500000D03*
X171480000Y-103500000D03*
%TD*%
D14*
%TO.C,J1305*%
X137749999Y-96000000D03*
%TD*%
D16*
%TO.C,J2504*%
X167000001Y-146750000D03*
%TD*%
D12*
%TO.C,J706*%
X184250000Y-76000002D03*
%TD*%
D13*
%TO.C,D1501*%
X168550000Y-101650000D03*
X168550000Y-98350000D03*
X173450000Y-98350000D03*
X173450000Y-101650000D03*
%TD*%
D10*
%TO.C,J2303*%
X135000000Y-146749999D03*
%TD*%
D14*
%TO.C,J1306*%
X137750000Y-103999999D03*
%TD*%
D12*
%TO.C,J702*%
X197749999Y-83999998D03*
%TD*%
D14*
%TO.C,J210*%
X104250000Y-60000000D03*
%TD*%
D15*
%TO.C,D801*%
X173450000Y-78350000D03*
X173450000Y-81650000D03*
X168550000Y-81650000D03*
X168550000Y-78350000D03*
%TD*%
D10*
%TO.C,J2503*%
X175000000Y-146749999D03*
%TD*%
D16*
%TO.C,J507*%
X167000000Y-53250001D03*
%TD*%
%TO.C,J2404*%
X147000001Y-146750000D03*
%TD*%
D12*
%TO.C,J1810*%
X177750000Y-120000000D03*
%TD*%
D16*
%TO.C,J2202*%
X114999998Y-133250001D03*
%TD*%
%TO.C,J703*%
X187000000Y-73250002D03*
%TD*%
D10*
%TO.C,J2603*%
X195000000Y-146749999D03*
%TD*%
D16*
%TO.C,J2407*%
X147000000Y-133250001D03*
%TD*%
D10*
%TO.C,J1503*%
X175000000Y-106749999D03*
%TD*%
%TO.C,J807*%
X175000000Y-86749998D03*
%TD*%
D12*
%TO.C,J2212*%
X117750000Y-140000000D03*
%TD*%
D10*
%TO.C,J1107*%
X115000000Y-86749998D03*
%TD*%
D12*
%TO.C,J607*%
X197749999Y-56000000D03*
%TD*%
D14*
%TO.C,J301*%
X124250001Y-64000000D03*
%TD*%
D17*
%TO.C,C701*%
X191480000Y-76500000D03*
X190520000Y-76500000D03*
%TD*%
D10*
%TO.C,J809*%
X171000000Y-73250000D03*
%TD*%
D16*
%TO.C,J2307*%
X127000000Y-133250001D03*
%TD*%
D12*
%TO.C,J1001*%
X137749998Y-76000000D03*
%TD*%
D16*
%TO.C,J204*%
X107000001Y-66750000D03*
%TD*%
D10*
%TO.C,J707*%
X195000000Y-86749998D03*
%TD*%
%TO.C,J1908*%
X147000002Y-126750000D03*
%TD*%
D12*
%TO.C,J1612*%
X197750000Y-100000000D03*
%TD*%
D16*
%TO.C,J1803*%
X167000000Y-113250002D03*
%TD*%
D14*
%TO.C,J1501*%
X164250001Y-104000000D03*
%TD*%
%TO.C,J1402*%
X144250001Y-96000001D03*
%TD*%
D10*
%TO.C,J1004*%
X134999998Y-73250000D03*
%TD*%
D14*
%TO.C,J2406*%
X157750000Y-143999999D03*
%TD*%
D10*
%TO.C,J303*%
X135000000Y-66749999D03*
%TD*%
D16*
%TO.C,J1003*%
X127000000Y-73250002D03*
%TD*%
D14*
%TO.C,J2301*%
X124250001Y-144000000D03*
%TD*%
D12*
%TO.C,J2110*%
X117750000Y-120000000D03*
%TD*%
D17*
%TO.C,C1101*%
X111480000Y-76500000D03*
X110520000Y-76500000D03*
%TD*%
D11*
%TO.C,C1301*%
X130520000Y-103500000D03*
X131480000Y-103500000D03*
%TD*%
D10*
%TO.C,J1804*%
X174999998Y-113250000D03*
%TD*%
D14*
%TO.C,J405*%
X157749999Y-56000000D03*
%TD*%
D16*
%TO.C,J2509*%
X171000000Y-146750000D03*
%TD*%
D10*
%TO.C,J403*%
X155000000Y-66749999D03*
%TD*%
D14*
%TO.C,J2402*%
X144250001Y-136000001D03*
%TD*%
D10*
%TO.C,J2112*%
X111000000Y-126750000D03*
%TD*%
%TO.C,J1712*%
X191000000Y-126750000D03*
%TD*%
D14*
%TO.C,J2305*%
X137749999Y-136000000D03*
%TD*%
D12*
%TO.C,J2102*%
X117749999Y-123999998D03*
%TD*%
D17*
%TO.C,C901*%
X151480000Y-76500000D03*
X150520000Y-76500000D03*
%TD*%
D12*
%TO.C,J1204*%
X104250000Y-96000002D03*
%TD*%
%TO.C,J1604*%
X184250000Y-96000002D03*
%TD*%
D14*
%TO.C,J1506*%
X177750000Y-103999999D03*
%TD*%
D15*
%TO.C,D1801*%
X173450000Y-118350000D03*
X173450000Y-121650000D03*
X168550000Y-121650000D03*
X168550000Y-118350000D03*
%TD*%
D12*
%TO.C,J2006*%
X124250000Y-116000002D03*
%TD*%
D14*
%TO.C,J2511*%
X177750000Y-140000000D03*
%TD*%
D10*
%TO.C,J2108*%
X107000002Y-126750000D03*
%TD*%
D12*
%TO.C,J1607*%
X197749999Y-96000000D03*
%TD*%
%TO.C,J1608*%
X197750000Y-103999998D03*
%TD*%
D10*
%TO.C,J1904*%
X154999998Y-113250000D03*
%TD*%
D14*
%TO.C,J205*%
X117749999Y-56000000D03*
%TD*%
D12*
%TO.C,J1910*%
X157750000Y-120000000D03*
%TD*%
D10*
%TO.C,J1104*%
X114999998Y-73250000D03*
%TD*%
D16*
%TO.C,J1103*%
X107000000Y-73250002D03*
%TD*%
D12*
%TO.C,J1902*%
X157749999Y-123999998D03*
%TD*%
D14*
%TO.C,J2602*%
X184250001Y-136000001D03*
%TD*%
%TO.C,J401*%
X144250001Y-64000000D03*
%TD*%
D10*
%TO.C,J1909*%
X151000000Y-113250000D03*
%TD*%
D14*
%TO.C,J2505*%
X177749999Y-136000000D03*
%TD*%
%TO.C,J201*%
X104250001Y-64000000D03*
%TD*%
D10*
%TO.C,J2009*%
X131000000Y-113250000D03*
%TD*%
D12*
%TO.C,J1905*%
X144250002Y-124000000D03*
%TD*%
D14*
%TO.C,J506*%
X177750000Y-63999999D03*
%TD*%
D16*
%TO.C,J610*%
X191000000Y-53250000D03*
%TD*%
D13*
%TO.C,D201*%
X108550000Y-61650000D03*
X108550000Y-58350000D03*
X113450000Y-58350000D03*
X113450000Y-61650000D03*
%TD*%
%TO.C,D2301*%
X128550000Y-141650000D03*
X128550000Y-138350000D03*
X133450000Y-138350000D03*
X133450000Y-141650000D03*
%TD*%
D14*
%TO.C,J402*%
X144250001Y-56000001D03*
%TD*%
D12*
%TO.C,J609*%
X184250000Y-60000000D03*
%TD*%
D16*
%TO.C,J1508*%
X174999999Y-93250000D03*
%TD*%
%TO.C,J309*%
X131000000Y-66750000D03*
%TD*%
%TO.C,J1610*%
X191000000Y-93250000D03*
%TD*%
%TO.C,J1602*%
X194999998Y-93250001D03*
%TD*%
D14*
%TO.C,J1203*%
X104250001Y-104000000D03*
%TD*%
D12*
%TO.C,J1806*%
X164250000Y-116000002D03*
%TD*%
D14*
%TO.C,J2506*%
X177750000Y-143999999D03*
%TD*%
%TO.C,J511*%
X177750000Y-60000000D03*
%TD*%
D16*
%TO.C,J404*%
X147000001Y-66750000D03*
%TD*%
D17*
%TO.C,C1001*%
X131480000Y-76500000D03*
X130520000Y-76500000D03*
%TD*%
D14*
%TO.C,J310*%
X124250000Y-60000000D03*
%TD*%
D12*
%TO.C,J811*%
X164250000Y-80000000D03*
%TD*%
%TO.C,J1110*%
X117750000Y-80000000D03*
%TD*%
%TO.C,J805*%
X164250002Y-84000000D03*
%TD*%
%TO.C,J608*%
X197750000Y-63999998D03*
%TD*%
D10*
%TO.C,J712*%
X191000000Y-86750000D03*
%TD*%
D16*
%TO.C,J1202*%
X114999998Y-93250001D03*
%TD*%
%TO.C,J1703*%
X187000000Y-113250002D03*
%TD*%
D12*
%TO.C,J1702*%
X197749999Y-123999998D03*
%TD*%
D14*
%TO.C,J410*%
X144250000Y-60000000D03*
%TD*%
D12*
%TO.C,J902*%
X157749999Y-83999998D03*
%TD*%
%TO.C,J1711*%
X184250000Y-120000000D03*
%TD*%
D14*
%TO.C,J2411*%
X157750000Y-140000000D03*
%TD*%
D16*
%TO.C,J2604*%
X187000001Y-146750000D03*
%TD*%
D14*
%TO.C,J2601*%
X184250001Y-144000000D03*
%TD*%
D12*
%TO.C,J1801*%
X177749998Y-116000000D03*
%TD*%
D16*
%TO.C,J1304*%
X127000001Y-106750000D03*
%TD*%
D14*
%TO.C,J1511*%
X177750000Y-100000000D03*
%TD*%
D12*
%TO.C,J2001*%
X137749998Y-116000000D03*
%TD*%
D14*
%TO.C,J306*%
X137750000Y-63999999D03*
%TD*%
D16*
%TO.C,J602*%
X194999998Y-53250001D03*
%TD*%
D10*
%TO.C,J2104*%
X114999998Y-113250000D03*
%TD*%
D14*
%TO.C,J502*%
X164250001Y-56000001D03*
%TD*%
D10*
%TO.C,J1109*%
X111000000Y-73250000D03*
%TD*%
D16*
%TO.C,J209*%
X111000000Y-66750000D03*
%TD*%
D10*
%TO.C,J1709*%
X191000000Y-113250000D03*
%TD*%
D13*
%TO.C,D1401*%
X148550000Y-101650000D03*
X148550000Y-98350000D03*
X153450000Y-98350000D03*
X153450000Y-101650000D03*
%TD*%
D11*
%TO.C,C2601*%
X190520000Y-143500000D03*
X191480000Y-143500000D03*
%TD*%
D14*
%TO.C,J2510*%
X164250000Y-140000000D03*
%TD*%
D12*
%TO.C,J2010*%
X137750000Y-120000000D03*
%TD*%
D16*
%TO.C,J1205*%
X115000000Y-106749999D03*
%TD*%
D14*
%TO.C,J1406*%
X157750000Y-103999999D03*
%TD*%
D10*
%TO.C,J1303*%
X135000000Y-106749999D03*
%TD*%
D16*
%TO.C,J1309*%
X131000000Y-106750000D03*
%TD*%
%TO.C,J1601*%
X187000000Y-93250001D03*
%TD*%
D12*
%TO.C,J810*%
X177750000Y-80000000D03*
%TD*%
D14*
%TO.C,J1505*%
X177749999Y-96000000D03*
%TD*%
D16*
%TO.C,J2205*%
X115000000Y-146749999D03*
%TD*%
%TO.C,J2408*%
X154999999Y-133250000D03*
%TD*%
D10*
%TO.C,J1007*%
X135000000Y-86749998D03*
%TD*%
D15*
%TO.C,D2001*%
X133450000Y-118350000D03*
X133450000Y-121650000D03*
X128550000Y-121650000D03*
X128550000Y-118350000D03*
%TD*%
D10*
%TO.C,J1807*%
X175000000Y-126749998D03*
%TD*%
D13*
%TO.C,D2501*%
X168550000Y-141650000D03*
X168550000Y-138350000D03*
X173450000Y-138350000D03*
X173450000Y-141650000D03*
%TD*%
D12*
%TO.C,J612*%
X197750000Y-60000000D03*
%TD*%
D13*
%TO.C,D2401*%
X148550000Y-141650000D03*
X148550000Y-138350000D03*
X153450000Y-138350000D03*
X153450000Y-141650000D03*
%TD*%
D16*
%TO.C,J1211*%
X111000000Y-106750000D03*
%TD*%
D10*
%TO.C,J203*%
X115000000Y-66749999D03*
%TD*%
D14*
%TO.C,J2610*%
X184250000Y-140000000D03*
%TD*%
D12*
%TO.C,J1609*%
X184250000Y-100000000D03*
%TD*%
%TO.C,J1105*%
X104250002Y-84000000D03*
%TD*%
D15*
%TO.C,D1901*%
X153450000Y-118350000D03*
X153450000Y-121650000D03*
X148550000Y-121650000D03*
X148550000Y-118350000D03*
%TD*%
D16*
%TO.C,J2309*%
X131000000Y-146750000D03*
%TD*%
D20*
%TO.C,REF\u002A\u002A*%
X121000000Y-60720000D03*
%TD*%
%TO.C,REF\u002A\u002A*%
X121000000Y-59280000D03*
%TD*%
%TO.C,REF\u002A\u002A1*%
X141000000Y-60720000D03*
%TD*%
%TO.C,REF\u002A\u002A2*%
X141000000Y-59280000D03*
%TD*%
%TO.C,REF\u002A\u002A3*%
X161000000Y-60720000D03*
%TD*%
%TO.C,REF\u002A\u002A4*%
X161000000Y-59280000D03*
%TD*%
%TO.C,REF\u002A\u002A5*%
X181000000Y-60720000D03*
%TD*%
%TO.C,REF\u002A\u002A6*%
X181000000Y-59280000D03*
%TD*%
%TO.C,REF\u002A\u002A9*%
X121000000Y-80720000D03*
%TD*%
%TO.C,REF\u002A\u002A10*%
X121000000Y-79280000D03*
%TD*%
%TO.C,REF\u002A\u002A11*%
X141000000Y-80720000D03*
%TD*%
%TO.C,REF\u002A\u002A12*%
X141000000Y-79280000D03*
%TD*%
%TO.C,REF\u002A\u002A13*%
X161000000Y-80720000D03*
%TD*%
%TO.C,REF\u002A\u002A14*%
X161000000Y-79280000D03*
%TD*%
%TO.C,REF\u002A\u002A15*%
X181000000Y-80720000D03*
%TD*%
%TO.C,REF\u002A\u002A16*%
X181000000Y-79280000D03*
%TD*%
%TO.C,REF\u002A\u002A19*%
X121000000Y-100720000D03*
%TD*%
%TO.C,REF\u002A\u002A20*%
X121000000Y-99280000D03*
%TD*%
%TO.C,REF\u002A\u002A21*%
X141000000Y-100720000D03*
%TD*%
%TO.C,REF\u002A\u002A22*%
X141000000Y-99280000D03*
%TD*%
%TO.C,REF\u002A\u002A23*%
X161000000Y-100720000D03*
%TD*%
%TO.C,REF\u002A\u002A24*%
X161000000Y-99280000D03*
%TD*%
%TO.C,REF\u002A\u002A25*%
X181000000Y-100720000D03*
%TD*%
%TO.C,REF\u002A\u002A26*%
X181000000Y-99280000D03*
%TD*%
%TO.C,REF\u002A\u002A29*%
X121000000Y-120720000D03*
%TD*%
%TO.C,REF\u002A\u002A30*%
X121000000Y-119280000D03*
%TD*%
%TO.C,REF\u002A\u002A31*%
X141000000Y-120720000D03*
%TD*%
%TO.C,REF\u002A\u002A32*%
X141000000Y-119280000D03*
%TD*%
%TO.C,REF\u002A\u002A33*%
X161000000Y-120720000D03*
%TD*%
%TO.C,REF\u002A\u002A34*%
X161000000Y-119280000D03*
%TD*%
%TO.C,REF\u002A\u002A35*%
X181000000Y-120720000D03*
%TD*%
%TO.C,REF\u002A\u002A36*%
X181000000Y-119280000D03*
%TD*%
%TO.C,REF\u002A\u002A39*%
X121000000Y-140720000D03*
%TD*%
%TO.C,REF\u002A\u002A40*%
X121000000Y-139280000D03*
%TD*%
%TO.C,REF\u002A\u002A41*%
X141000000Y-140720000D03*
%TD*%
%TO.C,REF\u002A\u002A42*%
X141000000Y-139280000D03*
%TD*%
%TO.C,REF\u002A\u002A43*%
X161000000Y-140720000D03*
%TD*%
%TO.C,REF\u002A\u002A44*%
X161000000Y-139280000D03*
%TD*%
%TO.C,REF\u002A\u002A45*%
X181000000Y-140720000D03*
%TD*%
%TO.C,REF\u002A\u002A46*%
X181000000Y-139280000D03*
%TD*%
%TO.C,REF\u002A\u002A*%
X158375000Y-110000000D03*
%TD*%
%TO.C,REF\u002A\u002A*%
X159625000Y-110000000D03*
%TD*%
%TO.C,REF\u002A\u002A*%
X154375000Y-110000000D03*
%TD*%
%TO.C,REF\u002A\u002A*%
X155625000Y-110000000D03*
%TD*%
%TO.C,REF\u002A\u002A*%
X150375000Y-110000000D03*
%TD*%
%TO.C,REF\u002A\u002A*%
X151625000Y-110000000D03*
%TD*%
%TO.C,REF\u002A\u002A*%
X143625000Y-110000000D03*
%TD*%
%TO.C,REF\u002A\u002A*%
X142375000Y-110000000D03*
%TD*%
%TO.C,REF\u002A\u002A*%
X139625000Y-110000000D03*
%TD*%
%TO.C,REF\u002A\u002A*%
X138375000Y-110000000D03*
%TD*%
%TO.C,REF\u002A\u002A*%
X146375000Y-110000000D03*
%TD*%
%TO.C,REF\u002A\u002A*%
X147625000Y-110000000D03*
%TD*%
%TO.C,REF\u002A\u002A*%
X119625000Y-110000000D03*
%TD*%
%TO.C,REF\u002A\u002A*%
X118375000Y-110000000D03*
%TD*%
%TO.C,REF\u002A\u002A*%
X115625000Y-110000000D03*
%TD*%
%TO.C,REF\u002A\u002A*%
X114375000Y-110000000D03*
%TD*%
%TO.C,REF\u002A\u002A*%
X131625000Y-110000000D03*
%TD*%
%TO.C,REF\u002A\u002A*%
X130375000Y-110000000D03*
%TD*%
%TO.C,REF\u002A\u002A*%
X127625000Y-110000000D03*
%TD*%
%TO.C,REF\u002A\u002A*%
X126375000Y-110000000D03*
%TD*%
%TO.C,REF\u002A\u002A*%
X123625000Y-110000000D03*
%TD*%
%TO.C,REF\u002A\u002A*%
X122375000Y-110000000D03*
%TD*%
%TO.C,REF\u002A\u002A*%
X134375000Y-110000000D03*
%TD*%
%TO.C,REF\u002A\u002A*%
X135625000Y-110000000D03*
%TD*%
%TO.C,REF\u002A\u002A*%
X106375000Y-110000000D03*
%TD*%
%TO.C,REF\u002A\u002A*%
X107625000Y-110000000D03*
%TD*%
%TO.C,REF\u002A\u002A*%
X103625000Y-110000000D03*
%TD*%
%TO.C,REF\u002A\u002A*%
X102375000Y-110000000D03*
%TD*%
%TO.C,REF\u002A\u002A*%
X111625000Y-110000000D03*
%TD*%
%TO.C,REF\u002A\u002A*%
X110375000Y-110000000D03*
%TD*%
%TO.C,REF\u002A\u002A*%
X163625000Y-110000000D03*
%TD*%
%TO.C,REF\u002A\u002A*%
X162375000Y-110000000D03*
%TD*%
%TO.C,REF\u002A\u002A*%
X175625000Y-110000000D03*
%TD*%
%TO.C,REF\u002A\u002A*%
X174375000Y-110000000D03*
%TD*%
%TO.C,REF\u002A\u002A*%
X171625000Y-110000000D03*
%TD*%
%TO.C,REF\u002A\u002A*%
X170375000Y-110000000D03*
%TD*%
%TO.C,REF\u002A\u002A*%
X167625000Y-110000000D03*
%TD*%
%TO.C,REF\u002A\u002A*%
X166375000Y-110000000D03*
%TD*%
%TO.C,REF\u002A\u002A*%
X178375000Y-110000000D03*
%TD*%
%TO.C,REF\u002A\u002A*%
X179625000Y-110000000D03*
%TD*%
%TO.C,REF\u002A\u002A*%
X183625000Y-110000000D03*
%TD*%
%TO.C,REF\u002A\u002A*%
X182375000Y-110000000D03*
%TD*%
%TO.C,REF\u002A\u002A*%
X195625000Y-110000000D03*
%TD*%
%TO.C,REF\u002A\u002A*%
X194375000Y-110000000D03*
%TD*%
%TO.C,REF\u002A\u002A*%
X187625000Y-110000000D03*
%TD*%
%TO.C,REF\u002A\u002A*%
X186375000Y-110000000D03*
%TD*%
%TO.C,REF\u002A\u002A*%
X198375000Y-110000000D03*
%TD*%
%TO.C,REF\u002A\u002A*%
X199625000Y-110000000D03*
%TD*%
%TO.C,REF\u002A\u002A*%
X183625000Y-130000000D03*
%TD*%
%TO.C,REF\u002A\u002A*%
X182375000Y-130000000D03*
%TD*%
%TO.C,REF\u002A\u002A*%
X195625000Y-130000000D03*
%TD*%
%TO.C,REF\u002A\u002A*%
X194375000Y-130000000D03*
%TD*%
%TO.C,REF\u002A\u002A*%
X163625000Y-130000000D03*
%TD*%
%TO.C,REF\u002A\u002A*%
X162375000Y-130000000D03*
%TD*%
%TO.C,REF\u002A\u002A*%
X175625000Y-130000000D03*
%TD*%
%TO.C,REF\u002A\u002A*%
X174375000Y-130000000D03*
%TD*%
%TO.C,REF\u002A\u002A*%
X143625000Y-130000000D03*
%TD*%
%TO.C,REF\u002A\u002A*%
X142375000Y-130000000D03*
%TD*%
%TO.C,REF\u002A\u002A*%
X139625000Y-130000000D03*
%TD*%
%TO.C,REF\u002A\u002A*%
X138375000Y-130000000D03*
%TD*%
%TO.C,REF\u002A\u002A*%
X118375000Y-130000000D03*
%TD*%
%TO.C,REF\u002A\u002A*%
X119625000Y-130000000D03*
%TD*%
%TO.C,REF\u002A\u002A*%
X115625000Y-130000000D03*
%TD*%
%TO.C,REF\u002A\u002A*%
X114375000Y-130000000D03*
%TD*%
%TO.C,REF\u002A\u002A*%
X131625000Y-130000000D03*
%TD*%
%TO.C,REF\u002A\u002A*%
X130375000Y-130000000D03*
%TD*%
%TO.C,REF\u002A\u002A*%
X106375000Y-130000000D03*
%TD*%
%TO.C,REF\u002A\u002A*%
X107625000Y-130000000D03*
%TD*%
%TO.C,REF\u002A\u002A*%
X103625000Y-130000000D03*
%TD*%
%TO.C,REF\u002A\u002A*%
X102375000Y-130000000D03*
%TD*%
%TO.C,REF\u002A\u002A*%
X155625000Y-130000000D03*
%TD*%
%TO.C,REF\u002A\u002A*%
X154375000Y-130000000D03*
%TD*%
%TO.C,REF\u002A\u002A*%
X190375000Y-130000000D03*
%TD*%
%TO.C,REF\u002A\u002A*%
X191625000Y-130000000D03*
%TD*%
%TO.C,REF\u002A\u002A*%
X199625000Y-130000000D03*
%TD*%
%TO.C,REF\u002A\u002A*%
X198375000Y-130000000D03*
%TD*%
%TO.C,REF\u002A\u002A*%
X187625000Y-130000000D03*
%TD*%
%TO.C,REF\u002A\u002A*%
X186375000Y-130000000D03*
%TD*%
%TO.C,REF\u002A\u002A*%
X151625000Y-130000000D03*
%TD*%
%TO.C,REF\u002A\u002A*%
X150375000Y-130000000D03*
%TD*%
%TO.C,REF\u002A\u002A*%
X147625000Y-130000000D03*
%TD*%
%TO.C,REF\u002A\u002A*%
X146375000Y-130000000D03*
%TD*%
%TO.C,REF\u002A\u002A*%
X111700000Y-130000000D03*
%TD*%
%TO.C,REF\u002A\u002A*%
X110300000Y-130000000D03*
%TD*%
%TO.C,REF\u002A\u002A*%
X170375000Y-130000000D03*
%TD*%
%TO.C,REF\u002A\u002A*%
X171625000Y-130000000D03*
%TD*%
%TO.C,REF\u002A\u002A*%
X179625000Y-130000000D03*
%TD*%
%TO.C,REF\u002A\u002A*%
X178375000Y-130000000D03*
%TD*%
%TO.C,REF\u002A\u002A*%
X167625000Y-130000000D03*
%TD*%
%TO.C,REF\u002A\u002A*%
X166375000Y-130000000D03*
%TD*%
%TO.C,REF\u002A\u002A*%
X126375000Y-130000000D03*
%TD*%
%TO.C,REF\u002A\u002A*%
X127625000Y-130000000D03*
%TD*%
%TO.C,REF\u002A\u002A*%
X123625000Y-130000000D03*
%TD*%
%TO.C,REF\u002A\u002A*%
X122375000Y-130000000D03*
%TD*%
%TO.C,REF\u002A\u002A*%
X135625000Y-130000000D03*
%TD*%
%TO.C,REF\u002A\u002A*%
X134375000Y-130000000D03*
%TD*%
%TO.C,REF\u002A\u002A*%
X158375000Y-130000000D03*
%TD*%
%TO.C,REF\u002A\u002A*%
X159625000Y-130000000D03*
%TD*%
%TO.C,REF\u002A\u002A*%
X183625000Y-150025000D03*
%TD*%
%TO.C,REF\u002A\u002A*%
X182375000Y-150025000D03*
%TD*%
%TO.C,REF\u002A\u002A*%
X195625000Y-150025000D03*
%TD*%
%TO.C,REF\u002A\u002A*%
X194375000Y-150025000D03*
%TD*%
%TO.C,REF\u002A\u002A*%
X163625000Y-150025000D03*
%TD*%
%TO.C,REF\u002A\u002A*%
X162375000Y-150025000D03*
%TD*%
%TO.C,REF\u002A\u002A*%
X175625000Y-150025000D03*
%TD*%
%TO.C,REF\u002A\u002A*%
X174375000Y-150025000D03*
%TD*%
%TO.C,REF\u002A\u002A*%
X143625000Y-150025000D03*
%TD*%
%TO.C,REF\u002A\u002A*%
X142375000Y-150025000D03*
%TD*%
%TO.C,REF\u002A\u002A*%
X139625000Y-150025000D03*
%TD*%
%TO.C,REF\u002A\u002A*%
X138375000Y-150025000D03*
%TD*%
%TO.C,REF\u002A\u002A*%
X118375000Y-150025000D03*
%TD*%
%TO.C,REF\u002A\u002A*%
X119625000Y-150025000D03*
%TD*%
%TO.C,REF\u002A\u002A*%
X115625000Y-150025000D03*
%TD*%
%TO.C,REF\u002A\u002A*%
X114375000Y-150025000D03*
%TD*%
%TO.C,REF\u002A\u002A*%
X131625000Y-150025000D03*
%TD*%
%TO.C,REF\u002A\u002A*%
X130375000Y-150025000D03*
%TD*%
%TO.C,REF\u002A\u002A*%
X106375000Y-150025000D03*
%TD*%
%TO.C,REF\u002A\u002A*%
X107625000Y-150025000D03*
%TD*%
%TO.C,REF\u002A\u002A*%
X103625000Y-150025000D03*
%TD*%
%TO.C,REF\u002A\u002A*%
X102375000Y-150025000D03*
%TD*%
%TO.C,REF\u002A\u002A*%
X155625000Y-150025000D03*
%TD*%
%TO.C,REF\u002A\u002A*%
X154375000Y-150025000D03*
%TD*%
%TO.C,REF\u002A\u002A*%
X190375000Y-150025000D03*
%TD*%
%TO.C,REF\u002A\u002A*%
X191625000Y-150025000D03*
%TD*%
%TO.C,REF\u002A\u002A*%
X199625000Y-150025000D03*
%TD*%
%TO.C,REF\u002A\u002A*%
X198375000Y-150025000D03*
%TD*%
%TO.C,REF\u002A\u002A*%
X187625000Y-150025000D03*
%TD*%
%TO.C,REF\u002A\u002A*%
X186375000Y-150025000D03*
%TD*%
%TO.C,REF\u002A\u002A*%
X151625000Y-150025000D03*
%TD*%
%TO.C,REF\u002A\u002A*%
X150375000Y-150025000D03*
%TD*%
%TO.C,REF\u002A\u002A*%
X147625000Y-150025000D03*
%TD*%
%TO.C,REF\u002A\u002A*%
X146375000Y-150025000D03*
%TD*%
%TO.C,REF\u002A\u002A*%
X111625000Y-150025000D03*
%TD*%
%TO.C,REF\u002A\u002A*%
X110375000Y-150025000D03*
%TD*%
%TO.C,REF\u002A\u002A*%
X170375000Y-150025000D03*
%TD*%
%TO.C,REF\u002A\u002A*%
X171625000Y-150025000D03*
%TD*%
%TO.C,REF\u002A\u002A*%
X179625000Y-150025000D03*
%TD*%
%TO.C,REF\u002A\u002A*%
X178375000Y-150025000D03*
%TD*%
%TO.C,REF\u002A\u002A*%
X167625000Y-150025000D03*
%TD*%
%TO.C,REF\u002A\u002A*%
X166375000Y-150025000D03*
%TD*%
%TO.C,REF\u002A\u002A*%
X126375000Y-150025000D03*
%TD*%
%TO.C,REF\u002A\u002A*%
X127625000Y-150025000D03*
%TD*%
%TO.C,REF\u002A\u002A*%
X123625000Y-150025000D03*
%TD*%
%TO.C,REF\u002A\u002A*%
X122375000Y-150025000D03*
%TD*%
%TO.C,REF\u002A\u002A*%
X135625000Y-150025000D03*
%TD*%
%TO.C,REF\u002A\u002A*%
X134375000Y-150025000D03*
%TD*%
%TO.C,REF\u002A\u002A*%
X158375000Y-150025000D03*
%TD*%
%TO.C,REF\u002A\u002A*%
X159625000Y-150025000D03*
%TD*%
%TO.C,REF\u002A\u002A*%
X101000000Y-67375000D03*
%TD*%
%TO.C,REF\u002A\u002A*%
X101000000Y-68625001D03*
%TD*%
%TO.C,REF\u002A\u002A*%
X101000000Y-55375000D03*
%TD*%
%TO.C,REF\u002A\u002A*%
X101000000Y-56625000D03*
%TD*%
%TO.C,REF\u002A\u002A*%
X101000000Y-87375000D03*
%TD*%
%TO.C,REF\u002A\u002A*%
X101000000Y-88625000D03*
%TD*%
%TO.C,REF\u002A\u002A*%
X101000000Y-75375000D03*
%TD*%
%TO.C,REF\u002A\u002A*%
X101000000Y-76625000D03*
%TD*%
%TO.C,REF\u002A\u002A*%
X101000000Y-107375000D03*
%TD*%
%TO.C,REF\u002A\u002A*%
X101000000Y-108625000D03*
%TD*%
%TO.C,REF\u002A\u002A*%
X101000000Y-111374999D03*
%TD*%
%TO.C,REF\u002A\u002A*%
X101000000Y-112625000D03*
%TD*%
%TO.C,REF\u002A\u002A*%
X101000000Y-132625001D03*
%TD*%
%TO.C,REF\u002A\u002A*%
X101000000Y-131375000D03*
%TD*%
%TO.C,REF\u002A\u002A*%
X101000000Y-135375000D03*
%TD*%
%TO.C,REF\u002A\u002A*%
X101000000Y-136625001D03*
%TD*%
%TO.C,REF\u002A\u002A*%
X101000000Y-119375000D03*
%TD*%
%TO.C,REF\u002A\u002A*%
X101000000Y-120625000D03*
%TD*%
%TO.C,REF\u002A\u002A*%
X101000000Y-144625000D03*
%TD*%
%TO.C,REF\u002A\u002A*%
X101000000Y-143374999D03*
%TD*%
%TO.C,REF\u002A\u002A*%
X101000000Y-147375001D03*
%TD*%
%TO.C,REF\u002A\u002A*%
X101000000Y-148625000D03*
%TD*%
%TO.C,REF\u002A\u002A*%
X101000000Y-95375000D03*
%TD*%
%TO.C,REF\u002A\u002A*%
X101000000Y-96624999D03*
%TD*%
%TO.C,REF\u002A\u002A*%
X101000000Y-60625000D03*
%TD*%
%TO.C,REF\u002A\u002A*%
X101000000Y-59375000D03*
%TD*%
%TO.C,REF\u002A\u002A*%
X101000000Y-51375001D03*
%TD*%
%TO.C,REF\u002A\u002A*%
X101000000Y-52625000D03*
%TD*%
%TO.C,REF\u002A\u002A*%
X101000000Y-63375000D03*
%TD*%
%TO.C,REF\u002A\u002A*%
X101000000Y-64624999D03*
%TD*%
%TO.C,REF\u002A\u002A*%
X101000000Y-99375000D03*
%TD*%
%TO.C,REF\u002A\u002A*%
X101000000Y-100625001D03*
%TD*%
%TO.C,REF\u002A\u002A*%
X101000000Y-103375000D03*
%TD*%
%TO.C,REF\u002A\u002A*%
X101000000Y-104625001D03*
%TD*%
%TO.C,REF\u002A\u002A*%
X101000000Y-139375000D03*
%TD*%
%TO.C,REF\u002A\u002A*%
X101000000Y-140625000D03*
%TD*%
%TO.C,REF\u002A\u002A*%
X101000000Y-80625000D03*
%TD*%
%TO.C,REF\u002A\u002A*%
X101000000Y-79374999D03*
%TD*%
%TO.C,REF\u002A\u002A*%
X101000000Y-71375000D03*
%TD*%
%TO.C,REF\u002A\u002A*%
X101000000Y-72625001D03*
%TD*%
%TO.C,REF\u002A\u002A*%
X101000000Y-83375001D03*
%TD*%
%TO.C,REF\u002A\u002A*%
X101000000Y-84625000D03*
%TD*%
%TO.C,REF\u002A\u002A*%
X101000000Y-124625000D03*
%TD*%
%TO.C,REF\u002A\u002A*%
X101000000Y-123375000D03*
%TD*%
%TO.C,REF\u002A\u002A*%
X101000000Y-127375000D03*
%TD*%
%TO.C,REF\u002A\u002A*%
X101000000Y-128624999D03*
%TD*%
%TO.C,REF\u002A\u002A*%
X101000000Y-115375001D03*
%TD*%
%TO.C,REF\u002A\u002A*%
X101000000Y-116625000D03*
%TD*%
%TO.C,REF\u002A\u002A*%
X101000000Y-92625000D03*
%TD*%
%TO.C,REF\u002A\u002A*%
X101000000Y-91375000D03*
%TD*%
%TO.C,REF\u002A\u002A*%
X183625000Y-50025000D03*
%TD*%
%TO.C,REF\u002A\u002A*%
X182375000Y-50025000D03*
%TD*%
%TO.C,REF\u002A\u002A*%
X195625000Y-50025000D03*
%TD*%
%TO.C,REF\u002A\u002A*%
X194375000Y-50025000D03*
%TD*%
%TO.C,REF\u002A\u002A*%
X163625000Y-50025000D03*
%TD*%
%TO.C,REF\u002A\u002A*%
X162375000Y-50025000D03*
%TD*%
%TO.C,REF\u002A\u002A*%
X175625000Y-50025000D03*
%TD*%
%TO.C,REF\u002A\u002A*%
X174375000Y-50025000D03*
%TD*%
%TO.C,REF\u002A\u002A*%
X143625000Y-50025000D03*
%TD*%
%TO.C,REF\u002A\u002A*%
X142375000Y-50025000D03*
%TD*%
%TO.C,REF\u002A\u002A*%
X139625000Y-50025000D03*
%TD*%
%TO.C,REF\u002A\u002A*%
X138375000Y-50025000D03*
%TD*%
%TO.C,REF\u002A\u002A*%
X118375000Y-50025000D03*
%TD*%
%TO.C,REF\u002A\u002A*%
X119625000Y-50025000D03*
%TD*%
%TO.C,REF\u002A\u002A*%
X115625000Y-50025000D03*
%TD*%
%TO.C,REF\u002A\u002A*%
X114375000Y-50025000D03*
%TD*%
%TO.C,REF\u002A\u002A*%
X131625000Y-50025000D03*
%TD*%
%TO.C,REF\u002A\u002A*%
X130375000Y-50025000D03*
%TD*%
%TO.C,REF\u002A\u002A*%
X106375000Y-50025000D03*
%TD*%
%TO.C,REF\u002A\u002A*%
X107625000Y-50025000D03*
%TD*%
%TO.C,REF\u002A\u002A*%
X103625000Y-50025000D03*
%TD*%
%TO.C,REF\u002A\u002A*%
X102375000Y-50025000D03*
%TD*%
%TO.C,REF\u002A\u002A*%
X155625000Y-50025000D03*
%TD*%
%TO.C,REF\u002A\u002A*%
X154375000Y-50025000D03*
%TD*%
%TO.C,REF\u002A\u002A*%
X190375000Y-50025000D03*
%TD*%
%TO.C,REF\u002A\u002A*%
X191625000Y-50025000D03*
%TD*%
%TO.C,REF\u002A\u002A*%
X199625000Y-50025000D03*
%TD*%
%TO.C,REF\u002A\u002A*%
X198375000Y-50025000D03*
%TD*%
%TO.C,REF\u002A\u002A*%
X187625000Y-50025000D03*
%TD*%
%TO.C,REF\u002A\u002A*%
X186375000Y-50025000D03*
%TD*%
%TO.C,REF\u002A\u002A*%
X151625000Y-50025000D03*
%TD*%
%TO.C,REF\u002A\u002A*%
X150375000Y-50025000D03*
%TD*%
%TO.C,REF\u002A\u002A*%
X147625000Y-50025000D03*
%TD*%
%TO.C,REF\u002A\u002A*%
X146375000Y-50025000D03*
%TD*%
%TO.C,REF\u002A\u002A*%
X111625000Y-50025000D03*
%TD*%
%TO.C,REF\u002A\u002A*%
X110375000Y-50025000D03*
%TD*%
%TO.C,REF\u002A\u002A*%
X170375000Y-50025000D03*
%TD*%
%TO.C,REF\u002A\u002A*%
X171625000Y-50025000D03*
%TD*%
%TO.C,REF\u002A\u002A*%
X179625000Y-50025000D03*
%TD*%
%TO.C,REF\u002A\u002A*%
X178375000Y-50025000D03*
%TD*%
%TO.C,REF\u002A\u002A*%
X167625000Y-50025000D03*
%TD*%
%TO.C,REF\u002A\u002A*%
X166375000Y-50025000D03*
%TD*%
%TO.C,REF\u002A\u002A*%
X126375000Y-50025000D03*
%TD*%
%TO.C,REF\u002A\u002A*%
X127625000Y-50025000D03*
%TD*%
%TO.C,REF\u002A\u002A*%
X123625000Y-50025000D03*
%TD*%
%TO.C,REF\u002A\u002A*%
X122375000Y-50025000D03*
%TD*%
%TO.C,REF\u002A\u002A*%
X135625000Y-50025000D03*
%TD*%
%TO.C,REF\u002A\u002A*%
X134375000Y-50025000D03*
%TD*%
%TO.C,REF\u002A\u002A*%
X158375000Y-50025000D03*
%TD*%
%TO.C,REF\u002A\u002A*%
X159625000Y-50025000D03*
%TD*%
%TO.C,REF\u002A\u002A*%
X183625000Y-90000000D03*
%TD*%
%TO.C,REF\u002A\u002A*%
X182375000Y-90000000D03*
%TD*%
%TO.C,REF\u002A\u002A*%
X195625000Y-90000000D03*
%TD*%
%TO.C,REF\u002A\u002A*%
X194375000Y-90000000D03*
%TD*%
%TO.C,REF\u002A\u002A*%
X163625000Y-90000000D03*
%TD*%
%TO.C,REF\u002A\u002A*%
X162375000Y-90000000D03*
%TD*%
%TO.C,REF\u002A\u002A*%
X175625000Y-90000000D03*
%TD*%
%TO.C,REF\u002A\u002A*%
X174375000Y-90000000D03*
%TD*%
%TO.C,REF\u002A\u002A*%
X143625000Y-90000000D03*
%TD*%
%TO.C,REF\u002A\u002A*%
X142375000Y-90000000D03*
%TD*%
%TO.C,REF\u002A\u002A*%
X139625000Y-90000000D03*
%TD*%
%TO.C,REF\u002A\u002A*%
X138375000Y-90000000D03*
%TD*%
%TO.C,REF\u002A\u002A*%
X118375000Y-90000000D03*
%TD*%
%TO.C,REF\u002A\u002A*%
X119625000Y-90000000D03*
%TD*%
%TO.C,REF\u002A\u002A*%
X115625000Y-90000000D03*
%TD*%
%TO.C,REF\u002A\u002A*%
X114375000Y-90000000D03*
%TD*%
%TO.C,REF\u002A\u002A*%
X131625000Y-90000000D03*
%TD*%
%TO.C,REF\u002A\u002A*%
X130375000Y-90000000D03*
%TD*%
%TO.C,REF\u002A\u002A*%
X106375000Y-90000000D03*
%TD*%
%TO.C,REF\u002A\u002A*%
X107625000Y-90000000D03*
%TD*%
%TO.C,REF\u002A\u002A*%
X103625000Y-90000000D03*
%TD*%
%TO.C,REF\u002A\u002A*%
X102375000Y-90000000D03*
%TD*%
%TO.C,REF\u002A\u002A*%
X155625000Y-90000000D03*
%TD*%
%TO.C,REF\u002A\u002A*%
X154375000Y-90000000D03*
%TD*%
%TO.C,REF\u002A\u002A*%
X190375000Y-90000000D03*
%TD*%
%TO.C,REF\u002A\u002A*%
X191625000Y-90000000D03*
%TD*%
%TO.C,REF\u002A\u002A*%
X199625000Y-90000000D03*
%TD*%
%TO.C,REF\u002A\u002A*%
X198375000Y-90000000D03*
%TD*%
%TO.C,REF\u002A\u002A*%
X187625000Y-90000000D03*
%TD*%
%TO.C,REF\u002A\u002A*%
X186375000Y-90000000D03*
%TD*%
%TO.C,REF\u002A\u002A*%
X151625000Y-90000000D03*
%TD*%
%TO.C,REF\u002A\u002A*%
X150375000Y-90000000D03*
%TD*%
%TO.C,REF\u002A\u002A*%
X147625000Y-90000000D03*
%TD*%
%TO.C,REF\u002A\u002A*%
X146375000Y-90000000D03*
%TD*%
%TO.C,REF\u002A\u002A*%
X111700000Y-90000000D03*
%TD*%
%TO.C,REF\u002A\u002A*%
X110300000Y-90000000D03*
%TD*%
%TO.C,REF\u002A\u002A*%
X170375000Y-90000000D03*
%TD*%
%TO.C,REF\u002A\u002A*%
X171625000Y-90000000D03*
%TD*%
%TO.C,REF\u002A\u002A*%
X179625000Y-90000000D03*
%TD*%
%TO.C,REF\u002A\u002A*%
X178375000Y-90000000D03*
%TD*%
%TO.C,REF\u002A\u002A*%
X167625000Y-90000000D03*
%TD*%
%TO.C,REF\u002A\u002A*%
X166375000Y-90000000D03*
%TD*%
%TO.C,REF\u002A\u002A*%
X126375000Y-90000000D03*
%TD*%
%TO.C,REF\u002A\u002A*%
X127625000Y-90000000D03*
%TD*%
%TO.C,REF\u002A\u002A*%
X123625000Y-90000000D03*
%TD*%
%TO.C,REF\u002A\u002A*%
X122375000Y-90000000D03*
%TD*%
%TO.C,REF\u002A\u002A*%
X135625000Y-90000000D03*
%TD*%
%TO.C,REF\u002A\u002A*%
X134375000Y-90000000D03*
%TD*%
%TO.C,REF\u002A\u002A*%
X158375000Y-90000000D03*
%TD*%
%TO.C,REF\u002A\u002A*%
X159625000Y-90000000D03*
%TD*%
%TO.C,REF\u002A\u002A*%
X183625000Y-70000000D03*
%TD*%
%TO.C,REF\u002A\u002A*%
X182375000Y-70000000D03*
%TD*%
%TO.C,REF\u002A\u002A*%
X195625000Y-70000000D03*
%TD*%
%TO.C,REF\u002A\u002A*%
X194375000Y-70000000D03*
%TD*%
%TO.C,REF\u002A\u002A*%
X163625000Y-70000000D03*
%TD*%
%TO.C,REF\u002A\u002A*%
X162375000Y-70000000D03*
%TD*%
%TO.C,REF\u002A\u002A*%
X175625000Y-70000000D03*
%TD*%
%TO.C,REF\u002A\u002A*%
X174375000Y-70000000D03*
%TD*%
%TO.C,REF\u002A\u002A*%
X143625000Y-70000000D03*
%TD*%
%TO.C,REF\u002A\u002A*%
X142375000Y-70000000D03*
%TD*%
%TO.C,REF\u002A\u002A*%
X139625000Y-70000000D03*
%TD*%
%TO.C,REF\u002A\u002A*%
X138375000Y-70000000D03*
%TD*%
%TO.C,REF\u002A\u002A*%
X118375000Y-70000000D03*
%TD*%
%TO.C,REF\u002A\u002A*%
X119625000Y-70000000D03*
%TD*%
%TO.C,REF\u002A\u002A*%
X115625000Y-70000000D03*
%TD*%
%TO.C,REF\u002A\u002A*%
X114375000Y-70000000D03*
%TD*%
%TO.C,REF\u002A\u002A*%
X131625000Y-70000000D03*
%TD*%
%TO.C,REF\u002A\u002A*%
X130375000Y-70000000D03*
%TD*%
%TO.C,REF\u002A\u002A*%
X106375000Y-70000000D03*
%TD*%
%TO.C,REF\u002A\u002A*%
X107625000Y-70000000D03*
%TD*%
%TO.C,REF\u002A\u002A*%
X103625000Y-70000000D03*
%TD*%
%TO.C,REF\u002A\u002A*%
X102375000Y-70000000D03*
%TD*%
%TO.C,REF\u002A\u002A*%
X155625000Y-70000000D03*
%TD*%
%TO.C,REF\u002A\u002A*%
X154375000Y-70000000D03*
%TD*%
%TO.C,REF\u002A\u002A*%
X190300000Y-70000000D03*
%TD*%
%TO.C,REF\u002A\u002A*%
X191700000Y-70000000D03*
%TD*%
%TO.C,REF\u002A\u002A*%
X199625000Y-70000000D03*
%TD*%
%TO.C,REF\u002A\u002A*%
X198375000Y-70000000D03*
%TD*%
%TO.C,REF\u002A\u002A*%
X187625000Y-70000000D03*
%TD*%
%TO.C,REF\u002A\u002A*%
X186375000Y-70000000D03*
%TD*%
%TO.C,REF\u002A\u002A*%
X151625000Y-70000000D03*
%TD*%
%TO.C,REF\u002A\u002A*%
X150375000Y-70000000D03*
%TD*%
%TO.C,REF\u002A\u002A*%
X147625000Y-70000000D03*
%TD*%
%TO.C,REF\u002A\u002A*%
X146375000Y-70000000D03*
%TD*%
%TO.C,REF\u002A\u002A*%
X111625000Y-70000000D03*
%TD*%
%TO.C,REF\u002A\u002A*%
X110375000Y-70000000D03*
%TD*%
%TO.C,REF\u002A\u002A*%
X170375000Y-70000000D03*
%TD*%
%TO.C,REF\u002A\u002A*%
X171625000Y-70000000D03*
%TD*%
%TO.C,REF\u002A\u002A*%
X179625000Y-70000000D03*
%TD*%
%TO.C,REF\u002A\u002A*%
X178375000Y-70000000D03*
%TD*%
%TO.C,REF\u002A\u002A*%
X167625000Y-70000000D03*
%TD*%
%TO.C,REF\u002A\u002A*%
X166375000Y-70000000D03*
%TD*%
%TO.C,REF\u002A\u002A*%
X126375000Y-70000000D03*
%TD*%
%TO.C,REF\u002A\u002A*%
X127625000Y-70000000D03*
%TD*%
%TO.C,REF\u002A\u002A*%
X123625000Y-70000000D03*
%TD*%
%TO.C,REF\u002A\u002A*%
X122375000Y-70000000D03*
%TD*%
%TO.C,REF\u002A\u002A*%
X135625000Y-70000000D03*
%TD*%
%TO.C,REF\u002A\u002A*%
X134375000Y-70000000D03*
%TD*%
%TO.C,REF\u002A\u002A*%
X158375000Y-70000000D03*
%TD*%
%TO.C,REF\u002A\u002A*%
X159625000Y-70000000D03*
%TD*%
%TO.C,REF\u002A\u002A*%
X201000000Y-67375000D03*
%TD*%
%TO.C,REF\u002A\u002A*%
X201000000Y-68625001D03*
%TD*%
%TO.C,REF\u002A\u002A*%
X201000000Y-55375000D03*
%TD*%
%TO.C,REF\u002A\u002A*%
X201000000Y-56625000D03*
%TD*%
%TO.C,REF\u002A\u002A*%
X201000000Y-87375000D03*
%TD*%
%TO.C,REF\u002A\u002A*%
X201000000Y-88625000D03*
%TD*%
%TO.C,REF\u002A\u002A*%
X201000000Y-75375000D03*
%TD*%
%TO.C,REF\u002A\u002A*%
X201000000Y-76625000D03*
%TD*%
%TO.C,REF\u002A\u002A*%
X201000000Y-107375000D03*
%TD*%
%TO.C,REF\u002A\u002A*%
X201000000Y-108625000D03*
%TD*%
%TO.C,REF\u002A\u002A*%
X201000000Y-111374999D03*
%TD*%
%TO.C,REF\u002A\u002A*%
X201000000Y-112625000D03*
%TD*%
%TO.C,REF\u002A\u002A*%
X201000000Y-132625001D03*
%TD*%
%TO.C,REF\u002A\u002A*%
X201000000Y-131375000D03*
%TD*%
%TO.C,REF\u002A\u002A*%
X201000000Y-135375000D03*
%TD*%
%TO.C,REF\u002A\u002A*%
X201000000Y-136625001D03*
%TD*%
%TO.C,REF\u002A\u002A*%
X201000000Y-119375000D03*
%TD*%
%TO.C,REF\u002A\u002A*%
X201000000Y-120625000D03*
%TD*%
%TO.C,REF\u002A\u002A*%
X201000000Y-144625000D03*
%TD*%
%TO.C,REF\u002A\u002A*%
X201000000Y-143374999D03*
%TD*%
%TO.C,REF\u002A\u002A*%
X201000000Y-147375001D03*
%TD*%
%TO.C,REF\u002A\u002A*%
X201000000Y-148625000D03*
%TD*%
%TO.C,REF\u002A\u002A*%
X201000000Y-95375000D03*
%TD*%
%TO.C,REF\u002A\u002A*%
X201000000Y-96624999D03*
%TD*%
%TO.C,REF\u002A\u002A*%
X201000000Y-60625000D03*
%TD*%
%TO.C,REF\u002A\u002A*%
X201000000Y-59375000D03*
%TD*%
%TO.C,REF\u002A\u002A*%
X201000000Y-51375001D03*
%TD*%
%TO.C,REF\u002A\u002A*%
X201000000Y-52625000D03*
%TD*%
%TO.C,REF\u002A\u002A*%
X201000000Y-63375000D03*
%TD*%
%TO.C,REF\u002A\u002A*%
X201000000Y-64624999D03*
%TD*%
%TO.C,REF\u002A\u002A*%
X201000000Y-99375000D03*
%TD*%
%TO.C,REF\u002A\u002A*%
X201000000Y-100625001D03*
%TD*%
%TO.C,REF\u002A\u002A*%
X201000000Y-103375000D03*
%TD*%
%TO.C,REF\u002A\u002A*%
X201000000Y-104625001D03*
%TD*%
%TO.C,REF\u002A\u002A*%
X201000000Y-139375000D03*
%TD*%
%TO.C,REF\u002A\u002A*%
X201000000Y-140625000D03*
%TD*%
%TO.C,REF\u002A\u002A*%
X201000000Y-80625000D03*
%TD*%
%TO.C,REF\u002A\u002A*%
X201000000Y-79374999D03*
%TD*%
%TO.C,REF\u002A\u002A*%
X201000000Y-71375000D03*
%TD*%
%TO.C,REF\u002A\u002A*%
X201000000Y-72625001D03*
%TD*%
%TO.C,REF\u002A\u002A*%
X201000000Y-83375001D03*
%TD*%
%TO.C,REF\u002A\u002A*%
X201000000Y-84625000D03*
%TD*%
%TO.C,REF\u002A\u002A*%
X201000000Y-124625000D03*
%TD*%
%TO.C,REF\u002A\u002A*%
X201000000Y-123375000D03*
%TD*%
%TO.C,REF\u002A\u002A*%
X201000000Y-127375000D03*
%TD*%
%TO.C,REF\u002A\u002A*%
X201000000Y-128624999D03*
%TD*%
%TO.C,REF\u002A\u002A*%
X201000000Y-115375001D03*
%TD*%
%TO.C,REF\u002A\u002A*%
X201000000Y-116625000D03*
%TD*%
%TO.C,REF\u002A\u002A*%
X201000000Y-92625000D03*
%TD*%
%TO.C,REF\u002A\u002A*%
X201000000Y-91375000D03*
%TD*%
%TO.C,REF\u002A\u002A*%
X121000000Y-67375000D03*
%TD*%
%TO.C,REF\u002A\u002A*%
X121000000Y-68625000D03*
%TD*%
%TO.C,REF\u002A\u002A*%
X121000000Y-63375000D03*
%TD*%
%TO.C,REF\u002A\u002A*%
X121000000Y-64625001D03*
%TD*%
%TO.C,REF\u002A\u002A*%
X121000000Y-56625000D03*
%TD*%
%TO.C,REF\u002A\u002A*%
X121000000Y-55375000D03*
%TD*%
%TO.C,REF\u002A\u002A*%
X121000000Y-51375000D03*
%TD*%
%TO.C,REF\u002A\u002A*%
X121000000Y-52625001D03*
%TD*%
%TO.C,REF\u002A\u002A*%
X141000000Y-55375000D03*
%TD*%
%TO.C,REF\u002A\u002A*%
X141000000Y-56625000D03*
%TD*%
%TO.C,REF\u002A\u002A*%
X141000000Y-68625000D03*
%TD*%
%TO.C,REF\u002A\u002A*%
X141000000Y-67375000D03*
%TD*%
%TO.C,REF\u002A\u002A*%
X141000000Y-63375000D03*
%TD*%
%TO.C,REF\u002A\u002A*%
X141000000Y-64625001D03*
%TD*%
%TO.C,REF\u002A\u002A*%
X141000000Y-52625001D03*
%TD*%
%TO.C,REF\u002A\u002A*%
X141000000Y-51375000D03*
%TD*%
%TO.C,REF\u002A\u002A*%
X161000000Y-55375000D03*
%TD*%
%TO.C,REF\u002A\u002A*%
X161000000Y-56625000D03*
%TD*%
%TO.C,REF\u002A\u002A*%
X161000000Y-68625000D03*
%TD*%
%TO.C,REF\u002A\u002A*%
X161000000Y-67375000D03*
%TD*%
%TO.C,REF\u002A\u002A*%
X161000000Y-63375000D03*
%TD*%
%TO.C,REF\u002A\u002A*%
X161000000Y-64625001D03*
%TD*%
%TO.C,REF\u002A\u002A*%
X161000000Y-52625001D03*
%TD*%
%TO.C,REF\u002A\u002A*%
X161000000Y-51375000D03*
%TD*%
%TO.C,REF\u002A\u002A*%
X181000000Y-55375000D03*
%TD*%
%TO.C,REF\u002A\u002A*%
X181000000Y-56625000D03*
%TD*%
%TO.C,REF\u002A\u002A*%
X181000000Y-68625000D03*
%TD*%
%TO.C,REF\u002A\u002A*%
X181000000Y-67375000D03*
%TD*%
%TO.C,REF\u002A\u002A*%
X181000000Y-63375000D03*
%TD*%
%TO.C,REF\u002A\u002A*%
X181000000Y-64625001D03*
%TD*%
%TO.C,REF\u002A\u002A*%
X181000000Y-52625001D03*
%TD*%
%TO.C,REF\u002A\u002A*%
X181000000Y-51375000D03*
%TD*%
%TO.C,REF\u002A\u002A*%
X181000000Y-75375000D03*
%TD*%
%TO.C,REF\u002A\u002A*%
X181000000Y-76625000D03*
%TD*%
%TO.C,REF\u002A\u002A*%
X181000000Y-88625000D03*
%TD*%
%TO.C,REF\u002A\u002A*%
X181000000Y-87375000D03*
%TD*%
%TO.C,REF\u002A\u002A*%
X181000000Y-83375000D03*
%TD*%
%TO.C,REF\u002A\u002A*%
X181000000Y-84625001D03*
%TD*%
%TO.C,REF\u002A\u002A*%
X181000000Y-72625001D03*
%TD*%
%TO.C,REF\u002A\u002A*%
X181000000Y-71375000D03*
%TD*%
%TO.C,REF\u002A\u002A*%
X161000000Y-75375000D03*
%TD*%
%TO.C,REF\u002A\u002A*%
X161000000Y-76625000D03*
%TD*%
%TO.C,REF\u002A\u002A*%
X161000000Y-88625000D03*
%TD*%
%TO.C,REF\u002A\u002A*%
X161000000Y-87375000D03*
%TD*%
%TO.C,REF\u002A\u002A*%
X161000000Y-83375000D03*
%TD*%
%TO.C,REF\u002A\u002A*%
X161000000Y-84625001D03*
%TD*%
%TO.C,REF\u002A\u002A*%
X161000000Y-72625001D03*
%TD*%
%TO.C,REF\u002A\u002A*%
X161000000Y-71375000D03*
%TD*%
%TO.C,REF\u002A\u002A*%
X141000000Y-75375000D03*
%TD*%
%TO.C,REF\u002A\u002A*%
X141000000Y-76625000D03*
%TD*%
%TO.C,REF\u002A\u002A*%
X141000000Y-88625000D03*
%TD*%
%TO.C,REF\u002A\u002A*%
X141000000Y-87375000D03*
%TD*%
%TO.C,REF\u002A\u002A*%
X121000000Y-75375000D03*
%TD*%
%TO.C,REF\u002A\u002A*%
X121000000Y-76625000D03*
%TD*%
%TO.C,REF\u002A\u002A*%
X121000000Y-88625000D03*
%TD*%
%TO.C,REF\u002A\u002A*%
X121000000Y-87375000D03*
%TD*%
%TO.C,REF\u002A\u002A*%
X121000000Y-71375000D03*
%TD*%
%TO.C,REF\u002A\u002A*%
X121000000Y-72625001D03*
%TD*%
%TO.C,REF\u002A\u002A*%
X121000000Y-84625001D03*
%TD*%
%TO.C,REF\u002A\u002A*%
X121000000Y-83375000D03*
%TD*%
%TO.C,REF\u002A\u002A*%
X141000000Y-71375000D03*
%TD*%
%TO.C,REF\u002A\u002A*%
X141000000Y-72625001D03*
%TD*%
%TO.C,REF\u002A\u002A*%
X141000000Y-84625001D03*
%TD*%
%TO.C,REF\u002A\u002A*%
X141000000Y-83375000D03*
%TD*%
%TO.C,REF\u002A\u002A*%
X181000000Y-95375000D03*
%TD*%
%TO.C,REF\u002A\u002A*%
X181000000Y-96625000D03*
%TD*%
%TO.C,REF\u002A\u002A*%
X181000000Y-108625000D03*
%TD*%
%TO.C,REF\u002A\u002A*%
X181000000Y-107375000D03*
%TD*%
%TO.C,REF\u002A\u002A*%
X161000000Y-95375000D03*
%TD*%
%TO.C,REF\u002A\u002A*%
X161000000Y-96625000D03*
%TD*%
%TO.C,REF\u002A\u002A*%
X161000000Y-108625000D03*
%TD*%
%TO.C,REF\u002A\u002A*%
X161000000Y-107375000D03*
%TD*%
%TO.C,REF\u002A\u002A*%
X141000000Y-96625000D03*
%TD*%
%TO.C,REF\u002A\u002A*%
X141000000Y-95375000D03*
%TD*%
%TO.C,REF\u002A\u002A*%
X141000000Y-108625000D03*
%TD*%
%TO.C,REF\u002A\u002A*%
X141000000Y-107375000D03*
%TD*%
%TO.C,REF\u002A\u002A*%
X121000000Y-95375000D03*
%TD*%
%TO.C,REF\u002A\u002A*%
X121000000Y-96625000D03*
%TD*%
%TO.C,REF\u002A\u002A*%
X121000000Y-108625000D03*
%TD*%
%TO.C,REF\u002A\u002A*%
X121000000Y-107375000D03*
%TD*%
%TO.C,REF\u002A\u002A*%
X121000000Y-103375000D03*
%TD*%
%TO.C,REF\u002A\u002A*%
X121000000Y-104625001D03*
%TD*%
%TO.C,REF\u002A\u002A*%
X161000000Y-91375000D03*
%TD*%
%TO.C,REF\u002A\u002A*%
X161000000Y-92625001D03*
%TD*%
%TO.C,REF\u002A\u002A*%
X161000000Y-104625001D03*
%TD*%
%TO.C,REF\u002A\u002A*%
X161000000Y-103375000D03*
%TD*%
%TO.C,REF\u002A\u002A*%
X181000000Y-91375000D03*
%TD*%
%TO.C,REF\u002A\u002A*%
X181000000Y-92625001D03*
%TD*%
%TO.C,REF\u002A\u002A*%
X121000000Y-91375000D03*
%TD*%
%TO.C,REF\u002A\u002A*%
X121000000Y-92625001D03*
%TD*%
%TO.C,REF\u002A\u002A*%
X181000000Y-104625001D03*
%TD*%
%TO.C,REF\u002A\u002A*%
X181000000Y-103375000D03*
%TD*%
%TO.C,REF\u002A\u002A*%
X141000000Y-92625001D03*
%TD*%
%TO.C,REF\u002A\u002A*%
X141000000Y-91375000D03*
%TD*%
%TO.C,REF\u002A\u002A*%
X141000000Y-103375000D03*
%TD*%
%TO.C,REF\u002A\u002A*%
X141000000Y-104625001D03*
%TD*%
%TO.C,REF\u002A\u002A*%
X181000000Y-115375000D03*
%TD*%
%TO.C,REF\u002A\u002A*%
X181000000Y-116625000D03*
%TD*%
%TO.C,REF\u002A\u002A*%
X181000000Y-128625000D03*
%TD*%
%TO.C,REF\u002A\u002A*%
X181000000Y-127375000D03*
%TD*%
%TO.C,REF\u002A\u002A*%
X161000000Y-115375000D03*
%TD*%
%TO.C,REF\u002A\u002A*%
X161000000Y-116625000D03*
%TD*%
%TO.C,REF\u002A\u002A*%
X161000000Y-128625000D03*
%TD*%
%TO.C,REF\u002A\u002A*%
X161000000Y-127375000D03*
%TD*%
%TO.C,REF\u002A\u002A*%
X141000000Y-116625000D03*
%TD*%
%TO.C,REF\u002A\u002A*%
X141000000Y-115375000D03*
%TD*%
%TO.C,REF\u002A\u002A*%
X141000000Y-128625000D03*
%TD*%
%TO.C,REF\u002A\u002A*%
X141000000Y-127375000D03*
%TD*%
%TO.C,REF\u002A\u002A*%
X121000000Y-115375000D03*
%TD*%
%TO.C,REF\u002A\u002A*%
X121000000Y-116625000D03*
%TD*%
%TO.C,REF\u002A\u002A*%
X121000000Y-128625000D03*
%TD*%
%TO.C,REF\u002A\u002A*%
X121000000Y-127375000D03*
%TD*%
%TO.C,REF\u002A\u002A*%
X121000000Y-123375000D03*
%TD*%
%TO.C,REF\u002A\u002A*%
X121000000Y-124625001D03*
%TD*%
%TO.C,REF\u002A\u002A*%
X161000000Y-111375000D03*
%TD*%
%TO.C,REF\u002A\u002A*%
X161000000Y-112625001D03*
%TD*%
%TO.C,REF\u002A\u002A*%
X161000000Y-124625001D03*
%TD*%
%TO.C,REF\u002A\u002A*%
X161000000Y-123375000D03*
%TD*%
%TO.C,REF\u002A\u002A*%
X181000000Y-111375000D03*
%TD*%
%TO.C,REF\u002A\u002A*%
X181000000Y-112625001D03*
%TD*%
%TO.C,REF\u002A\u002A*%
X121000000Y-111375000D03*
%TD*%
%TO.C,REF\u002A\u002A*%
X121000000Y-112625001D03*
%TD*%
%TO.C,REF\u002A\u002A*%
X181000000Y-124625001D03*
%TD*%
%TO.C,REF\u002A\u002A*%
X181000000Y-123375000D03*
%TD*%
%TO.C,REF\u002A\u002A*%
X141000000Y-112625001D03*
%TD*%
%TO.C,REF\u002A\u002A*%
X141000000Y-111375000D03*
%TD*%
%TO.C,REF\u002A\u002A*%
X141000000Y-123375000D03*
%TD*%
%TO.C,REF\u002A\u002A*%
X141000000Y-124625001D03*
%TD*%
%TO.C,REF\u002A\u002A*%
X181000000Y-135375000D03*
%TD*%
%TO.C,REF\u002A\u002A*%
X181000000Y-136625000D03*
%TD*%
%TO.C,REF\u002A\u002A*%
X181000000Y-148625000D03*
%TD*%
%TO.C,REF\u002A\u002A*%
X181000000Y-147375000D03*
%TD*%
%TO.C,REF\u002A\u002A*%
X161000000Y-135375000D03*
%TD*%
%TO.C,REF\u002A\u002A*%
X161000000Y-136625000D03*
%TD*%
%TO.C,REF\u002A\u002A*%
X161000000Y-148625000D03*
%TD*%
%TO.C,REF\u002A\u002A*%
X161000000Y-147375000D03*
%TD*%
%TO.C,REF\u002A\u002A*%
X141000000Y-136625000D03*
%TD*%
%TO.C,REF\u002A\u002A*%
X141000000Y-135375000D03*
%TD*%
%TO.C,REF\u002A\u002A*%
X141000000Y-148625000D03*
%TD*%
%TO.C,REF\u002A\u002A*%
X141000000Y-147375000D03*
%TD*%
%TO.C,REF\u002A\u002A*%
X121000000Y-135375000D03*
%TD*%
%TO.C,REF\u002A\u002A*%
X121000000Y-136625000D03*
%TD*%
%TO.C,REF\u002A\u002A*%
X121000000Y-148625000D03*
%TD*%
%TO.C,REF\u002A\u002A*%
X121000000Y-147375000D03*
%TD*%
%TO.C,REF\u002A\u002A*%
X121000000Y-143375000D03*
%TD*%
%TO.C,REF\u002A\u002A*%
X121000000Y-144625001D03*
%TD*%
%TO.C,REF\u002A\u002A*%
X161000000Y-131375000D03*
%TD*%
%TO.C,REF\u002A\u002A*%
X161000000Y-132625001D03*
%TD*%
%TO.C,REF\u002A\u002A*%
X161000000Y-144625001D03*
%TD*%
%TO.C,REF\u002A\u002A*%
X161000000Y-143375000D03*
%TD*%
%TO.C,REF\u002A\u002A*%
X181000000Y-131375000D03*
%TD*%
%TO.C,REF\u002A\u002A*%
X181000000Y-132625001D03*
%TD*%
%TO.C,REF\u002A\u002A*%
X121000000Y-131375000D03*
%TD*%
%TO.C,REF\u002A\u002A*%
X121000000Y-132625001D03*
%TD*%
%TO.C,REF\u002A\u002A*%
X181000000Y-144625001D03*
%TD*%
%TO.C,REF\u002A\u002A*%
X181000000Y-143375000D03*
%TD*%
%TO.C,REF\u002A\u002A*%
X141000000Y-132625001D03*
%TD*%
%TO.C,REF\u002A\u002A*%
X141000000Y-131375000D03*
%TD*%
%TO.C,REF\u002A\u002A*%
X141000000Y-143375000D03*
%TD*%
%TO.C,REF\u002A\u002A*%
X141000000Y-144625001D03*
%TD*%
%TO.C,REF\u002A\u002A*%
X190300000Y-110000000D03*
%TD*%
%TO.C,REF\u002A\u002A*%
X191700000Y-110000000D03*
%TD*%
M02*
