%TF.GenerationSoftware,KiCad,Pcbnew,9.0.7*%
%TF.CreationDate,2026-02-11T16:58:47+01:00*%
%TF.ProjectId,PCB_Neopixel,5043425f-4e65-46f7-9069-78656c2e6b69,rev?*%
%TF.SameCoordinates,Original*%
%TF.FileFunction,Copper,L1,Top*%
%TF.FilePolarity,Positive*%
%FSLAX46Y46*%
G04 Gerber Fmt 4.6, Leading zero omitted, Abs format (unit mm)*
G04 Created by KiCad (PCBNEW 9.0.7) date 2026-02-11 16:58:47*
%MOMM*%
%LPD*%
G01*
G04 APERTURE LIST*
G04 Aperture macros list*
%AMRoundRect*
0 Rectangle with rounded corners*
0 $1 Rounding radius*
0 $2 $3 $4 $5 $6 $7 $8 $9 X,Y pos of 4 corners*
0 Add a 4 corners polygon primitive as box body*
4,1,4,$2,$3,$4,$5,$6,$7,$8,$9,$2,$3,0*
0 Add four circle primitives for the rounded corners*
1,1,$1+$1,$2,$3*
1,1,$1+$1,$4,$5*
1,1,$1+$1,$6,$7*
1,1,$1+$1,$8,$9*
0 Add four rect primitives between the rounded corners*
20,1,$1+$1,$2,$3,$4,$5,0*
20,1,$1+$1,$4,$5,$6,$7,0*
20,1,$1+$1,$6,$7,$8,$9,0*
20,1,$1+$1,$8,$9,$2,$3,0*%
G04 Aperture macros list end*
%TA.AperFunction,SMDPad,CuDef*%
%ADD10RoundRect,0.225000X0.225000X0.250000X-0.225000X0.250000X-0.225000X-0.250000X0.225000X-0.250000X0*%
%TD*%
%TA.AperFunction,SMDPad,CuDef*%
%ADD11RoundRect,0.375000X1.125000X-0.375000X1.125000X0.375000X-1.125000X0.375000X-1.125000X-0.375000X0*%
%TD*%
%TA.AperFunction,SMDPad,CuDef*%
%ADD12RoundRect,0.140000X0.140000X0.170000X-0.140000X0.170000X-0.140000X-0.170000X0.140000X-0.170000X0*%
%TD*%
%TA.AperFunction,SMDPad,CuDef*%
%ADD13RoundRect,0.090000X0.660000X0.360000X-0.660000X0.360000X-0.660000X-0.360000X0.660000X-0.360000X0*%
%TD*%
%TA.AperFunction,ViaPad*%
%ADD14C,0.800000*%
%TD*%
%TA.AperFunction,Conductor*%
%ADD15C,1.000000*%
%TD*%
%TA.AperFunction,Conductor*%
%ADD16C,0.200000*%
%TD*%
G04 APERTURE END LIST*
D10*
%TO.P,C101,2*%
%TO.N,GND*%
X208110000Y-96360000D03*
%TO.P,C101,1*%
%TO.N,+5V*%
X209660000Y-96360000D03*
%TD*%
D11*
%TO.P,J501,1,Pin_1*%
%TO.N,+5V*%
X129500000Y-103000000D03*
%TD*%
%TO.P,J103,1,Pin_1*%
%TO.N,DO*%
X213500000Y-99999999D03*
%TD*%
%TO.P,J102,1,Pin_1*%
%TO.N,GND*%
X213500000Y-97000000D03*
%TD*%
%TO.P,J101,1,Pin_1*%
%TO.N,+5V*%
X213500000Y-102999999D03*
%TD*%
D12*
%TO.P,C401,1*%
%TO.N,+5V*%
X123980000Y-103499999D03*
%TO.P,C401,2*%
%TO.N,GND*%
X123020000Y-103499999D03*
%TD*%
%TO.P,C801,1*%
%TO.N,+5V*%
X171980000Y-103500000D03*
%TO.P,C801,2*%
%TO.N,GND*%
X171020000Y-103500000D03*
%TD*%
%TO.P,C1101,1*%
%TO.N,+5V*%
X207980000Y-103500000D03*
%TO.P,C1101,2*%
%TO.N,GND*%
X207020000Y-103500000D03*
%TD*%
D13*
%TO.P,D301,1,VDD*%
%TO.N,+5V*%
X113950000Y-101650000D03*
%TO.P,D301,2,DOUT*%
%TO.N,DO2*%
X113950000Y-98350000D03*
%TO.P,D301,3,VSS*%
%TO.N,GND*%
X109050000Y-98350000D03*
%TO.P,D301,4,DIN*%
%TO.N,DO1*%
X109050000Y-101650000D03*
%TD*%
%TO.P,D401,1,VDD*%
%TO.N,+5V*%
X125950000Y-101649999D03*
%TO.P,D401,2,DOUT*%
%TO.N,DO3*%
X125950000Y-98349999D03*
%TO.P,D401,3,VSS*%
%TO.N,GND*%
X121050000Y-98349999D03*
%TO.P,D401,4,DIN*%
%TO.N,DO2*%
X121050000Y-101649999D03*
%TD*%
%TO.P,D801,1,VDD*%
%TO.N,+5V*%
X173950000Y-101650000D03*
%TO.P,D801,2,DOUT*%
%TO.N,DO7*%
X173950000Y-98350000D03*
%TO.P,D801,3,VSS*%
%TO.N,GND*%
X169050000Y-98350000D03*
%TO.P,D801,4,DIN*%
%TO.N,DO6*%
X169050000Y-101650000D03*
%TD*%
%TO.P,D1101,1,VDD*%
%TO.N,+5V*%
X209950000Y-101650000D03*
%TO.P,D1101,2,DOUT*%
%TO.N,DO*%
X209950000Y-98350000D03*
%TO.P,D1101,3,VSS*%
%TO.N,GND*%
X205050000Y-98350000D03*
%TO.P,D1101,4,DIN*%
%TO.N,DO9*%
X205050000Y-101650000D03*
%TD*%
D11*
%TO.P,J301,1,Pin_1*%
%TO.N,+5V*%
X105500000Y-103000000D03*
%TD*%
%TO.P,J302,1,Pin_1*%
%TO.N,GND*%
X105500000Y-97000000D03*
%TD*%
%TO.P,J303,1,Pin_1*%
%TO.N,DO1*%
X105500000Y-100000000D03*
%TD*%
%TO.P,J401,1,Pin_1*%
%TO.N,+5V*%
X117500000Y-102999999D03*
%TD*%
%TO.P,J402,1,Pin_1*%
%TO.N,GND*%
X117500000Y-96999999D03*
%TD*%
%TO.P,J403,1,Pin_1*%
%TO.N,DO2*%
X117500000Y-99999999D03*
%TD*%
%TO.P,J801,1,Pin_1*%
%TO.N,+5V*%
X165500000Y-103000000D03*
%TD*%
%TO.P,J802,1,Pin_1*%
%TO.N,GND*%
X165500000Y-97000000D03*
%TD*%
%TO.P,J803,1,Pin_1*%
%TO.N,DO6*%
X165500000Y-100000000D03*
%TD*%
%TO.P,J1101,1,Pin_1*%
%TO.N,+5V*%
X201500000Y-103000000D03*
%TD*%
%TO.P,J1102,1,Pin_1*%
%TO.N,GND*%
X201500000Y-97000000D03*
%TD*%
%TO.P,J1103,1,Pin_1*%
%TO.N,DO9*%
X201500000Y-100000000D03*
%TD*%
D12*
%TO.P,C301,1*%
%TO.N,+5V*%
X111980000Y-103500000D03*
%TO.P,C301,2*%
%TO.N,GND*%
X111020000Y-103500000D03*
%TD*%
%TO.P,C501,2*%
%TO.N,GND*%
X135020002Y-103500000D03*
%TO.P,C501,1*%
%TO.N,+5V*%
X135980002Y-103500000D03*
%TD*%
%TO.P,C601,2*%
%TO.N,GND*%
X147020000Y-103499999D03*
%TO.P,C601,1*%
%TO.N,+5V*%
X147980000Y-103499999D03*
%TD*%
%TO.P,C901,2*%
%TO.N,GND*%
X183020000Y-103499999D03*
%TO.P,C901,1*%
%TO.N,+5V*%
X183980000Y-103499999D03*
%TD*%
%TO.P,C1001,2*%
%TO.N,GND*%
X195020000Y-103499998D03*
%TO.P,C1001,1*%
%TO.N,+5V*%
X195980000Y-103499998D03*
%TD*%
D13*
%TO.P,D501,4,DIN*%
%TO.N,DO3*%
X133050001Y-101650000D03*
%TO.P,D501,3,VSS*%
%TO.N,GND*%
X133050001Y-98350000D03*
%TO.P,D501,2,DOUT*%
%TO.N,DO4*%
X137950001Y-98350000D03*
%TO.P,D501,1,VDD*%
%TO.N,+5V*%
X137950001Y-101650000D03*
%TD*%
%TO.P,D601,4,DIN*%
%TO.N,DO4*%
X145050000Y-101650000D03*
%TO.P,D601,3,VSS*%
%TO.N,GND*%
X145050000Y-98350000D03*
%TO.P,D601,2,DOUT*%
%TO.N,DO5*%
X149950000Y-98350000D03*
%TO.P,D601,1,VDD*%
%TO.N,+5V*%
X149950000Y-101650000D03*
%TD*%
%TO.P,D901,4,DIN*%
%TO.N,DO7*%
X181050000Y-101649999D03*
%TO.P,D901,3,VSS*%
%TO.N,GND*%
X181050000Y-98349999D03*
%TO.P,D901,2,DOUT*%
%TO.N,DO8*%
X185950000Y-98349999D03*
%TO.P,D901,1,VDD*%
%TO.N,+5V*%
X185950000Y-101649999D03*
%TD*%
%TO.P,D1001,4,DIN*%
%TO.N,DO8*%
X193050000Y-101649999D03*
%TO.P,D1001,3,VSS*%
%TO.N,GND*%
X193050000Y-98349999D03*
%TO.P,D1001,2,DOUT*%
%TO.N,DO9*%
X197950000Y-98349999D03*
%TO.P,D1001,1,VDD*%
%TO.N,+5V*%
X197950000Y-101649999D03*
%TD*%
D11*
%TO.P,J502,1,Pin_1*%
%TO.N,GND*%
X129500000Y-97000001D03*
%TD*%
%TO.P,J503,1,Pin_1*%
%TO.N,DO3*%
X129500001Y-100000000D03*
%TD*%
%TO.P,J601,1,Pin_1*%
%TO.N,+5V*%
X141500000Y-103000000D03*
%TD*%
%TO.P,J602,1,Pin_1*%
%TO.N,GND*%
X141500000Y-97000001D03*
%TD*%
%TO.P,J603,1,Pin_1*%
%TO.N,DO4*%
X141500000Y-100000000D03*
%TD*%
%TO.P,J901,1,Pin_1*%
%TO.N,+5V*%
X177500000Y-102999999D03*
%TD*%
%TO.P,J902,1,Pin_1*%
%TO.N,GND*%
X177500000Y-97000000D03*
%TD*%
%TO.P,J903,1,Pin_1*%
%TO.N,DO7*%
X177500000Y-99999999D03*
%TD*%
%TO.P,J1001,1,Pin_1*%
%TO.N,+5V*%
X189500000Y-102999999D03*
%TD*%
%TO.P,J1002,1,Pin_1*%
%TO.N,GND*%
X189500000Y-97000000D03*
%TD*%
%TO.P,J1003,1,Pin_1*%
%TO.N,DO8*%
X189500000Y-99999999D03*
%TD*%
D13*
%TO.P,D201,4,DIN*%
%TO.N,/Segment/DI*%
X97050000Y-101650000D03*
%TO.P,D201,3,VSS*%
%TO.N,GND*%
X97050000Y-98350000D03*
%TO.P,D201,2,DOUT*%
%TO.N,DO1*%
X101950000Y-98350000D03*
%TO.P,D201,1,VDD*%
%TO.N,+5V*%
X101950000Y-101650000D03*
%TD*%
D11*
%TO.P,J701,1,Pin_1*%
%TO.N,+5V*%
X153500000Y-103000000D03*
%TD*%
%TO.P,J703,1,Pin_1*%
%TO.N,DO5*%
X153500000Y-100000000D03*
%TD*%
D13*
%TO.P,D701,1,VDD*%
%TO.N,+5V*%
X161950000Y-101650000D03*
%TO.P,D701,2,DOUT*%
%TO.N,DO6*%
X161950000Y-98350000D03*
%TO.P,D701,3,VSS*%
%TO.N,GND*%
X157050000Y-98350000D03*
%TO.P,D701,4,DIN*%
%TO.N,DO5*%
X157050000Y-101650000D03*
%TD*%
D12*
%TO.P,C701,1*%
%TO.N,+5V*%
X159980000Y-103500000D03*
%TO.P,C701,2*%
%TO.N,GND*%
X159020000Y-103500000D03*
%TD*%
D11*
%TO.P,J702,1,Pin_1*%
%TO.N,GND*%
X153500000Y-97000000D03*
%TD*%
D12*
%TO.P,C201,2*%
%TO.N,GND*%
X99020000Y-103500000D03*
%TO.P,C201,1*%
%TO.N,+5V*%
X99980000Y-103500000D03*
%TD*%
D11*
%TO.P,J203,1,Pin_1*%
%TO.N,/Segment/DI*%
X93500000Y-100000000D03*
%TD*%
%TO.P,J202,1,Pin_1*%
%TO.N,GND*%
X93500000Y-97000000D03*
%TD*%
%TO.P,J201,1,Pin_1*%
%TO.N,+5V*%
X93500000Y-103000000D03*
%TD*%
D14*
%TO.N,GND*%
X208110000Y-96930000D03*
X203000000Y-97000000D03*
X191000000Y-97000000D03*
X167000000Y-97000000D03*
X155000000Y-97000000D03*
X143000000Y-97000000D03*
X131000000Y-97000000D03*
X119000000Y-97000000D03*
X107000000Y-97000000D03*
X206590000Y-103500000D03*
X194590000Y-103500000D03*
X182590000Y-103500000D03*
X170590000Y-103500000D03*
X158590000Y-103500000D03*
X146590000Y-103500000D03*
X134590000Y-103500000D03*
X122590000Y-103500000D03*
X110600000Y-103490000D03*
X98590000Y-103500000D03*
X95200000Y-97000000D03*
X98000000Y-98360000D03*
X110010000Y-98350000D03*
X122010000Y-98350000D03*
X134010000Y-98360000D03*
X146020000Y-98350000D03*
X158010000Y-98350000D03*
X170040000Y-98350000D03*
X179210000Y-97000000D03*
X182010000Y-98340000D03*
X193990000Y-98360000D03*
X206020000Y-98340000D03*
X212000000Y-97000000D03*
%TD*%
D15*
%TO.N,GND*%
X208110000Y-96360000D02*
X208110000Y-96930000D01*
X201500000Y-97000000D02*
X203000000Y-97000000D01*
X189500000Y-97000000D02*
X191000000Y-97000000D01*
X165500000Y-97000000D02*
X167000000Y-97000000D01*
X153500000Y-97000000D02*
X155000000Y-97000000D01*
X142999999Y-97000001D02*
X143000000Y-97000000D01*
X141500000Y-97000001D02*
X142999999Y-97000001D01*
X130999999Y-97000001D02*
X131000000Y-97000000D01*
X129500000Y-97000001D02*
X130999999Y-97000001D01*
X118999999Y-96999999D02*
X119000000Y-97000000D01*
X117500000Y-96999999D02*
X118999999Y-96999999D01*
X105500000Y-97000000D02*
X107000000Y-97000000D01*
D16*
%TO.N,DO1*%
X101950000Y-98350000D02*
X102350000Y-98350000D01*
X102350000Y-98350000D02*
X104000000Y-100000000D01*
X104000000Y-100000000D02*
X105500000Y-100000000D01*
%TO.N,DO2*%
X113950000Y-98350000D02*
X114350000Y-98350000D01*
X114350000Y-98350000D02*
X115999999Y-99999999D01*
X115999999Y-99999999D02*
X117500000Y-99999999D01*
%TO.N,DO3*%
X125950000Y-98349999D02*
X126199999Y-98349999D01*
X126199999Y-98349999D02*
X127850000Y-100000000D01*
X127850000Y-100000000D02*
X129500001Y-100000000D01*
%TO.N,DO4*%
X137950001Y-98350000D02*
X138200000Y-98350000D01*
X138200000Y-98350000D02*
X139850000Y-100000000D01*
X139850000Y-100000000D02*
X141500000Y-100000000D01*
%TO.N,DO5*%
X149950000Y-98350000D02*
X150200000Y-98350000D01*
X150200000Y-98350000D02*
X151850000Y-100000000D01*
X151850000Y-100000000D02*
X153500000Y-100000000D01*
%TO.N,DO6*%
X161950000Y-98350000D02*
X162200000Y-98350000D01*
X162200000Y-98350000D02*
X163850000Y-100000000D01*
X163850000Y-100000000D02*
X165500000Y-100000000D01*
%TO.N,DO7*%
X173950000Y-98350000D02*
X174200001Y-98350000D01*
X174200001Y-98350000D02*
X175850001Y-100000000D01*
X175850001Y-100000000D02*
X177499999Y-100000000D01*
X177499999Y-100000000D02*
X177500000Y-99999999D01*
%TO.N,DO8*%
X185950000Y-98349999D02*
X186199999Y-98349999D01*
X187850000Y-100000000D02*
X189499999Y-100000000D01*
X186199999Y-98349999D02*
X187850000Y-100000000D01*
X189499999Y-100000000D02*
X189500000Y-99999999D01*
%TO.N,DO9*%
X197950000Y-98349999D02*
X198199998Y-98349999D01*
X198199998Y-98349999D02*
X199849999Y-100000000D01*
X199849999Y-100000000D02*
X201500000Y-100000000D01*
%TO.N,DO*%
X213500000Y-99999999D02*
X211599999Y-99999999D01*
X211599999Y-99999999D02*
X209950000Y-98350000D01*
%TO.N,GND*%
X207020000Y-103500000D02*
X206590000Y-103500000D01*
X194590002Y-103499998D02*
X194590000Y-103500000D01*
X195020000Y-103499998D02*
X194590002Y-103499998D01*
X183020000Y-103499999D02*
X182590000Y-103500000D01*
X171020000Y-103500000D02*
X170590000Y-103500000D01*
X159020000Y-103500000D02*
X158590000Y-103500000D01*
X147020000Y-103499999D02*
X146590000Y-103500000D01*
X135020002Y-103500000D02*
X134590000Y-103500000D01*
X123020000Y-103499999D02*
X122590000Y-103500000D01*
X110610000Y-103500000D02*
X110600000Y-103490000D01*
X111020000Y-103500000D02*
X110610000Y-103500000D01*
X99020000Y-103500000D02*
X98590000Y-103500000D01*
D15*
X93500000Y-97000000D02*
X95200000Y-97000000D01*
X97990000Y-98350000D02*
X98000000Y-98360000D01*
X97050000Y-98350000D02*
X97990000Y-98350000D01*
X109050000Y-98350000D02*
X110010000Y-98350000D01*
X121050000Y-98349999D02*
X122010000Y-98350000D01*
X134000000Y-98350000D02*
X134010000Y-98360000D01*
X133050001Y-98350000D02*
X134000000Y-98350000D01*
X145050000Y-98350000D02*
X146020000Y-98350000D01*
X157050000Y-98350000D02*
X158010000Y-98350000D01*
X169050000Y-98350000D02*
X170040000Y-98350000D01*
X177500000Y-97000000D02*
X179210000Y-97000000D01*
X182000001Y-98349999D02*
X182010000Y-98340000D01*
X181050000Y-98349999D02*
X182000001Y-98349999D01*
X193979999Y-98349999D02*
X193990000Y-98360000D01*
X193050000Y-98349999D02*
X193979999Y-98349999D01*
X206010000Y-98350000D02*
X206020000Y-98340000D01*
X205050000Y-98350000D02*
X206010000Y-98350000D01*
X213500000Y-97000000D02*
X212000000Y-97000000D01*
D16*
%TO.N,DO9*%
X205050000Y-101650000D02*
X203150000Y-101650000D01*
X203150000Y-101650000D02*
X201500000Y-100000000D01*
%TO.N,DO8*%
X193050000Y-101649999D02*
X191150000Y-101649999D01*
X191150000Y-101649999D02*
X189500000Y-99999999D01*
%TO.N,DO7*%
X181050000Y-101649999D02*
X179150000Y-101649999D01*
X179150000Y-101649999D02*
X177500000Y-99999999D01*
%TO.N,DO6*%
X169050000Y-101650000D02*
X167150000Y-101650000D01*
X167150000Y-101650000D02*
X165500000Y-100000000D01*
%TO.N,DO5*%
X157050000Y-101650000D02*
X155150000Y-101650000D01*
X155150000Y-101650000D02*
X153500000Y-100000000D01*
%TO.N,DO4*%
X145050000Y-101650000D02*
X143150000Y-101650000D01*
X143150000Y-101650000D02*
X141500000Y-100000000D01*
%TO.N,DO3*%
X133050001Y-101650000D02*
X131150001Y-101650000D01*
X131150001Y-101650000D02*
X129500001Y-100000000D01*
%TO.N,DO2*%
X121050000Y-101649999D02*
X119150000Y-101649999D01*
X119150000Y-101649999D02*
X117500000Y-99999999D01*
%TO.N,DO1*%
X109050000Y-101650000D02*
X107150000Y-101650000D01*
X107150000Y-101650000D02*
X105500000Y-100000000D01*
%TO.N,/Segment/DI*%
X97050000Y-101650000D02*
X95150000Y-101650000D01*
X95150000Y-101650000D02*
X93500000Y-100000000D01*
%TD*%
%TA.AperFunction,Conductor*%
%TO.N,+5V*%
G36*
X215392539Y-95320185D02*
G01*
X215438294Y-95372989D01*
X215449500Y-95424500D01*
X215449500Y-96238357D01*
X215429815Y-96305396D01*
X215377011Y-96351151D01*
X215307853Y-96361095D01*
X215244297Y-96332070D01*
X215219383Y-96302506D01*
X215160652Y-96205352D01*
X215160648Y-96205347D01*
X215044652Y-96089351D01*
X215044648Y-96089348D01*
X214904272Y-96004488D01*
X214904263Y-96004485D01*
X214747664Y-95955687D01*
X214747662Y-95955686D01*
X214747657Y-95955685D01*
X214679594Y-95949500D01*
X212320406Y-95949500D01*
X212252343Y-95955685D01*
X212252339Y-95955686D01*
X212252335Y-95955687D01*
X212095736Y-96004485D01*
X212095727Y-96004488D01*
X211955351Y-96089348D01*
X211852936Y-96191763D01*
X211791613Y-96225247D01*
X211789450Y-96225698D01*
X211766504Y-96230262D01*
X211766498Y-96230264D01*
X211620827Y-96290602D01*
X211620814Y-96290609D01*
X211489711Y-96378210D01*
X211489707Y-96378213D01*
X211378213Y-96489707D01*
X211378210Y-96489711D01*
X211290609Y-96620814D01*
X211290602Y-96620827D01*
X211230264Y-96766498D01*
X211230261Y-96766510D01*
X211199500Y-96921153D01*
X211199500Y-97078846D01*
X211230261Y-97233489D01*
X211230264Y-97233501D01*
X211290602Y-97379172D01*
X211290609Y-97379185D01*
X211378210Y-97510288D01*
X211378213Y-97510292D01*
X211489707Y-97621786D01*
X211489711Y-97621789D01*
X211620814Y-97709390D01*
X211620827Y-97709397D01*
X211708230Y-97745599D01*
X211766503Y-97769737D01*
X211789444Y-97774300D01*
X211851354Y-97806683D01*
X211852935Y-97808236D01*
X211955347Y-97910648D01*
X211955351Y-97910651D01*
X212095727Y-97995511D01*
X212095736Y-97995514D01*
X212116047Y-98001843D01*
X212252343Y-98044315D01*
X212320406Y-98050500D01*
X212320409Y-98050500D01*
X214679591Y-98050500D01*
X214679594Y-98050500D01*
X214747657Y-98044315D01*
X214904270Y-97995512D01*
X214904274Y-97995510D01*
X215044648Y-97910651D01*
X215044647Y-97910651D01*
X215044653Y-97910648D01*
X215160648Y-97794653D01*
X215219383Y-97697493D01*
X215270910Y-97650305D01*
X215339769Y-97638466D01*
X215404098Y-97665734D01*
X215443473Y-97723452D01*
X215449500Y-97761642D01*
X215449500Y-99238356D01*
X215429815Y-99305395D01*
X215377011Y-99351150D01*
X215307853Y-99361094D01*
X215244297Y-99332069D01*
X215219383Y-99302505D01*
X215160652Y-99205351D01*
X215160648Y-99205346D01*
X215044652Y-99089350D01*
X215044648Y-99089347D01*
X214904272Y-99004487D01*
X214904263Y-99004484D01*
X214747664Y-98955686D01*
X214747662Y-98955685D01*
X214747657Y-98955684D01*
X214679594Y-98949499D01*
X212320406Y-98949499D01*
X212252343Y-98955684D01*
X212252341Y-98955684D01*
X212252338Y-98955685D01*
X212095732Y-99004486D01*
X212095354Y-99004656D01*
X212087644Y-99008899D01*
X211558869Y-99272713D01*
X211490093Y-99285028D01*
X211425578Y-99258205D01*
X211415830Y-99249437D01*
X211105881Y-98939488D01*
X211072396Y-98878165D01*
X211070975Y-98870473D01*
X211069424Y-98860290D01*
X211027276Y-98583489D01*
X211003314Y-98426123D01*
X211003265Y-98425895D01*
X211003232Y-98425584D01*
X211002750Y-98422419D01*
X211002893Y-98422397D01*
X211000499Y-98399852D01*
X211000499Y-97959260D01*
X210986018Y-97867829D01*
X210986018Y-97867828D01*
X210986017Y-97867826D01*
X210986017Y-97867825D01*
X210929859Y-97757609D01*
X210929856Y-97757606D01*
X210929854Y-97757603D01*
X210842396Y-97670145D01*
X210842393Y-97670143D01*
X210842391Y-97670141D01*
X210732175Y-97613983D01*
X210732174Y-97613982D01*
X210732171Y-97613981D01*
X210640735Y-97599500D01*
X209259260Y-97599500D01*
X209259260Y-97599501D01*
X209167829Y-97613981D01*
X209167828Y-97613981D01*
X209057607Y-97670142D01*
X209057603Y-97670145D01*
X208970145Y-97757603D01*
X208970143Y-97757607D01*
X208970141Y-97757609D01*
X208957304Y-97782803D01*
X208913981Y-97867827D01*
X208913981Y-97867828D01*
X208899500Y-97959264D01*
X208899500Y-98740739D01*
X208913981Y-98832170D01*
X208913981Y-98832171D01*
X208913982Y-98832174D01*
X208913983Y-98832175D01*
X208970140Y-98942390D01*
X208970142Y-98942392D01*
X208970145Y-98942396D01*
X209057603Y-99029854D01*
X209057605Y-99029855D01*
X209057609Y-99029859D01*
X209167825Y-99086017D01*
X209167826Y-99086017D01*
X209167828Y-99086018D01*
X209202947Y-99091579D01*
X209259265Y-99100500D01*
X209661928Y-99100499D01*
X209711867Y-99110999D01*
X210463326Y-99441641D01*
X210501065Y-99467458D01*
X211054290Y-100020683D01*
X211067667Y-100036508D01*
X211078153Y-100051256D01*
X211078156Y-100051259D01*
X211272649Y-100239069D01*
X211272650Y-100239069D01*
X211273407Y-100239800D01*
X211354086Y-100320479D01*
X211361226Y-100324601D01*
X211813820Y-100761641D01*
X211815594Y-100763354D01*
X211835574Y-100788403D01*
X211839352Y-100794652D01*
X211955347Y-100910647D01*
X211955349Y-100910648D01*
X211955351Y-100910650D01*
X212095727Y-100995510D01*
X212095736Y-100995513D01*
X212127751Y-101005489D01*
X212252343Y-101044314D01*
X212320406Y-101050499D01*
X212320409Y-101050499D01*
X214679591Y-101050499D01*
X214679594Y-101050499D01*
X214747657Y-101044314D01*
X214904270Y-100995511D01*
X214935307Y-100976749D01*
X215039138Y-100913981D01*
X215044653Y-100910647D01*
X215160648Y-100794652D01*
X215219383Y-100697492D01*
X215270910Y-100650304D01*
X215339769Y-100638465D01*
X215404098Y-100665733D01*
X215443473Y-100723451D01*
X215449500Y-100761641D01*
X215449500Y-104575500D01*
X215429815Y-104642539D01*
X215377011Y-104688294D01*
X215325500Y-104699500D01*
X91674500Y-104699500D01*
X91607461Y-104679815D01*
X91561706Y-104627011D01*
X91550500Y-104575500D01*
X91550500Y-103568995D01*
X97889499Y-103568995D01*
X97916418Y-103704322D01*
X97916421Y-103704332D01*
X97969221Y-103831804D01*
X97969228Y-103831817D01*
X98045885Y-103946541D01*
X98045888Y-103946545D01*
X98143454Y-104044111D01*
X98143458Y-104044114D01*
X98258182Y-104120771D01*
X98258195Y-104120778D01*
X98361532Y-104163581D01*
X98385672Y-104173580D01*
X98385676Y-104173580D01*
X98385677Y-104173581D01*
X98521004Y-104200500D01*
X98521007Y-104200500D01*
X98658995Y-104200500D01*
X98750041Y-104182389D01*
X98794328Y-104173580D01*
X98921811Y-104120775D01*
X98921811Y-104120774D01*
X98923829Y-104119939D01*
X98971282Y-104110500D01*
X99213070Y-104110500D01*
X99226289Y-104109260D01*
X99242819Y-104107710D01*
X99242823Y-104107708D01*
X99242826Y-104107708D01*
X99291836Y-104090557D01*
X99368157Y-104063852D01*
X99474999Y-103984999D01*
X99553852Y-103878157D01*
X99597710Y-103752819D01*
X99600500Y-103723066D01*
X99600500Y-103558995D01*
X109899499Y-103558995D01*
X109926418Y-103694322D01*
X109926421Y-103694332D01*
X109979221Y-103821804D01*
X109979228Y-103821817D01*
X110055885Y-103936541D01*
X110055888Y-103936545D01*
X110153454Y-104034111D01*
X110153458Y-104034114D01*
X110268182Y-104110771D01*
X110268195Y-104110778D01*
X110395667Y-104163578D01*
X110395672Y-104163580D01*
X110395676Y-104163580D01*
X110395677Y-104163581D01*
X110531004Y-104190500D01*
X110531007Y-104190500D01*
X110668995Y-104190500D01*
X110760041Y-104172389D01*
X110804328Y-104163580D01*
X110835954Y-104150479D01*
X110909689Y-104119939D01*
X110957141Y-104110500D01*
X111213070Y-104110500D01*
X111226289Y-104109260D01*
X111242819Y-104107710D01*
X111242823Y-104107708D01*
X111242826Y-104107708D01*
X111291836Y-104090557D01*
X111368157Y-104063852D01*
X111474999Y-103984999D01*
X111553852Y-103878157D01*
X111597710Y-103752819D01*
X111600500Y-103723066D01*
X111600500Y-103568995D01*
X121889499Y-103568995D01*
X121916418Y-103704322D01*
X121916421Y-103704332D01*
X121969221Y-103831804D01*
X121969228Y-103831817D01*
X122045885Y-103946541D01*
X122045888Y-103946545D01*
X122143454Y-104044111D01*
X122143458Y-104044114D01*
X122258182Y-104120771D01*
X122258195Y-104120778D01*
X122361532Y-104163581D01*
X122385672Y-104173580D01*
X122385676Y-104173580D01*
X122385677Y-104173581D01*
X122521004Y-104200500D01*
X122521007Y-104200500D01*
X122658995Y-104200500D01*
X122750041Y-104182389D01*
X122794328Y-104173580D01*
X122844830Y-104152661D01*
X122923833Y-104119938D01*
X122971285Y-104110499D01*
X123213070Y-104110499D01*
X123226289Y-104109259D01*
X123242819Y-104107709D01*
X123242823Y-104107707D01*
X123242826Y-104107707D01*
X123291836Y-104090556D01*
X123368157Y-104063851D01*
X123474999Y-103984998D01*
X123553852Y-103878156D01*
X123580557Y-103801835D01*
X123597708Y-103752825D01*
X123597708Y-103752822D01*
X123597710Y-103752818D01*
X123600500Y-103723065D01*
X123600500Y-103568995D01*
X133889499Y-103568995D01*
X133916418Y-103704322D01*
X133916421Y-103704332D01*
X133969221Y-103831804D01*
X133969228Y-103831817D01*
X134045885Y-103946541D01*
X134045888Y-103946545D01*
X134143454Y-104044111D01*
X134143458Y-104044114D01*
X134258182Y-104120771D01*
X134258195Y-104120778D01*
X134361532Y-104163581D01*
X134385672Y-104173580D01*
X134385676Y-104173580D01*
X134385677Y-104173581D01*
X134521004Y-104200500D01*
X134521007Y-104200500D01*
X134658995Y-104200500D01*
X134750041Y-104182389D01*
X134794328Y-104173580D01*
X134921811Y-104120775D01*
X134921811Y-104120774D01*
X134923829Y-104119939D01*
X134971282Y-104110500D01*
X135213072Y-104110500D01*
X135226291Y-104109260D01*
X135242821Y-104107710D01*
X135242825Y-104107708D01*
X135242828Y-104107708D01*
X135291838Y-104090557D01*
X135368159Y-104063852D01*
X135475001Y-103984999D01*
X135553854Y-103878157D01*
X135597712Y-103752819D01*
X135600502Y-103723066D01*
X135600502Y-103568995D01*
X145889499Y-103568995D01*
X145916418Y-103704322D01*
X145916421Y-103704332D01*
X145969221Y-103831804D01*
X145969228Y-103831817D01*
X146045885Y-103946541D01*
X146045888Y-103946545D01*
X146143454Y-104044111D01*
X146143458Y-104044114D01*
X146258182Y-104120771D01*
X146258195Y-104120778D01*
X146361532Y-104163581D01*
X146385672Y-104173580D01*
X146385676Y-104173580D01*
X146385677Y-104173581D01*
X146521004Y-104200500D01*
X146521007Y-104200500D01*
X146658995Y-104200500D01*
X146750041Y-104182389D01*
X146794328Y-104173580D01*
X146844830Y-104152661D01*
X146923833Y-104119938D01*
X146971285Y-104110499D01*
X147213070Y-104110499D01*
X147226289Y-104109259D01*
X147242819Y-104107709D01*
X147242823Y-104107707D01*
X147242826Y-104107707D01*
X147291836Y-104090556D01*
X147368157Y-104063851D01*
X147474999Y-103984998D01*
X147553852Y-103878156D01*
X147580557Y-103801835D01*
X147597708Y-103752825D01*
X147597708Y-103752822D01*
X147597710Y-103752818D01*
X147600500Y-103723065D01*
X147600500Y-103568995D01*
X157889499Y-103568995D01*
X157916418Y-103704322D01*
X157916421Y-103704332D01*
X157969221Y-103831804D01*
X157969228Y-103831817D01*
X158045885Y-103946541D01*
X158045888Y-103946545D01*
X158143454Y-104044111D01*
X158143458Y-104044114D01*
X158258182Y-104120771D01*
X158258195Y-104120778D01*
X158361532Y-104163581D01*
X158385672Y-104173580D01*
X158385676Y-104173580D01*
X158385677Y-104173581D01*
X158521004Y-104200500D01*
X158521007Y-104200500D01*
X158658995Y-104200500D01*
X158750041Y-104182389D01*
X158794328Y-104173580D01*
X158921811Y-104120775D01*
X158921811Y-104120774D01*
X158923829Y-104119939D01*
X158971282Y-104110500D01*
X159213070Y-104110500D01*
X159226289Y-104109260D01*
X159242819Y-104107710D01*
X159242823Y-104107708D01*
X159242826Y-104107708D01*
X159291836Y-104090557D01*
X159368157Y-104063852D01*
X159474999Y-103984999D01*
X159553852Y-103878157D01*
X159597710Y-103752819D01*
X159600500Y-103723066D01*
X159600500Y-103568995D01*
X169889499Y-103568995D01*
X169916418Y-103704322D01*
X169916421Y-103704332D01*
X169969221Y-103831804D01*
X169969228Y-103831817D01*
X170045885Y-103946541D01*
X170045888Y-103946545D01*
X170143454Y-104044111D01*
X170143458Y-104044114D01*
X170258182Y-104120771D01*
X170258195Y-104120778D01*
X170361532Y-104163581D01*
X170385672Y-104173580D01*
X170385676Y-104173580D01*
X170385677Y-104173581D01*
X170521004Y-104200500D01*
X170521007Y-104200500D01*
X170658995Y-104200500D01*
X170750041Y-104182389D01*
X170794328Y-104173580D01*
X170921811Y-104120775D01*
X170921811Y-104120774D01*
X170923829Y-104119939D01*
X170971282Y-104110500D01*
X171213070Y-104110500D01*
X171226289Y-104109260D01*
X171242819Y-104107710D01*
X171242823Y-104107708D01*
X171242826Y-104107708D01*
X171291836Y-104090557D01*
X171368157Y-104063852D01*
X171474999Y-103984999D01*
X171553852Y-103878157D01*
X171597710Y-103752819D01*
X171600500Y-103723066D01*
X171600500Y-103568995D01*
X181889499Y-103568995D01*
X181916418Y-103704322D01*
X181916421Y-103704332D01*
X181969221Y-103831804D01*
X181969228Y-103831817D01*
X182045885Y-103946541D01*
X182045888Y-103946545D01*
X182143454Y-104044111D01*
X182143458Y-104044114D01*
X182258182Y-104120771D01*
X182258195Y-104120778D01*
X182361532Y-104163581D01*
X182385672Y-104173580D01*
X182385676Y-104173580D01*
X182385677Y-104173581D01*
X182521004Y-104200500D01*
X182521007Y-104200500D01*
X182658995Y-104200500D01*
X182750041Y-104182389D01*
X182794328Y-104173580D01*
X182844830Y-104152661D01*
X182923833Y-104119938D01*
X182971285Y-104110499D01*
X183213070Y-104110499D01*
X183226289Y-104109259D01*
X183242819Y-104107709D01*
X183242823Y-104107707D01*
X183242826Y-104107707D01*
X183291836Y-104090556D01*
X183368157Y-104063851D01*
X183474999Y-103984998D01*
X183553852Y-103878156D01*
X183580557Y-103801835D01*
X183597708Y-103752825D01*
X183597708Y-103752822D01*
X183597710Y-103752818D01*
X183600500Y-103723065D01*
X183600500Y-103568995D01*
X193889499Y-103568995D01*
X193916418Y-103704322D01*
X193916421Y-103704332D01*
X193969221Y-103831804D01*
X193969228Y-103831817D01*
X194045885Y-103946541D01*
X194045888Y-103946545D01*
X194143454Y-104044111D01*
X194143458Y-104044114D01*
X194258182Y-104120771D01*
X194258195Y-104120778D01*
X194361532Y-104163581D01*
X194385672Y-104173580D01*
X194385676Y-104173580D01*
X194385677Y-104173581D01*
X194521004Y-104200500D01*
X194521007Y-104200500D01*
X194658995Y-104200500D01*
X194750041Y-104182389D01*
X194794328Y-104173580D01*
X194921811Y-104120775D01*
X194921811Y-104120774D01*
X194923834Y-104119937D01*
X194971287Y-104110498D01*
X195213070Y-104110498D01*
X195226289Y-104109258D01*
X195242819Y-104107708D01*
X195242823Y-104107706D01*
X195242826Y-104107706D01*
X195291836Y-104090555D01*
X195368157Y-104063850D01*
X195474999Y-103984997D01*
X195553852Y-103878155D01*
X195597707Y-103752826D01*
X195597708Y-103752824D01*
X195597709Y-103752819D01*
X195597710Y-103752817D01*
X195599260Y-103736287D01*
X195600500Y-103723068D01*
X195600500Y-103568995D01*
X205889499Y-103568995D01*
X205916418Y-103704322D01*
X205916421Y-103704332D01*
X205969221Y-103831804D01*
X205969228Y-103831817D01*
X206045885Y-103946541D01*
X206045888Y-103946545D01*
X206143454Y-104044111D01*
X206143458Y-104044114D01*
X206258182Y-104120771D01*
X206258195Y-104120778D01*
X206361532Y-104163581D01*
X206385672Y-104173580D01*
X206385676Y-104173580D01*
X206385677Y-104173581D01*
X206521004Y-104200500D01*
X206521007Y-104200500D01*
X206658995Y-104200500D01*
X206750041Y-104182389D01*
X206794328Y-104173580D01*
X206921811Y-104120775D01*
X206921811Y-104120774D01*
X206923829Y-104119939D01*
X206971282Y-104110500D01*
X207213070Y-104110500D01*
X207226289Y-104109260D01*
X207242819Y-104107710D01*
X207242823Y-104107708D01*
X207242826Y-104107708D01*
X207291836Y-104090557D01*
X207368157Y-104063852D01*
X207474999Y-103984999D01*
X207553852Y-103878157D01*
X207597710Y-103752819D01*
X207600500Y-103723066D01*
X207600500Y-103276934D01*
X207600499Y-103276928D01*
X207597710Y-103247185D01*
X207597710Y-103247183D01*
X207597710Y-103247181D01*
X207597708Y-103247177D01*
X207597708Y-103247173D01*
X207553852Y-103121844D01*
X207553852Y-103121843D01*
X207474999Y-103015001D01*
X207368157Y-102936148D01*
X207368155Y-102936147D01*
X207242826Y-102892291D01*
X207242814Y-102892289D01*
X207213070Y-102889500D01*
X207213066Y-102889500D01*
X206971282Y-102889500D01*
X206923829Y-102880061D01*
X206904597Y-102872095D01*
X206794328Y-102826420D01*
X206794322Y-102826418D01*
X206658995Y-102799500D01*
X206658993Y-102799500D01*
X206521007Y-102799500D01*
X206521005Y-102799500D01*
X206385677Y-102826418D01*
X206385667Y-102826421D01*
X206258195Y-102879221D01*
X206258182Y-102879228D01*
X206143458Y-102955885D01*
X206143454Y-102955888D01*
X206045888Y-103053454D01*
X206045885Y-103053458D01*
X205969228Y-103168182D01*
X205969221Y-103168195D01*
X205916421Y-103295667D01*
X205916418Y-103295677D01*
X205889500Y-103431004D01*
X205889500Y-103431007D01*
X205889500Y-103568993D01*
X205889500Y-103568995D01*
X205889499Y-103568995D01*
X195600500Y-103568995D01*
X195600500Y-103276927D01*
X195598950Y-103260402D01*
X195597710Y-103247179D01*
X195597708Y-103247172D01*
X195597708Y-103247171D01*
X195553853Y-103121844D01*
X195553852Y-103121841D01*
X195474999Y-103014999D01*
X195368157Y-102936146D01*
X195368155Y-102936145D01*
X195242826Y-102892289D01*
X195242814Y-102892287D01*
X195213070Y-102889498D01*
X195213066Y-102889498D01*
X194971277Y-102889498D01*
X194923824Y-102880059D01*
X194904597Y-102872095D01*
X194794328Y-102826420D01*
X194794322Y-102826418D01*
X194658995Y-102799500D01*
X194658993Y-102799500D01*
X194521007Y-102799500D01*
X194521005Y-102799500D01*
X194385677Y-102826418D01*
X194385667Y-102826421D01*
X194258195Y-102879221D01*
X194258182Y-102879228D01*
X194143458Y-102955885D01*
X194143454Y-102955888D01*
X194045888Y-103053454D01*
X194045885Y-103053458D01*
X193969228Y-103168182D01*
X193969221Y-103168195D01*
X193916421Y-103295667D01*
X193916418Y-103295677D01*
X193889500Y-103431004D01*
X193889500Y-103431007D01*
X193889500Y-103568993D01*
X193889500Y-103568995D01*
X193889499Y-103568995D01*
X183600500Y-103568995D01*
X183600500Y-103276933D01*
X183600499Y-103276927D01*
X183597710Y-103247184D01*
X183597710Y-103247181D01*
X183597710Y-103247180D01*
X183597708Y-103247173D01*
X183597708Y-103247172D01*
X183566568Y-103158182D01*
X183553852Y-103121842D01*
X183474999Y-103015000D01*
X183368157Y-102936147D01*
X183368155Y-102936146D01*
X183242826Y-102892290D01*
X183242814Y-102892288D01*
X183213070Y-102889499D01*
X183213066Y-102889499D01*
X182971280Y-102889499D01*
X182923828Y-102880060D01*
X182794332Y-102826421D01*
X182794322Y-102826418D01*
X182658995Y-102799500D01*
X182658993Y-102799500D01*
X182521007Y-102799500D01*
X182521005Y-102799500D01*
X182385677Y-102826418D01*
X182385667Y-102826421D01*
X182258195Y-102879221D01*
X182258182Y-102879228D01*
X182143458Y-102955885D01*
X182143454Y-102955888D01*
X182045888Y-103053454D01*
X182045885Y-103053458D01*
X181969228Y-103168182D01*
X181969221Y-103168195D01*
X181916421Y-103295667D01*
X181916418Y-103295677D01*
X181889500Y-103431004D01*
X181889500Y-103431007D01*
X181889500Y-103568993D01*
X181889500Y-103568995D01*
X181889499Y-103568995D01*
X171600500Y-103568995D01*
X171600500Y-103276934D01*
X171600499Y-103276928D01*
X171597710Y-103247185D01*
X171597710Y-103247183D01*
X171597710Y-103247181D01*
X171597708Y-103247177D01*
X171597708Y-103247173D01*
X171553852Y-103121844D01*
X171553852Y-103121843D01*
X171474999Y-103015001D01*
X171368157Y-102936148D01*
X171368155Y-102936147D01*
X171242826Y-102892291D01*
X171242814Y-102892289D01*
X171213070Y-102889500D01*
X171213066Y-102889500D01*
X170971282Y-102889500D01*
X170923829Y-102880061D01*
X170904597Y-102872095D01*
X170794328Y-102826420D01*
X170794322Y-102826418D01*
X170658995Y-102799500D01*
X170658993Y-102799500D01*
X170521007Y-102799500D01*
X170521005Y-102799500D01*
X170385677Y-102826418D01*
X170385667Y-102826421D01*
X170258195Y-102879221D01*
X170258182Y-102879228D01*
X170143458Y-102955885D01*
X170143454Y-102955888D01*
X170045888Y-103053454D01*
X170045885Y-103053458D01*
X169969228Y-103168182D01*
X169969221Y-103168195D01*
X169916421Y-103295667D01*
X169916418Y-103295677D01*
X169889500Y-103431004D01*
X169889500Y-103431007D01*
X169889500Y-103568993D01*
X169889500Y-103568995D01*
X169889499Y-103568995D01*
X159600500Y-103568995D01*
X159600500Y-103276934D01*
X159600499Y-103276928D01*
X159597710Y-103247185D01*
X159597710Y-103247183D01*
X159597710Y-103247181D01*
X159597708Y-103247177D01*
X159597708Y-103247173D01*
X159553852Y-103121844D01*
X159553852Y-103121843D01*
X159474999Y-103015001D01*
X159368157Y-102936148D01*
X159368155Y-102936147D01*
X159242826Y-102892291D01*
X159242814Y-102892289D01*
X159213070Y-102889500D01*
X159213066Y-102889500D01*
X158971282Y-102889500D01*
X158923829Y-102880061D01*
X158904597Y-102872095D01*
X158794328Y-102826420D01*
X158794322Y-102826418D01*
X158658995Y-102799500D01*
X158658993Y-102799500D01*
X158521007Y-102799500D01*
X158521005Y-102799500D01*
X158385677Y-102826418D01*
X158385667Y-102826421D01*
X158258195Y-102879221D01*
X158258182Y-102879228D01*
X158143458Y-102955885D01*
X158143454Y-102955888D01*
X158045888Y-103053454D01*
X158045885Y-103053458D01*
X157969228Y-103168182D01*
X157969221Y-103168195D01*
X157916421Y-103295667D01*
X157916418Y-103295677D01*
X157889500Y-103431004D01*
X157889500Y-103431007D01*
X157889500Y-103568993D01*
X157889500Y-103568995D01*
X157889499Y-103568995D01*
X147600500Y-103568995D01*
X147600500Y-103276933D01*
X147600499Y-103276927D01*
X147597710Y-103247184D01*
X147597710Y-103247181D01*
X147597710Y-103247180D01*
X147597708Y-103247173D01*
X147597708Y-103247172D01*
X147566568Y-103158182D01*
X147553852Y-103121842D01*
X147474999Y-103015000D01*
X147368157Y-102936147D01*
X147368155Y-102936146D01*
X147242826Y-102892290D01*
X147242814Y-102892288D01*
X147213070Y-102889499D01*
X147213066Y-102889499D01*
X146971280Y-102889499D01*
X146923828Y-102880060D01*
X146794332Y-102826421D01*
X146794322Y-102826418D01*
X146658995Y-102799500D01*
X146658993Y-102799500D01*
X146521007Y-102799500D01*
X146521005Y-102799500D01*
X146385677Y-102826418D01*
X146385667Y-102826421D01*
X146258195Y-102879221D01*
X146258182Y-102879228D01*
X146143458Y-102955885D01*
X146143454Y-102955888D01*
X146045888Y-103053454D01*
X146045885Y-103053458D01*
X145969228Y-103168182D01*
X145969221Y-103168195D01*
X145916421Y-103295667D01*
X145916418Y-103295677D01*
X145889500Y-103431004D01*
X145889500Y-103431007D01*
X145889500Y-103568993D01*
X145889500Y-103568995D01*
X145889499Y-103568995D01*
X135600502Y-103568995D01*
X135600502Y-103276934D01*
X135600501Y-103276928D01*
X135597712Y-103247185D01*
X135597712Y-103247183D01*
X135597712Y-103247181D01*
X135597710Y-103247177D01*
X135597710Y-103247173D01*
X135553854Y-103121844D01*
X135553854Y-103121843D01*
X135475001Y-103015001D01*
X135368159Y-102936148D01*
X135368157Y-102936147D01*
X135242828Y-102892291D01*
X135242816Y-102892289D01*
X135213072Y-102889500D01*
X135213068Y-102889500D01*
X134971282Y-102889500D01*
X134923829Y-102880061D01*
X134904597Y-102872095D01*
X134794328Y-102826420D01*
X134794322Y-102826418D01*
X134658995Y-102799500D01*
X134658993Y-102799500D01*
X134521007Y-102799500D01*
X134521005Y-102799500D01*
X134385677Y-102826418D01*
X134385667Y-102826421D01*
X134258195Y-102879221D01*
X134258182Y-102879228D01*
X134143458Y-102955885D01*
X134143454Y-102955888D01*
X134045888Y-103053454D01*
X134045885Y-103053458D01*
X133969228Y-103168182D01*
X133969221Y-103168195D01*
X133916421Y-103295667D01*
X133916418Y-103295677D01*
X133889500Y-103431004D01*
X133889500Y-103431007D01*
X133889500Y-103568993D01*
X133889500Y-103568995D01*
X133889499Y-103568995D01*
X123600500Y-103568995D01*
X123600500Y-103276933D01*
X123600499Y-103276927D01*
X123597710Y-103247184D01*
X123597710Y-103247181D01*
X123597710Y-103247180D01*
X123597708Y-103247173D01*
X123597708Y-103247172D01*
X123566568Y-103158182D01*
X123553852Y-103121842D01*
X123474999Y-103015000D01*
X123368157Y-102936147D01*
X123368155Y-102936146D01*
X123242826Y-102892290D01*
X123242814Y-102892288D01*
X123213070Y-102889499D01*
X123213066Y-102889499D01*
X122971280Y-102889499D01*
X122923828Y-102880060D01*
X122794332Y-102826421D01*
X122794322Y-102826418D01*
X122658995Y-102799500D01*
X122658993Y-102799500D01*
X122521007Y-102799500D01*
X122521005Y-102799500D01*
X122385677Y-102826418D01*
X122385667Y-102826421D01*
X122258195Y-102879221D01*
X122258182Y-102879228D01*
X122143458Y-102955885D01*
X122143454Y-102955888D01*
X122045888Y-103053454D01*
X122045885Y-103053458D01*
X121969228Y-103168182D01*
X121969221Y-103168195D01*
X121916421Y-103295667D01*
X121916418Y-103295677D01*
X121889500Y-103431004D01*
X121889500Y-103431007D01*
X121889500Y-103568993D01*
X121889500Y-103568995D01*
X121889499Y-103568995D01*
X111600500Y-103568995D01*
X111600500Y-103276934D01*
X111600499Y-103276928D01*
X111597710Y-103247185D01*
X111597710Y-103247183D01*
X111597710Y-103247181D01*
X111597708Y-103247177D01*
X111597708Y-103247173D01*
X111553852Y-103121844D01*
X111553852Y-103121843D01*
X111474999Y-103015001D01*
X111368157Y-102936148D01*
X111368155Y-102936147D01*
X111242826Y-102892291D01*
X111242814Y-102892289D01*
X111213070Y-102889500D01*
X111213066Y-102889500D01*
X110999770Y-102889500D01*
X110937630Y-102871253D01*
X110937181Y-102872095D01*
X110933140Y-102869935D01*
X110932731Y-102869815D01*
X110931912Y-102869278D01*
X110931809Y-102869223D01*
X110804332Y-102816421D01*
X110804322Y-102816418D01*
X110668995Y-102789500D01*
X110668993Y-102789500D01*
X110531007Y-102789500D01*
X110531005Y-102789500D01*
X110395677Y-102816418D01*
X110395667Y-102816421D01*
X110268195Y-102869221D01*
X110268182Y-102869228D01*
X110153458Y-102945885D01*
X110153454Y-102945888D01*
X110055888Y-103043454D01*
X110055885Y-103043458D01*
X109979228Y-103158182D01*
X109979221Y-103158195D01*
X109926421Y-103285667D01*
X109926418Y-103285677D01*
X109899500Y-103421004D01*
X109899500Y-103421007D01*
X109899500Y-103558993D01*
X109899500Y-103558995D01*
X109899499Y-103558995D01*
X99600500Y-103558995D01*
X99600500Y-103276934D01*
X99600499Y-103276928D01*
X99597710Y-103247185D01*
X99597710Y-103247183D01*
X99597710Y-103247181D01*
X99597708Y-103247177D01*
X99597708Y-103247173D01*
X99553852Y-103121844D01*
X99553852Y-103121843D01*
X99474999Y-103015001D01*
X99368157Y-102936148D01*
X99368155Y-102936147D01*
X99242826Y-102892291D01*
X99242814Y-102892289D01*
X99213070Y-102889500D01*
X99213066Y-102889500D01*
X98971282Y-102889500D01*
X98923829Y-102880061D01*
X98904597Y-102872095D01*
X98794328Y-102826420D01*
X98794322Y-102826418D01*
X98658995Y-102799500D01*
X98658993Y-102799500D01*
X98521007Y-102799500D01*
X98521005Y-102799500D01*
X98385677Y-102826418D01*
X98385667Y-102826421D01*
X98258195Y-102879221D01*
X98258182Y-102879228D01*
X98143458Y-102955885D01*
X98143454Y-102955888D01*
X98045888Y-103053454D01*
X98045885Y-103053458D01*
X97969228Y-103168182D01*
X97969221Y-103168195D01*
X97916421Y-103295667D01*
X97916418Y-103295677D01*
X97889500Y-103431004D01*
X97889500Y-103431007D01*
X97889500Y-103568993D01*
X97889500Y-103568995D01*
X97889499Y-103568995D01*
X91550500Y-103568995D01*
X91550500Y-100761642D01*
X91570185Y-100694603D01*
X91622989Y-100648848D01*
X91692147Y-100638904D01*
X91755703Y-100667929D01*
X91780617Y-100697493D01*
X91839348Y-100794648D01*
X91839351Y-100794652D01*
X91955347Y-100910648D01*
X91955351Y-100910651D01*
X92095727Y-100995511D01*
X92095730Y-100995512D01*
X92252343Y-101044315D01*
X92320406Y-101050500D01*
X93094874Y-101050500D01*
X93140463Y-101059184D01*
X94526173Y-101607023D01*
X94568264Y-101634657D01*
X94829519Y-101895912D01*
X94829520Y-101895913D01*
X94904087Y-101970480D01*
X94995413Y-102023207D01*
X95097273Y-102050500D01*
X95202727Y-102050500D01*
X95710542Y-102050500D01*
X95777581Y-102070185D01*
X95780227Y-102071933D01*
X96143132Y-102318493D01*
X96151555Y-102325460D01*
X96157604Y-102329854D01*
X96157609Y-102329859D01*
X96267825Y-102386017D01*
X96267826Y-102386017D01*
X96267828Y-102386018D01*
X96302947Y-102391579D01*
X96359265Y-102400500D01*
X97740734Y-102400499D01*
X97740739Y-102400499D01*
X97740739Y-102400498D01*
X97786454Y-102393258D01*
X97832170Y-102386018D01*
X97832171Y-102386018D01*
X97832172Y-102386017D01*
X97832175Y-102386017D01*
X97942391Y-102329859D01*
X98029859Y-102242391D01*
X98086017Y-102132175D01*
X98086017Y-102132173D01*
X98086018Y-102132172D01*
X98086018Y-102132171D01*
X98089901Y-102107650D01*
X98100500Y-102040735D01*
X98100499Y-101259266D01*
X98100499Y-101259265D01*
X98100499Y-101259260D01*
X98086018Y-101167829D01*
X98086018Y-101167828D01*
X98086017Y-101167826D01*
X98086017Y-101167825D01*
X98029859Y-101057609D01*
X98029856Y-101057606D01*
X98029854Y-101057603D01*
X97942396Y-100970145D01*
X97942393Y-100970143D01*
X97942391Y-100970141D01*
X97832175Y-100913983D01*
X97832174Y-100913982D01*
X97832171Y-100913981D01*
X97740735Y-100899500D01*
X96359260Y-100899500D01*
X96359260Y-100899501D01*
X96267829Y-100913981D01*
X96267828Y-100913981D01*
X96157609Y-100970141D01*
X96151567Y-100974531D01*
X96143135Y-100981504D01*
X95780226Y-101228067D01*
X95713712Y-101249459D01*
X95710541Y-101249500D01*
X95367255Y-101249500D01*
X95337814Y-101240855D01*
X95307828Y-101234332D01*
X95302812Y-101230577D01*
X95300216Y-101229815D01*
X95279574Y-101213181D01*
X95224233Y-101157840D01*
X95190748Y-101096517D01*
X95190748Y-101096516D01*
X95189813Y-101048543D01*
X95276835Y-100557091D01*
X95280548Y-100541833D01*
X95294315Y-100497657D01*
X95300500Y-100429594D01*
X95300500Y-99570406D01*
X95294315Y-99502343D01*
X95251981Y-99366490D01*
X95245514Y-99345736D01*
X95245511Y-99345727D01*
X95160651Y-99205351D01*
X95160648Y-99205347D01*
X95044652Y-99089351D01*
X95044648Y-99089348D01*
X94904272Y-99004488D01*
X94904263Y-99004485D01*
X94747664Y-98955687D01*
X94747662Y-98955686D01*
X94747657Y-98955685D01*
X94679594Y-98949500D01*
X92320406Y-98949500D01*
X92252343Y-98955685D01*
X92252339Y-98955686D01*
X92252335Y-98955687D01*
X92095736Y-99004485D01*
X92095727Y-99004488D01*
X91955351Y-99089348D01*
X91955347Y-99089351D01*
X91839351Y-99205347D01*
X91839347Y-99205352D01*
X91780617Y-99302506D01*
X91729090Y-99349694D01*
X91660230Y-99361533D01*
X91595902Y-99334265D01*
X91556527Y-99276546D01*
X91550500Y-99238357D01*
X91550500Y-97761642D01*
X91570185Y-97694603D01*
X91622989Y-97648848D01*
X91692147Y-97638904D01*
X91755703Y-97667929D01*
X91780617Y-97697493D01*
X91839348Y-97794648D01*
X91839351Y-97794652D01*
X91955347Y-97910648D01*
X91955351Y-97910651D01*
X92095727Y-97995511D01*
X92095736Y-97995514D01*
X92116047Y-98001843D01*
X92252343Y-98044315D01*
X92320406Y-98050500D01*
X92320409Y-98050500D01*
X94679591Y-98050500D01*
X94679594Y-98050500D01*
X94747657Y-98044315D01*
X94825963Y-98019913D01*
X94904263Y-97995515D01*
X94904265Y-97995513D01*
X94904270Y-97995512D01*
X94904425Y-97995418D01*
X94911953Y-97991217D01*
X94913617Y-97990362D01*
X94913623Y-97990361D01*
X94974214Y-97959264D01*
X95999500Y-97959264D01*
X95999500Y-98740739D01*
X96013981Y-98832170D01*
X96013981Y-98832171D01*
X96013982Y-98832174D01*
X96013983Y-98832175D01*
X96070140Y-98942390D01*
X96070142Y-98942392D01*
X96070145Y-98942396D01*
X96157603Y-99029854D01*
X96157605Y-99029855D01*
X96157609Y-99029859D01*
X96267825Y-99086017D01*
X96267826Y-99086017D01*
X96267828Y-99086018D01*
X96302947Y-99091579D01*
X96359265Y-99100500D01*
X96745393Y-99100499D01*
X96792845Y-99109938D01*
X96816496Y-99119734D01*
X96816503Y-99119737D01*
X96971148Y-99150498D01*
X96971153Y-99150499D01*
X96971156Y-99150500D01*
X96971158Y-99150500D01*
X97858672Y-99150500D01*
X97882863Y-99152882D01*
X97901459Y-99156581D01*
X97921156Y-99160500D01*
X97921157Y-99160500D01*
X98078844Y-99160500D01*
X98078845Y-99160499D01*
X98233497Y-99129737D01*
X98379179Y-99069393D01*
X98510289Y-98981789D01*
X98621789Y-98870289D01*
X98709393Y-98739179D01*
X98769737Y-98593497D01*
X98800500Y-98438842D01*
X98800500Y-98281157D01*
X98800500Y-98281154D01*
X98769738Y-98126508D01*
X98769737Y-98126507D01*
X98769737Y-98126503D01*
X98718101Y-98001844D01*
X98709392Y-97980818D01*
X98694990Y-97959264D01*
X100899500Y-97959264D01*
X100899500Y-98740739D01*
X100913981Y-98832170D01*
X100913981Y-98832171D01*
X100913982Y-98832174D01*
X100913983Y-98832175D01*
X100970140Y-98942390D01*
X100970142Y-98942392D01*
X100970145Y-98942396D01*
X101057603Y-99029854D01*
X101057605Y-99029855D01*
X101057609Y-99029859D01*
X101167825Y-99086017D01*
X101167826Y-99086017D01*
X101167828Y-99086018D01*
X101202947Y-99091579D01*
X101259265Y-99100500D01*
X101747527Y-99100499D01*
X101778338Y-99104388D01*
X101911540Y-99138557D01*
X102767225Y-99358057D01*
X102824094Y-99390487D01*
X103140132Y-99706525D01*
X103153340Y-99722114D01*
X103692692Y-100476907D01*
X103710188Y-100512109D01*
X103754485Y-100654263D01*
X103754488Y-100654272D01*
X103839348Y-100794648D01*
X103839351Y-100794652D01*
X103955347Y-100910648D01*
X103955351Y-100910651D01*
X104095727Y-100995511D01*
X104095730Y-100995512D01*
X104252343Y-101044315D01*
X104320406Y-101050500D01*
X105094874Y-101050500D01*
X105140463Y-101059184D01*
X106526173Y-101607023D01*
X106568264Y-101634657D01*
X106829519Y-101895912D01*
X106829520Y-101895913D01*
X106904087Y-101970480D01*
X106995413Y-102023207D01*
X107097273Y-102050500D01*
X107202727Y-102050500D01*
X107710542Y-102050500D01*
X107777581Y-102070185D01*
X107780227Y-102071933D01*
X108143132Y-102318493D01*
X108151555Y-102325460D01*
X108157604Y-102329854D01*
X108157609Y-102329859D01*
X108267825Y-102386017D01*
X108267826Y-102386017D01*
X108267828Y-102386018D01*
X108302947Y-102391579D01*
X108359265Y-102400500D01*
X109740734Y-102400499D01*
X109740739Y-102400499D01*
X109740739Y-102400498D01*
X109786454Y-102393258D01*
X109832170Y-102386018D01*
X109832171Y-102386018D01*
X109832172Y-102386017D01*
X109832175Y-102386017D01*
X109942391Y-102329859D01*
X110029859Y-102242391D01*
X110086017Y-102132175D01*
X110086017Y-102132173D01*
X110086018Y-102132172D01*
X110086018Y-102132171D01*
X110089901Y-102107650D01*
X110100500Y-102040735D01*
X110100499Y-101259266D01*
X110100499Y-101259265D01*
X110100499Y-101259260D01*
X110086018Y-101167829D01*
X110086018Y-101167828D01*
X110086017Y-101167826D01*
X110086017Y-101167825D01*
X110029859Y-101057609D01*
X110029856Y-101057606D01*
X110029854Y-101057603D01*
X109942396Y-100970145D01*
X109942393Y-100970143D01*
X109942391Y-100970141D01*
X109832175Y-100913983D01*
X109832174Y-100913982D01*
X109832171Y-100913981D01*
X109740735Y-100899500D01*
X108359260Y-100899500D01*
X108359260Y-100899501D01*
X108267829Y-100913981D01*
X108267828Y-100913981D01*
X108157609Y-100970141D01*
X108151567Y-100974531D01*
X108143135Y-100981504D01*
X107780226Y-101228067D01*
X107713712Y-101249459D01*
X107710541Y-101249500D01*
X107367255Y-101249500D01*
X107337814Y-101240855D01*
X107307828Y-101234332D01*
X107302812Y-101230577D01*
X107300216Y-101229815D01*
X107279574Y-101213181D01*
X107224233Y-101157840D01*
X107190748Y-101096517D01*
X107190748Y-101096516D01*
X107189813Y-101048543D01*
X107276835Y-100557091D01*
X107280548Y-100541833D01*
X107294315Y-100497657D01*
X107300500Y-100429594D01*
X107300500Y-99570406D01*
X107294315Y-99502343D01*
X107251981Y-99366490D01*
X107245514Y-99345736D01*
X107245511Y-99345727D01*
X107160651Y-99205351D01*
X107160648Y-99205347D01*
X107044652Y-99089351D01*
X107044648Y-99089348D01*
X106904272Y-99004488D01*
X106904263Y-99004485D01*
X106747664Y-98955687D01*
X106747662Y-98955686D01*
X106747657Y-98955685D01*
X106679594Y-98949500D01*
X104320406Y-98949500D01*
X104294882Y-98951819D01*
X104252338Y-98955685D01*
X104215626Y-98967125D01*
X104200525Y-98970810D01*
X103701368Y-99059897D01*
X103631912Y-99052297D01*
X103591900Y-99025507D01*
X103353635Y-98787242D01*
X103334515Y-98762565D01*
X103017698Y-98225508D01*
X103000499Y-98162504D01*
X103000499Y-97959260D01*
X102986018Y-97867829D01*
X102986018Y-97867828D01*
X102986017Y-97867826D01*
X102986017Y-97867825D01*
X102929859Y-97757609D01*
X102929856Y-97757606D01*
X102929854Y-97757603D01*
X102842396Y-97670145D01*
X102842393Y-97670143D01*
X102842391Y-97670141D01*
X102732175Y-97613983D01*
X102732174Y-97613982D01*
X102732171Y-97613981D01*
X102640735Y-97599500D01*
X101259260Y-97599500D01*
X101259260Y-97599501D01*
X101167829Y-97613981D01*
X101167828Y-97613981D01*
X101057607Y-97670142D01*
X101057603Y-97670145D01*
X100970145Y-97757603D01*
X100970143Y-97757607D01*
X100970141Y-97757609D01*
X100957304Y-97782803D01*
X100913981Y-97867827D01*
X100913981Y-97867828D01*
X100899500Y-97959264D01*
X98694990Y-97959264D01*
X98621790Y-97849712D01*
X98621784Y-97849705D01*
X98500292Y-97728213D01*
X98500288Y-97728210D01*
X98369185Y-97640609D01*
X98369172Y-97640602D01*
X98223501Y-97580264D01*
X98223489Y-97580261D01*
X98068845Y-97549500D01*
X98068842Y-97549500D01*
X96971158Y-97549500D01*
X96971156Y-97549500D01*
X96816505Y-97580262D01*
X96816502Y-97580263D01*
X96792845Y-97590062D01*
X96745394Y-97599500D01*
X96359260Y-97599500D01*
X96359260Y-97599501D01*
X96267829Y-97613981D01*
X96267828Y-97613981D01*
X96157607Y-97670142D01*
X96157603Y-97670145D01*
X96070145Y-97757603D01*
X96070143Y-97757607D01*
X96070141Y-97757609D01*
X96057304Y-97782803D01*
X96013981Y-97867827D01*
X96013981Y-97867828D01*
X95999500Y-97959264D01*
X94974214Y-97959264D01*
X95271126Y-97806879D01*
X95303538Y-97795586D01*
X95433497Y-97769737D01*
X95562102Y-97716467D01*
X95579172Y-97709397D01*
X95579172Y-97709396D01*
X95579179Y-97709394D01*
X95710289Y-97621789D01*
X95821789Y-97510289D01*
X95909394Y-97379179D01*
X95969737Y-97233497D01*
X96000500Y-97078842D01*
X96000500Y-96921158D01*
X96000500Y-96921157D01*
X96000500Y-96921155D01*
X96000499Y-96921153D01*
X95969738Y-96766510D01*
X95969738Y-96766509D01*
X95969737Y-96766503D01*
X95927068Y-96663489D01*
X95909395Y-96620822D01*
X95909393Y-96620818D01*
X95875708Y-96570406D01*
X103699500Y-96570406D01*
X103699500Y-97429594D01*
X103705685Y-97497657D01*
X103705686Y-97497662D01*
X103705687Y-97497664D01*
X103754485Y-97654263D01*
X103754488Y-97654272D01*
X103839348Y-97794648D01*
X103839351Y-97794652D01*
X103955347Y-97910648D01*
X103955351Y-97910651D01*
X104095727Y-97995511D01*
X104095736Y-97995514D01*
X104116047Y-98001843D01*
X104252343Y-98044315D01*
X104320406Y-98050500D01*
X104320409Y-98050500D01*
X106679591Y-98050500D01*
X106679594Y-98050500D01*
X106747657Y-98044315D01*
X106904270Y-97995512D01*
X106904274Y-97995510D01*
X106964232Y-97959264D01*
X107999500Y-97959264D01*
X107999500Y-98740739D01*
X108013981Y-98832170D01*
X108013981Y-98832171D01*
X108013982Y-98832174D01*
X108013983Y-98832175D01*
X108070140Y-98942390D01*
X108070142Y-98942392D01*
X108070145Y-98942396D01*
X108157603Y-99029854D01*
X108157605Y-99029855D01*
X108157609Y-99029859D01*
X108267825Y-99086017D01*
X108267826Y-99086017D01*
X108267828Y-99086018D01*
X108302947Y-99091579D01*
X108359265Y-99100500D01*
X108745393Y-99100499D01*
X108792845Y-99109938D01*
X108816496Y-99119734D01*
X108816503Y-99119737D01*
X108971148Y-99150498D01*
X108971153Y-99150499D01*
X108971156Y-99150500D01*
X108971158Y-99150500D01*
X110088844Y-99150500D01*
X110088845Y-99150499D01*
X110243497Y-99119737D01*
X110389179Y-99059394D01*
X110520289Y-98971789D01*
X110631789Y-98860289D01*
X110719394Y-98729179D01*
X110779737Y-98583497D01*
X110810500Y-98428842D01*
X110810500Y-98271158D01*
X110810500Y-98271156D01*
X110810500Y-98271155D01*
X110810499Y-98271153D01*
X110804863Y-98242817D01*
X110779737Y-98116503D01*
X110775595Y-98106503D01*
X110732245Y-98001845D01*
X110732245Y-98001844D01*
X110719397Y-97970827D01*
X110719390Y-97970814D01*
X110711672Y-97959264D01*
X112899500Y-97959264D01*
X112899500Y-98740739D01*
X112913981Y-98832170D01*
X112913981Y-98832171D01*
X112913982Y-98832174D01*
X112913983Y-98832175D01*
X112970140Y-98942390D01*
X112970142Y-98942392D01*
X112970145Y-98942396D01*
X113057603Y-99029854D01*
X113057605Y-99029855D01*
X113057609Y-99029859D01*
X113167825Y-99086017D01*
X113167826Y-99086017D01*
X113167828Y-99086018D01*
X113202947Y-99091579D01*
X113259265Y-99100500D01*
X113747527Y-99100499D01*
X113778338Y-99104388D01*
X113911540Y-99138557D01*
X114767225Y-99358057D01*
X114824094Y-99390487D01*
X115140126Y-99706519D01*
X115153334Y-99722107D01*
X115692692Y-100476908D01*
X115710188Y-100512110D01*
X115754486Y-100654264D01*
X115754488Y-100654271D01*
X115839348Y-100794647D01*
X115839351Y-100794651D01*
X115955347Y-100910647D01*
X115955351Y-100910650D01*
X116095727Y-100995510D01*
X116095736Y-100995513D01*
X116127751Y-101005489D01*
X116252343Y-101044314D01*
X116320406Y-101050499D01*
X117094874Y-101050499D01*
X117140463Y-101059183D01*
X118526173Y-101607022D01*
X118568264Y-101634656D01*
X118829519Y-101895911D01*
X118829520Y-101895912D01*
X118904087Y-101970479D01*
X118995413Y-102023206D01*
X119097273Y-102050499D01*
X119202727Y-102050499D01*
X119710542Y-102050499D01*
X119777581Y-102070184D01*
X119780227Y-102071932D01*
X120143132Y-102318492D01*
X120151555Y-102325459D01*
X120157604Y-102329853D01*
X120157609Y-102329858D01*
X120267825Y-102386016D01*
X120267826Y-102386016D01*
X120267828Y-102386017D01*
X120302947Y-102391578D01*
X120359265Y-102400499D01*
X121740734Y-102400498D01*
X121740739Y-102400498D01*
X121740739Y-102400497D01*
X121786454Y-102393257D01*
X121832170Y-102386017D01*
X121832171Y-102386017D01*
X121832172Y-102386016D01*
X121832175Y-102386016D01*
X121942391Y-102329858D01*
X122029859Y-102242390D01*
X122086017Y-102132174D01*
X122086017Y-102132172D01*
X122086018Y-102132171D01*
X122086018Y-102132170D01*
X122095558Y-102071933D01*
X122100500Y-102040734D01*
X122100499Y-101259265D01*
X122100499Y-101259259D01*
X122086018Y-101167828D01*
X122086018Y-101167827D01*
X122086017Y-101167825D01*
X122086017Y-101167824D01*
X122029859Y-101057608D01*
X122029857Y-101057606D01*
X122029854Y-101057602D01*
X121942396Y-100970144D01*
X121942393Y-100970142D01*
X121942391Y-100970140D01*
X121832175Y-100913982D01*
X121832174Y-100913981D01*
X121832171Y-100913980D01*
X121740735Y-100899499D01*
X120359260Y-100899499D01*
X120359260Y-100899500D01*
X120267829Y-100913980D01*
X120267828Y-100913980D01*
X120157609Y-100970140D01*
X120151567Y-100974530D01*
X120143135Y-100981503D01*
X119780226Y-101228066D01*
X119713712Y-101249458D01*
X119710541Y-101249499D01*
X119367255Y-101249499D01*
X119337814Y-101240854D01*
X119307828Y-101234331D01*
X119302812Y-101230576D01*
X119300216Y-101229814D01*
X119279574Y-101213180D01*
X119224233Y-101157839D01*
X119190748Y-101096516D01*
X119189813Y-101048542D01*
X119276835Y-100557090D01*
X119280551Y-100541824D01*
X119294315Y-100497656D01*
X119300500Y-100429593D01*
X119300500Y-99570405D01*
X119294315Y-99502342D01*
X119245512Y-99345729D01*
X119245511Y-99345727D01*
X119245511Y-99345726D01*
X119160651Y-99205350D01*
X119160648Y-99205346D01*
X119044652Y-99089350D01*
X119044648Y-99089347D01*
X118904272Y-99004487D01*
X118904263Y-99004484D01*
X118747664Y-98955686D01*
X118747662Y-98955685D01*
X118747657Y-98955684D01*
X118679594Y-98949499D01*
X116320406Y-98949499D01*
X116294882Y-98951818D01*
X116252338Y-98955684D01*
X116215626Y-98967124D01*
X116200525Y-98970809D01*
X115701368Y-99059897D01*
X115631913Y-99052298D01*
X115591900Y-99025507D01*
X115353635Y-98787242D01*
X115334515Y-98762565D01*
X115017698Y-98225508D01*
X115000499Y-98162504D01*
X115000499Y-97959260D01*
X114986018Y-97867829D01*
X114986018Y-97867828D01*
X114986017Y-97867826D01*
X114986017Y-97867825D01*
X114929859Y-97757609D01*
X114929856Y-97757606D01*
X114929854Y-97757603D01*
X114842396Y-97670145D01*
X114842393Y-97670143D01*
X114842391Y-97670141D01*
X114732175Y-97613983D01*
X114732174Y-97613982D01*
X114732171Y-97613981D01*
X114640735Y-97599500D01*
X113259260Y-97599500D01*
X113259260Y-97599501D01*
X113167829Y-97613981D01*
X113167828Y-97613981D01*
X113057607Y-97670142D01*
X113057603Y-97670145D01*
X112970145Y-97757603D01*
X112970143Y-97757607D01*
X112970141Y-97757609D01*
X112957304Y-97782803D01*
X112913981Y-97867827D01*
X112913981Y-97867828D01*
X112899500Y-97959264D01*
X110711672Y-97959264D01*
X110631789Y-97839711D01*
X110631786Y-97839707D01*
X110520292Y-97728213D01*
X110520288Y-97728210D01*
X110389185Y-97640609D01*
X110389172Y-97640602D01*
X110243501Y-97580264D01*
X110243489Y-97580261D01*
X110088845Y-97549500D01*
X110088842Y-97549500D01*
X108971158Y-97549500D01*
X108971156Y-97549500D01*
X108816505Y-97580262D01*
X108816502Y-97580263D01*
X108792845Y-97590062D01*
X108745394Y-97599500D01*
X108359260Y-97599500D01*
X108359260Y-97599501D01*
X108267829Y-97613981D01*
X108267828Y-97613981D01*
X108157607Y-97670142D01*
X108157603Y-97670145D01*
X108070145Y-97757603D01*
X108070143Y-97757607D01*
X108070141Y-97757609D01*
X108057304Y-97782803D01*
X108013981Y-97867827D01*
X108013981Y-97867828D01*
X107999500Y-97959264D01*
X106964232Y-97959264D01*
X107044648Y-97910651D01*
X107044647Y-97910651D01*
X107044653Y-97910648D01*
X107147065Y-97808236D01*
X107208388Y-97774751D01*
X107210495Y-97774311D01*
X107233497Y-97769737D01*
X107362102Y-97716467D01*
X107379172Y-97709397D01*
X107379172Y-97709396D01*
X107379179Y-97709394D01*
X107510289Y-97621789D01*
X107621789Y-97510289D01*
X107709394Y-97379179D01*
X107769737Y-97233497D01*
X107800500Y-97078842D01*
X107800500Y-96921158D01*
X107800500Y-96921157D01*
X107800500Y-96921155D01*
X107800499Y-96921153D01*
X107769738Y-96766510D01*
X107769738Y-96766509D01*
X107769737Y-96766503D01*
X107727068Y-96663489D01*
X107709394Y-96620820D01*
X107675707Y-96570405D01*
X115699500Y-96570405D01*
X115699500Y-97429593D01*
X115705685Y-97497656D01*
X115705686Y-97497658D01*
X115705687Y-97497663D01*
X115754485Y-97654262D01*
X115754488Y-97654271D01*
X115839348Y-97794647D01*
X115839351Y-97794651D01*
X115955347Y-97910647D01*
X115955351Y-97910650D01*
X116095727Y-97995510D01*
X116095736Y-97995513D01*
X116116117Y-98001864D01*
X116252343Y-98044314D01*
X116320406Y-98050499D01*
X116320409Y-98050499D01*
X118679591Y-98050499D01*
X118679594Y-98050499D01*
X118747657Y-98044314D01*
X118904270Y-97995511D01*
X118911374Y-97991217D01*
X118964232Y-97959263D01*
X119999500Y-97959263D01*
X119999500Y-98740738D01*
X120013981Y-98832169D01*
X120013981Y-98832170D01*
X120013982Y-98832173D01*
X120013983Y-98832174D01*
X120068662Y-98939488D01*
X120070142Y-98942391D01*
X120070145Y-98942395D01*
X120157603Y-99029853D01*
X120157605Y-99029854D01*
X120157609Y-99029858D01*
X120267825Y-99086016D01*
X120267826Y-99086016D01*
X120267828Y-99086017D01*
X120302947Y-99091578D01*
X120359265Y-99100499D01*
X120745392Y-99100498D01*
X120792844Y-99109937D01*
X120816497Y-99119734D01*
X120816502Y-99119736D01*
X120971152Y-99150498D01*
X120971154Y-99150499D01*
X120971157Y-99150499D01*
X122088841Y-99150500D01*
X122243496Y-99119737D01*
X122389178Y-99059394D01*
X122520288Y-98971790D01*
X122631788Y-98860290D01*
X122719394Y-98729180D01*
X122779737Y-98583498D01*
X122810500Y-98428843D01*
X122810500Y-98271159D01*
X122810500Y-98271158D01*
X122810500Y-98271156D01*
X122810499Y-98271154D01*
X122781726Y-98126503D01*
X122779737Y-98116504D01*
X122775597Y-98106510D01*
X122732252Y-98001864D01*
X122732244Y-98001845D01*
X122723539Y-97980829D01*
X122719394Y-97970822D01*
X122712710Y-97960819D01*
X122711670Y-97959263D01*
X124899500Y-97959263D01*
X124899500Y-98740738D01*
X124913981Y-98832169D01*
X124913981Y-98832170D01*
X124913982Y-98832173D01*
X124913983Y-98832174D01*
X124968662Y-98939488D01*
X124970142Y-98942391D01*
X124970145Y-98942395D01*
X125057603Y-99029853D01*
X125057605Y-99029854D01*
X125057609Y-99029858D01*
X125167825Y-99086016D01*
X125167826Y-99086016D01*
X125167828Y-99086017D01*
X125202947Y-99091578D01*
X125259265Y-99100499D01*
X125712416Y-99100498D01*
X125753411Y-99107471D01*
X126708290Y-99442017D01*
X126754968Y-99471360D01*
X127104276Y-99820668D01*
X127120762Y-99842752D01*
X127121288Y-99842401D01*
X127124471Y-99847161D01*
X127723821Y-100585550D01*
X127745929Y-100626802D01*
X127754489Y-100654270D01*
X127754491Y-100654274D01*
X127839349Y-100794648D01*
X127839352Y-100794652D01*
X127955348Y-100910648D01*
X127955352Y-100910651D01*
X128095728Y-100995511D01*
X128095731Y-100995512D01*
X128252344Y-101044315D01*
X128320407Y-101050500D01*
X129094875Y-101050500D01*
X129140464Y-101059184D01*
X130526174Y-101607023D01*
X130568265Y-101634657D01*
X130829520Y-101895912D01*
X130829521Y-101895913D01*
X130904088Y-101970480D01*
X130995414Y-102023207D01*
X131097274Y-102050500D01*
X131202728Y-102050500D01*
X131710543Y-102050500D01*
X131777582Y-102070185D01*
X131780228Y-102071933D01*
X132143133Y-102318493D01*
X132151556Y-102325460D01*
X132157605Y-102329854D01*
X132157610Y-102329859D01*
X132267826Y-102386017D01*
X132267827Y-102386017D01*
X132267829Y-102386018D01*
X132302948Y-102391579D01*
X132359266Y-102400500D01*
X133740735Y-102400499D01*
X133740740Y-102400499D01*
X133740740Y-102400498D01*
X133786455Y-102393258D01*
X133832171Y-102386018D01*
X133832172Y-102386018D01*
X133832173Y-102386017D01*
X133832176Y-102386017D01*
X133942392Y-102329859D01*
X134029860Y-102242391D01*
X134086018Y-102132175D01*
X134086018Y-102132173D01*
X134086019Y-102132172D01*
X134086019Y-102132171D01*
X134089902Y-102107650D01*
X134100501Y-102040735D01*
X134100500Y-101259266D01*
X134100500Y-101259265D01*
X134100500Y-101259260D01*
X134086019Y-101167829D01*
X134086019Y-101167828D01*
X134086018Y-101167826D01*
X134086018Y-101167825D01*
X134029860Y-101057609D01*
X134029857Y-101057606D01*
X134029855Y-101057603D01*
X133942397Y-100970145D01*
X133942394Y-100970143D01*
X133942392Y-100970141D01*
X133832176Y-100913983D01*
X133832175Y-100913982D01*
X133832172Y-100913981D01*
X133740736Y-100899500D01*
X132359261Y-100899500D01*
X132359261Y-100899501D01*
X132267830Y-100913981D01*
X132267829Y-100913981D01*
X132157610Y-100970141D01*
X132151568Y-100974531D01*
X132143136Y-100981504D01*
X131780227Y-101228067D01*
X131713713Y-101249459D01*
X131710542Y-101249500D01*
X131367256Y-101249500D01*
X131337815Y-101240855D01*
X131307829Y-101234332D01*
X131302813Y-101230577D01*
X131300217Y-101229815D01*
X131279575Y-101213181D01*
X131224234Y-101157840D01*
X131190749Y-101096517D01*
X131190749Y-101096516D01*
X131189814Y-101048543D01*
X131276836Y-100557091D01*
X131280549Y-100541833D01*
X131294316Y-100497657D01*
X131300501Y-100429594D01*
X131300501Y-99570406D01*
X131294316Y-99502343D01*
X131251982Y-99366490D01*
X131245515Y-99345736D01*
X131245512Y-99345727D01*
X131160652Y-99205351D01*
X131160649Y-99205347D01*
X131044653Y-99089351D01*
X131044649Y-99089348D01*
X130904273Y-99004488D01*
X130904264Y-99004485D01*
X130747665Y-98955687D01*
X130747663Y-98955686D01*
X130747658Y-98955685D01*
X130679595Y-98949500D01*
X128320407Y-98949500D01*
X128252344Y-98955685D01*
X128200661Y-98971790D01*
X128166349Y-98982482D01*
X128143586Y-98987289D01*
X128136709Y-98988077D01*
X128136706Y-98988077D01*
X128136705Y-98988078D01*
X128001110Y-99029857D01*
X127648320Y-99138557D01*
X127578457Y-99139485D01*
X127524127Y-99107735D01*
X127306432Y-98890040D01*
X127282405Y-98856185D01*
X127012791Y-98296645D01*
X127000499Y-98242819D01*
X127000499Y-97959259D01*
X126986018Y-97867828D01*
X126986018Y-97867827D01*
X126986017Y-97867825D01*
X126986017Y-97867824D01*
X126929859Y-97757608D01*
X126929857Y-97757606D01*
X126929854Y-97757602D01*
X126842396Y-97670144D01*
X126842393Y-97670142D01*
X126842391Y-97670140D01*
X126732175Y-97613982D01*
X126732174Y-97613981D01*
X126732171Y-97613980D01*
X126640735Y-97599499D01*
X125259260Y-97599499D01*
X125259260Y-97599500D01*
X125167829Y-97613980D01*
X125167828Y-97613980D01*
X125057607Y-97670141D01*
X125057603Y-97670144D01*
X124970145Y-97757602D01*
X124970143Y-97757606D01*
X124970141Y-97757608D01*
X124951421Y-97794346D01*
X124913981Y-97867826D01*
X124913981Y-97867827D01*
X124899500Y-97959263D01*
X122711670Y-97959263D01*
X122631791Y-97839713D01*
X122631785Y-97839706D01*
X122520293Y-97728214D01*
X122520289Y-97728211D01*
X122389177Y-97640604D01*
X122389175Y-97640603D01*
X122243502Y-97580264D01*
X122243490Y-97580261D01*
X122088847Y-97549500D01*
X122088845Y-97549499D01*
X120971156Y-97549499D01*
X120816506Y-97580261D01*
X120816503Y-97580262D01*
X120792846Y-97590061D01*
X120745395Y-97599499D01*
X120359260Y-97599499D01*
X120359260Y-97599500D01*
X120267829Y-97613980D01*
X120267828Y-97613980D01*
X120157607Y-97670141D01*
X120157603Y-97670144D01*
X120070145Y-97757602D01*
X120070143Y-97757606D01*
X120070141Y-97757608D01*
X120051421Y-97794346D01*
X120013981Y-97867826D01*
X120013981Y-97867827D01*
X119999500Y-97959263D01*
X118964232Y-97959263D01*
X119044648Y-97910650D01*
X119044647Y-97910650D01*
X119044653Y-97910647D01*
X119147064Y-97808236D01*
X119208387Y-97774751D01*
X119210494Y-97774312D01*
X119233497Y-97769737D01*
X119379179Y-97709393D01*
X119510289Y-97621788D01*
X119621788Y-97510289D01*
X119709393Y-97379179D01*
X119769737Y-97233497D01*
X119800500Y-97078842D01*
X119800500Y-96921157D01*
X119800500Y-96921155D01*
X119800500Y-96921154D01*
X119800499Y-96921152D01*
X119769737Y-96766502D01*
X119727067Y-96663489D01*
X119709393Y-96620820D01*
X119709353Y-96620761D01*
X119709352Y-96620757D01*
X119675709Y-96570407D01*
X127699500Y-96570407D01*
X127699500Y-97429595D01*
X127705685Y-97497658D01*
X127705686Y-97497663D01*
X127705687Y-97497665D01*
X127754485Y-97654264D01*
X127754488Y-97654273D01*
X127839348Y-97794649D01*
X127839351Y-97794653D01*
X127955347Y-97910649D01*
X127955351Y-97910652D01*
X128095727Y-97995512D01*
X128095736Y-97995515D01*
X128116047Y-98001844D01*
X128252343Y-98044316D01*
X128320406Y-98050501D01*
X128320409Y-98050501D01*
X130679591Y-98050501D01*
X130679594Y-98050501D01*
X130747657Y-98044316D01*
X130904270Y-97995513D01*
X130904274Y-97995511D01*
X130964234Y-97959264D01*
X131999501Y-97959264D01*
X131999501Y-98740739D01*
X132013982Y-98832170D01*
X132013982Y-98832171D01*
X132013983Y-98832174D01*
X132013984Y-98832175D01*
X132070141Y-98942390D01*
X132070143Y-98942392D01*
X132070146Y-98942396D01*
X132157604Y-99029854D01*
X132157606Y-99029855D01*
X132157610Y-99029859D01*
X132267826Y-99086017D01*
X132267827Y-99086017D01*
X132267829Y-99086018D01*
X132302948Y-99091579D01*
X132359266Y-99100500D01*
X132745394Y-99100499D01*
X132792846Y-99109938D01*
X132816497Y-99119734D01*
X132816504Y-99119737D01*
X132971149Y-99150498D01*
X132971154Y-99150499D01*
X132971157Y-99150500D01*
X132971159Y-99150500D01*
X133868672Y-99150500D01*
X133892863Y-99152882D01*
X133911459Y-99156581D01*
X133931156Y-99160500D01*
X133931157Y-99160500D01*
X134088844Y-99160500D01*
X134088845Y-99160499D01*
X134243497Y-99129737D01*
X134389179Y-99069393D01*
X134520289Y-98981789D01*
X134631789Y-98870289D01*
X134719393Y-98739179D01*
X134779737Y-98593497D01*
X134810500Y-98438842D01*
X134810500Y-98281157D01*
X134810500Y-98281154D01*
X134779738Y-98126508D01*
X134779737Y-98126507D01*
X134779737Y-98126503D01*
X134728101Y-98001844D01*
X134719392Y-97980818D01*
X134704990Y-97959264D01*
X136899501Y-97959264D01*
X136899501Y-98740739D01*
X136913982Y-98832170D01*
X136913982Y-98832171D01*
X136913983Y-98832174D01*
X136913984Y-98832175D01*
X136970141Y-98942390D01*
X136970143Y-98942392D01*
X136970146Y-98942396D01*
X137057604Y-99029854D01*
X137057606Y-99029855D01*
X137057610Y-99029859D01*
X137167826Y-99086017D01*
X137167827Y-99086017D01*
X137167829Y-99086018D01*
X137202948Y-99091579D01*
X137259266Y-99100500D01*
X137712417Y-99100499D01*
X137753417Y-99107474D01*
X138708287Y-99442017D01*
X138754968Y-99471361D01*
X139104281Y-99820674D01*
X139120763Y-99842754D01*
X139121291Y-99842402D01*
X139124476Y-99847165D01*
X139216420Y-99960438D01*
X139723821Y-100585549D01*
X139745928Y-100626800D01*
X139754488Y-100654269D01*
X139754489Y-100654272D01*
X139839348Y-100794648D01*
X139839351Y-100794652D01*
X139955347Y-100910648D01*
X139955351Y-100910651D01*
X140095727Y-100995511D01*
X140095730Y-100995512D01*
X140252343Y-101044315D01*
X140320406Y-101050500D01*
X141094874Y-101050500D01*
X141140463Y-101059184D01*
X142526173Y-101607023D01*
X142568264Y-101634657D01*
X142829519Y-101895912D01*
X142829520Y-101895913D01*
X142904087Y-101970480D01*
X142995413Y-102023207D01*
X143097273Y-102050500D01*
X143202727Y-102050500D01*
X143710542Y-102050500D01*
X143777581Y-102070185D01*
X143780227Y-102071933D01*
X144143132Y-102318493D01*
X144151555Y-102325460D01*
X144157604Y-102329854D01*
X144157609Y-102329859D01*
X144267825Y-102386017D01*
X144267826Y-102386017D01*
X144267828Y-102386018D01*
X144302947Y-102391579D01*
X144359265Y-102400500D01*
X145740734Y-102400499D01*
X145740739Y-102400499D01*
X145740739Y-102400498D01*
X145786454Y-102393258D01*
X145832170Y-102386018D01*
X145832171Y-102386018D01*
X145832172Y-102386017D01*
X145832175Y-102386017D01*
X145942391Y-102329859D01*
X146029859Y-102242391D01*
X146086017Y-102132175D01*
X146086017Y-102132173D01*
X146086018Y-102132172D01*
X146086018Y-102132171D01*
X146089901Y-102107650D01*
X146100500Y-102040735D01*
X146100499Y-101259266D01*
X146100499Y-101259265D01*
X146100499Y-101259260D01*
X146086018Y-101167829D01*
X146086018Y-101167828D01*
X146086017Y-101167826D01*
X146086017Y-101167825D01*
X146029859Y-101057609D01*
X146029856Y-101057606D01*
X146029854Y-101057603D01*
X145942396Y-100970145D01*
X145942393Y-100970143D01*
X145942391Y-100970141D01*
X145832175Y-100913983D01*
X145832174Y-100913982D01*
X145832171Y-100913981D01*
X145740735Y-100899500D01*
X144359260Y-100899500D01*
X144359260Y-100899501D01*
X144267829Y-100913981D01*
X144267828Y-100913981D01*
X144157609Y-100970141D01*
X144151567Y-100974531D01*
X144143135Y-100981504D01*
X143780226Y-101228067D01*
X143713712Y-101249459D01*
X143710541Y-101249500D01*
X143367255Y-101249500D01*
X143337814Y-101240855D01*
X143307828Y-101234332D01*
X143302812Y-101230577D01*
X143300216Y-101229815D01*
X143279574Y-101213181D01*
X143224233Y-101157840D01*
X143190748Y-101096517D01*
X143190748Y-101096516D01*
X143189813Y-101048543D01*
X143276835Y-100557091D01*
X143280548Y-100541833D01*
X143294315Y-100497657D01*
X143300500Y-100429594D01*
X143300500Y-99570406D01*
X143294315Y-99502343D01*
X143251981Y-99366490D01*
X143245514Y-99345736D01*
X143245511Y-99345727D01*
X143160651Y-99205351D01*
X143160648Y-99205347D01*
X143044652Y-99089351D01*
X143044648Y-99089348D01*
X142904272Y-99004488D01*
X142904263Y-99004485D01*
X142747664Y-98955687D01*
X142747662Y-98955686D01*
X142747657Y-98955685D01*
X142679594Y-98949500D01*
X140320406Y-98949500D01*
X140252343Y-98955685D01*
X140200660Y-98971790D01*
X140166348Y-98982482D01*
X140143585Y-98987289D01*
X140136703Y-98988078D01*
X139648320Y-99138556D01*
X139578457Y-99139484D01*
X139524127Y-99107734D01*
X139306433Y-98890040D01*
X139282406Y-98856186D01*
X139270834Y-98832171D01*
X139081311Y-98438847D01*
X139012792Y-98296647D01*
X139000500Y-98242820D01*
X139000500Y-97959260D01*
X138986019Y-97867829D01*
X138986019Y-97867828D01*
X138986018Y-97867826D01*
X138986018Y-97867825D01*
X138929860Y-97757609D01*
X138929857Y-97757606D01*
X138929855Y-97757603D01*
X138842397Y-97670145D01*
X138842394Y-97670143D01*
X138842392Y-97670141D01*
X138732176Y-97613983D01*
X138732175Y-97613982D01*
X138732172Y-97613981D01*
X138640736Y-97599500D01*
X137259261Y-97599500D01*
X137259261Y-97599501D01*
X137167830Y-97613981D01*
X137167829Y-97613981D01*
X137057608Y-97670142D01*
X137057604Y-97670145D01*
X136970146Y-97757603D01*
X136970144Y-97757607D01*
X136970142Y-97757609D01*
X136957305Y-97782803D01*
X136913982Y-97867827D01*
X136913982Y-97867828D01*
X136899501Y-97959264D01*
X134704990Y-97959264D01*
X134631790Y-97849712D01*
X134631784Y-97849705D01*
X134510292Y-97728213D01*
X134510288Y-97728210D01*
X134379185Y-97640609D01*
X134379172Y-97640602D01*
X134233501Y-97580264D01*
X134233489Y-97580261D01*
X134078845Y-97549500D01*
X134078842Y-97549500D01*
X132971159Y-97549500D01*
X132971157Y-97549500D01*
X132816506Y-97580262D01*
X132816503Y-97580263D01*
X132792846Y-97590062D01*
X132745395Y-97599500D01*
X132359261Y-97599500D01*
X132359261Y-97599501D01*
X132267830Y-97613981D01*
X132267829Y-97613981D01*
X132157608Y-97670142D01*
X132157604Y-97670145D01*
X132070146Y-97757603D01*
X132070144Y-97757607D01*
X132070142Y-97757609D01*
X132057305Y-97782803D01*
X132013982Y-97867827D01*
X132013982Y-97867828D01*
X131999501Y-97959264D01*
X130964234Y-97959264D01*
X131044648Y-97910652D01*
X131044647Y-97910652D01*
X131044653Y-97910649D01*
X131147065Y-97808237D01*
X131208388Y-97774752D01*
X131210487Y-97774314D01*
X131233496Y-97769738D01*
X131379178Y-97709395D01*
X131510288Y-97621790D01*
X131621788Y-97510290D01*
X131668561Y-97440289D01*
X131709393Y-97379180D01*
X131738386Y-97309185D01*
X131746130Y-97290490D01*
X131753044Y-97273797D01*
X131769737Y-97233498D01*
X131800500Y-97078843D01*
X131800500Y-96921158D01*
X131800500Y-96921157D01*
X131800500Y-96921155D01*
X131800499Y-96921153D01*
X131769738Y-96766510D01*
X131769738Y-96766509D01*
X131769737Y-96766503D01*
X131709393Y-96620821D01*
X131709388Y-96620814D01*
X131675707Y-96570407D01*
X139699500Y-96570407D01*
X139699500Y-97429595D01*
X139705685Y-97497658D01*
X139705686Y-97497663D01*
X139705687Y-97497665D01*
X139754485Y-97654264D01*
X139754488Y-97654273D01*
X139839348Y-97794649D01*
X139839351Y-97794653D01*
X139955347Y-97910649D01*
X139955351Y-97910652D01*
X140095727Y-97995512D01*
X140095736Y-97995515D01*
X140116047Y-98001844D01*
X140252343Y-98044316D01*
X140320406Y-98050501D01*
X140320409Y-98050501D01*
X142679591Y-98050501D01*
X142679594Y-98050501D01*
X142747657Y-98044316D01*
X142904270Y-97995513D01*
X142904274Y-97995511D01*
X142964234Y-97959264D01*
X143999500Y-97959264D01*
X143999500Y-98740739D01*
X144013981Y-98832170D01*
X144013981Y-98832171D01*
X144013982Y-98832174D01*
X144013983Y-98832175D01*
X144070140Y-98942390D01*
X144070142Y-98942392D01*
X144070145Y-98942396D01*
X144157603Y-99029854D01*
X144157605Y-99029855D01*
X144157609Y-99029859D01*
X144267825Y-99086017D01*
X144267826Y-99086017D01*
X144267828Y-99086018D01*
X144302947Y-99091579D01*
X144359265Y-99100500D01*
X144745393Y-99100499D01*
X144792845Y-99109938D01*
X144816496Y-99119734D01*
X144816503Y-99119737D01*
X144971148Y-99150498D01*
X144971153Y-99150499D01*
X144971156Y-99150500D01*
X144971158Y-99150500D01*
X146098844Y-99150500D01*
X146098845Y-99150499D01*
X146253497Y-99119737D01*
X146399179Y-99059394D01*
X146530289Y-98971789D01*
X146641789Y-98860289D01*
X146729394Y-98729179D01*
X146789737Y-98583497D01*
X146820500Y-98428842D01*
X146820500Y-98271158D01*
X146820500Y-98271156D01*
X146820500Y-98271155D01*
X146820499Y-98271153D01*
X146814863Y-98242817D01*
X146789737Y-98116503D01*
X146785595Y-98106503D01*
X146742245Y-98001845D01*
X146742245Y-98001844D01*
X146729397Y-97970827D01*
X146729390Y-97970814D01*
X146721672Y-97959264D01*
X148899500Y-97959264D01*
X148899500Y-98740739D01*
X148913981Y-98832170D01*
X148913981Y-98832171D01*
X148913982Y-98832174D01*
X148913983Y-98832175D01*
X148970140Y-98942390D01*
X148970142Y-98942392D01*
X148970145Y-98942396D01*
X149057603Y-99029854D01*
X149057605Y-99029855D01*
X149057609Y-99029859D01*
X149167825Y-99086017D01*
X149167826Y-99086017D01*
X149167828Y-99086018D01*
X149202947Y-99091579D01*
X149259265Y-99100500D01*
X149712416Y-99100499D01*
X149753411Y-99107472D01*
X150708290Y-99442018D01*
X150754968Y-99471361D01*
X151104281Y-99820674D01*
X151120763Y-99842754D01*
X151121291Y-99842402D01*
X151124476Y-99847165D01*
X151216420Y-99960438D01*
X151723821Y-100585549D01*
X151745928Y-100626800D01*
X151754488Y-100654269D01*
X151754489Y-100654272D01*
X151839348Y-100794648D01*
X151839351Y-100794652D01*
X151955347Y-100910648D01*
X151955351Y-100910651D01*
X152095727Y-100995511D01*
X152095730Y-100995512D01*
X152252343Y-101044315D01*
X152320406Y-101050500D01*
X153094874Y-101050500D01*
X153140463Y-101059184D01*
X154526173Y-101607023D01*
X154568264Y-101634657D01*
X154829519Y-101895912D01*
X154829520Y-101895913D01*
X154904087Y-101970480D01*
X154995413Y-102023207D01*
X155097273Y-102050500D01*
X155202727Y-102050500D01*
X155710542Y-102050500D01*
X155777581Y-102070185D01*
X155780227Y-102071933D01*
X156143132Y-102318493D01*
X156151555Y-102325460D01*
X156157604Y-102329854D01*
X156157609Y-102329859D01*
X156267825Y-102386017D01*
X156267826Y-102386017D01*
X156267828Y-102386018D01*
X156302947Y-102391579D01*
X156359265Y-102400500D01*
X157740734Y-102400499D01*
X157740739Y-102400499D01*
X157740739Y-102400498D01*
X157786454Y-102393258D01*
X157832170Y-102386018D01*
X157832171Y-102386018D01*
X157832172Y-102386017D01*
X157832175Y-102386017D01*
X157942391Y-102329859D01*
X158029859Y-102242391D01*
X158086017Y-102132175D01*
X158086017Y-102132173D01*
X158086018Y-102132172D01*
X158086018Y-102132171D01*
X158089901Y-102107650D01*
X158100500Y-102040735D01*
X158100499Y-101259266D01*
X158100499Y-101259265D01*
X158100499Y-101259260D01*
X158086018Y-101167829D01*
X158086018Y-101167828D01*
X158086017Y-101167826D01*
X158086017Y-101167825D01*
X158029859Y-101057609D01*
X158029856Y-101057606D01*
X158029854Y-101057603D01*
X157942396Y-100970145D01*
X157942393Y-100970143D01*
X157942391Y-100970141D01*
X157832175Y-100913983D01*
X157832174Y-100913982D01*
X157832171Y-100913981D01*
X157740735Y-100899500D01*
X156359260Y-100899500D01*
X156359260Y-100899501D01*
X156267829Y-100913981D01*
X156267828Y-100913981D01*
X156157609Y-100970141D01*
X156151567Y-100974531D01*
X156143135Y-100981504D01*
X155780226Y-101228067D01*
X155713712Y-101249459D01*
X155710541Y-101249500D01*
X155367255Y-101249500D01*
X155337814Y-101240855D01*
X155307828Y-101234332D01*
X155302812Y-101230577D01*
X155300216Y-101229815D01*
X155279574Y-101213181D01*
X155224233Y-101157840D01*
X155190748Y-101096517D01*
X155190748Y-101096516D01*
X155189813Y-101048543D01*
X155276835Y-100557091D01*
X155280548Y-100541833D01*
X155294315Y-100497657D01*
X155300500Y-100429594D01*
X155300500Y-99570406D01*
X155294315Y-99502343D01*
X155251981Y-99366490D01*
X155245514Y-99345736D01*
X155245511Y-99345727D01*
X155160651Y-99205351D01*
X155160648Y-99205347D01*
X155044652Y-99089351D01*
X155044648Y-99089348D01*
X154904272Y-99004488D01*
X154904263Y-99004485D01*
X154747664Y-98955687D01*
X154747662Y-98955686D01*
X154747657Y-98955685D01*
X154679594Y-98949500D01*
X152320406Y-98949500D01*
X152252343Y-98955685D01*
X152200660Y-98971790D01*
X152166348Y-98982482D01*
X152143585Y-98987289D01*
X152136703Y-98988078D01*
X151648320Y-99138556D01*
X151578457Y-99139484D01*
X151524127Y-99107734D01*
X151306433Y-98890040D01*
X151282406Y-98856186D01*
X151270836Y-98832175D01*
X151155826Y-98593490D01*
X151012791Y-98296644D01*
X151000499Y-98242817D01*
X151000499Y-97959260D01*
X150986018Y-97867829D01*
X150986018Y-97867828D01*
X150986017Y-97867826D01*
X150986017Y-97867825D01*
X150929859Y-97757609D01*
X150929856Y-97757606D01*
X150929854Y-97757603D01*
X150842396Y-97670145D01*
X150842393Y-97670143D01*
X150842391Y-97670141D01*
X150732175Y-97613983D01*
X150732174Y-97613982D01*
X150732171Y-97613981D01*
X150640735Y-97599500D01*
X149259260Y-97599500D01*
X149259260Y-97599501D01*
X149167829Y-97613981D01*
X149167828Y-97613981D01*
X149057607Y-97670142D01*
X149057603Y-97670145D01*
X148970145Y-97757603D01*
X148970143Y-97757607D01*
X148970141Y-97757609D01*
X148957304Y-97782803D01*
X148913981Y-97867827D01*
X148913981Y-97867828D01*
X148899500Y-97959264D01*
X146721672Y-97959264D01*
X146641789Y-97839711D01*
X146641786Y-97839707D01*
X146530292Y-97728213D01*
X146530288Y-97728210D01*
X146399185Y-97640609D01*
X146399172Y-97640602D01*
X146253501Y-97580264D01*
X146253489Y-97580261D01*
X146098845Y-97549500D01*
X146098842Y-97549500D01*
X144971158Y-97549500D01*
X144971156Y-97549500D01*
X144816505Y-97580262D01*
X144816502Y-97580263D01*
X144792845Y-97590062D01*
X144745394Y-97599500D01*
X144359260Y-97599500D01*
X144359260Y-97599501D01*
X144267829Y-97613981D01*
X144267828Y-97613981D01*
X144157607Y-97670142D01*
X144157603Y-97670145D01*
X144070145Y-97757603D01*
X144070143Y-97757607D01*
X144070141Y-97757609D01*
X144057304Y-97782803D01*
X144013981Y-97867827D01*
X144013981Y-97867828D01*
X143999500Y-97959264D01*
X142964234Y-97959264D01*
X143044648Y-97910652D01*
X143044647Y-97910652D01*
X143044653Y-97910649D01*
X143147065Y-97808237D01*
X143208388Y-97774752D01*
X143210487Y-97774314D01*
X143233496Y-97769738D01*
X143379178Y-97709395D01*
X143510288Y-97621790D01*
X143621788Y-97510290D01*
X143668561Y-97440289D01*
X143709393Y-97379180D01*
X143738386Y-97309185D01*
X143746130Y-97290490D01*
X143753044Y-97273797D01*
X143769737Y-97233498D01*
X143800500Y-97078843D01*
X143800500Y-96921158D01*
X143800500Y-96921157D01*
X143800500Y-96921155D01*
X143800499Y-96921153D01*
X143769738Y-96766510D01*
X143769738Y-96766509D01*
X143769737Y-96766503D01*
X143709393Y-96620821D01*
X143709392Y-96620819D01*
X143709392Y-96620818D01*
X143675707Y-96570406D01*
X151699500Y-96570406D01*
X151699500Y-97429594D01*
X151705685Y-97497657D01*
X151705686Y-97497662D01*
X151705687Y-97497664D01*
X151754485Y-97654263D01*
X151754488Y-97654272D01*
X151839348Y-97794648D01*
X151839351Y-97794652D01*
X151955347Y-97910648D01*
X151955351Y-97910651D01*
X152095727Y-97995511D01*
X152095736Y-97995514D01*
X152116047Y-98001843D01*
X152252343Y-98044315D01*
X152320406Y-98050500D01*
X152320409Y-98050500D01*
X154679591Y-98050500D01*
X154679594Y-98050500D01*
X154747657Y-98044315D01*
X154904270Y-97995512D01*
X154904274Y-97995510D01*
X154964232Y-97959264D01*
X155999500Y-97959264D01*
X155999500Y-98740739D01*
X156013981Y-98832170D01*
X156013981Y-98832171D01*
X156013982Y-98832174D01*
X156013983Y-98832175D01*
X156070140Y-98942390D01*
X156070142Y-98942392D01*
X156070145Y-98942396D01*
X156157603Y-99029854D01*
X156157605Y-99029855D01*
X156157609Y-99029859D01*
X156267825Y-99086017D01*
X156267826Y-99086017D01*
X156267828Y-99086018D01*
X156302947Y-99091579D01*
X156359265Y-99100500D01*
X156745393Y-99100499D01*
X156792845Y-99109938D01*
X156816496Y-99119734D01*
X156816503Y-99119737D01*
X156971148Y-99150498D01*
X156971153Y-99150499D01*
X156971156Y-99150500D01*
X156971158Y-99150500D01*
X158088844Y-99150500D01*
X158088845Y-99150499D01*
X158243497Y-99119737D01*
X158389179Y-99059394D01*
X158520289Y-98971789D01*
X158631789Y-98860289D01*
X158719394Y-98729179D01*
X158779737Y-98583497D01*
X158810500Y-98428842D01*
X158810500Y-98271158D01*
X158810500Y-98271156D01*
X158810500Y-98271155D01*
X158810499Y-98271153D01*
X158804863Y-98242817D01*
X158779737Y-98116503D01*
X158775595Y-98106503D01*
X158732245Y-98001845D01*
X158732245Y-98001844D01*
X158719397Y-97970827D01*
X158719390Y-97970814D01*
X158711672Y-97959264D01*
X160899500Y-97959264D01*
X160899500Y-98740739D01*
X160913981Y-98832170D01*
X160913981Y-98832171D01*
X160913982Y-98832174D01*
X160913983Y-98832175D01*
X160970140Y-98942390D01*
X160970142Y-98942392D01*
X160970145Y-98942396D01*
X161057603Y-99029854D01*
X161057605Y-99029855D01*
X161057609Y-99029859D01*
X161167825Y-99086017D01*
X161167826Y-99086017D01*
X161167828Y-99086018D01*
X161202947Y-99091579D01*
X161259265Y-99100500D01*
X161712416Y-99100499D01*
X161753411Y-99107472D01*
X162708290Y-99442018D01*
X162754968Y-99471361D01*
X163104281Y-99820674D01*
X163120763Y-99842754D01*
X163121291Y-99842402D01*
X163124476Y-99847165D01*
X163216420Y-99960438D01*
X163723821Y-100585549D01*
X163745928Y-100626800D01*
X163754488Y-100654269D01*
X163754489Y-100654272D01*
X163839348Y-100794648D01*
X163839351Y-100794652D01*
X163955347Y-100910648D01*
X163955351Y-100910651D01*
X164095727Y-100995511D01*
X164095730Y-100995512D01*
X164252343Y-101044315D01*
X164320406Y-101050500D01*
X165094874Y-101050500D01*
X165140463Y-101059184D01*
X166526173Y-101607023D01*
X166568264Y-101634657D01*
X166829519Y-101895912D01*
X166829520Y-101895913D01*
X166904087Y-101970480D01*
X166995413Y-102023207D01*
X167097273Y-102050500D01*
X167202727Y-102050500D01*
X167710542Y-102050500D01*
X167777581Y-102070185D01*
X167780227Y-102071933D01*
X168143132Y-102318493D01*
X168151555Y-102325460D01*
X168157604Y-102329854D01*
X168157609Y-102329859D01*
X168267825Y-102386017D01*
X168267826Y-102386017D01*
X168267828Y-102386018D01*
X168302947Y-102391579D01*
X168359265Y-102400500D01*
X169740734Y-102400499D01*
X169740739Y-102400499D01*
X169740739Y-102400498D01*
X169786454Y-102393258D01*
X169832170Y-102386018D01*
X169832171Y-102386018D01*
X169832172Y-102386017D01*
X169832175Y-102386017D01*
X169942391Y-102329859D01*
X170029859Y-102242391D01*
X170086017Y-102132175D01*
X170086017Y-102132173D01*
X170086018Y-102132172D01*
X170086018Y-102132171D01*
X170089901Y-102107650D01*
X170100500Y-102040735D01*
X170100499Y-101259266D01*
X170100499Y-101259265D01*
X170100499Y-101259260D01*
X170086018Y-101167829D01*
X170086018Y-101167828D01*
X170086017Y-101167826D01*
X170086017Y-101167825D01*
X170029859Y-101057609D01*
X170029856Y-101057606D01*
X170029854Y-101057603D01*
X169942396Y-100970145D01*
X169942393Y-100970143D01*
X169942391Y-100970141D01*
X169832175Y-100913983D01*
X169832174Y-100913982D01*
X169832171Y-100913981D01*
X169740735Y-100899500D01*
X168359260Y-100899500D01*
X168359260Y-100899501D01*
X168267829Y-100913981D01*
X168267828Y-100913981D01*
X168157609Y-100970141D01*
X168151567Y-100974531D01*
X168143135Y-100981504D01*
X167780226Y-101228067D01*
X167713712Y-101249459D01*
X167710541Y-101249500D01*
X167367255Y-101249500D01*
X167337814Y-101240855D01*
X167307828Y-101234332D01*
X167302812Y-101230577D01*
X167300216Y-101229815D01*
X167279574Y-101213181D01*
X167224233Y-101157840D01*
X167190748Y-101096517D01*
X167190748Y-101096516D01*
X167189813Y-101048543D01*
X167276835Y-100557091D01*
X167280548Y-100541833D01*
X167294315Y-100497657D01*
X167300500Y-100429594D01*
X167300500Y-99570406D01*
X167294315Y-99502343D01*
X167251981Y-99366490D01*
X167245514Y-99345736D01*
X167245511Y-99345727D01*
X167160651Y-99205351D01*
X167160648Y-99205347D01*
X167044652Y-99089351D01*
X167044648Y-99089348D01*
X166904272Y-99004488D01*
X166904263Y-99004485D01*
X166747664Y-98955687D01*
X166747662Y-98955686D01*
X166747657Y-98955685D01*
X166679594Y-98949500D01*
X164320406Y-98949500D01*
X164252343Y-98955685D01*
X164200660Y-98971790D01*
X164166348Y-98982482D01*
X164143585Y-98987289D01*
X164136703Y-98988078D01*
X163648320Y-99138556D01*
X163578457Y-99139484D01*
X163524127Y-99107734D01*
X163306433Y-98890040D01*
X163282406Y-98856186D01*
X163270836Y-98832175D01*
X163155826Y-98593490D01*
X163012791Y-98296644D01*
X163000499Y-98242817D01*
X163000499Y-97959260D01*
X162986018Y-97867829D01*
X162986018Y-97867828D01*
X162986017Y-97867826D01*
X162986017Y-97867825D01*
X162929859Y-97757609D01*
X162929856Y-97757606D01*
X162929854Y-97757603D01*
X162842396Y-97670145D01*
X162842393Y-97670143D01*
X162842391Y-97670141D01*
X162732175Y-97613983D01*
X162732174Y-97613982D01*
X162732171Y-97613981D01*
X162640735Y-97599500D01*
X161259260Y-97599500D01*
X161259260Y-97599501D01*
X161167829Y-97613981D01*
X161167828Y-97613981D01*
X161057607Y-97670142D01*
X161057603Y-97670145D01*
X160970145Y-97757603D01*
X160970143Y-97757607D01*
X160970141Y-97757609D01*
X160957304Y-97782803D01*
X160913981Y-97867827D01*
X160913981Y-97867828D01*
X160899500Y-97959264D01*
X158711672Y-97959264D01*
X158631789Y-97839711D01*
X158631786Y-97839707D01*
X158520292Y-97728213D01*
X158520288Y-97728210D01*
X158389185Y-97640609D01*
X158389172Y-97640602D01*
X158243501Y-97580264D01*
X158243489Y-97580261D01*
X158088845Y-97549500D01*
X158088842Y-97549500D01*
X156971158Y-97549500D01*
X156971156Y-97549500D01*
X156816505Y-97580262D01*
X156816502Y-97580263D01*
X156792845Y-97590062D01*
X156745394Y-97599500D01*
X156359260Y-97599500D01*
X156359260Y-97599501D01*
X156267829Y-97613981D01*
X156267828Y-97613981D01*
X156157607Y-97670142D01*
X156157603Y-97670145D01*
X156070145Y-97757603D01*
X156070143Y-97757607D01*
X156070141Y-97757609D01*
X156057304Y-97782803D01*
X156013981Y-97867827D01*
X156013981Y-97867828D01*
X155999500Y-97959264D01*
X154964232Y-97959264D01*
X155044648Y-97910651D01*
X155044647Y-97910651D01*
X155044653Y-97910648D01*
X155147065Y-97808236D01*
X155208388Y-97774751D01*
X155210495Y-97774311D01*
X155233497Y-97769737D01*
X155362102Y-97716467D01*
X155379172Y-97709397D01*
X155379172Y-97709396D01*
X155379179Y-97709394D01*
X155510289Y-97621789D01*
X155621789Y-97510289D01*
X155709394Y-97379179D01*
X155769737Y-97233497D01*
X155800500Y-97078842D01*
X155800500Y-96921158D01*
X155800500Y-96921157D01*
X155800500Y-96921155D01*
X155800499Y-96921153D01*
X155769738Y-96766510D01*
X155769738Y-96766509D01*
X155769737Y-96766503D01*
X155727068Y-96663489D01*
X155709395Y-96620822D01*
X155709393Y-96620818D01*
X155675708Y-96570406D01*
X163699500Y-96570406D01*
X163699500Y-97429594D01*
X163705685Y-97497657D01*
X163705686Y-97497662D01*
X163705687Y-97497664D01*
X163754485Y-97654263D01*
X163754488Y-97654272D01*
X163839348Y-97794648D01*
X163839351Y-97794652D01*
X163955347Y-97910648D01*
X163955351Y-97910651D01*
X164095727Y-97995511D01*
X164095736Y-97995514D01*
X164116047Y-98001843D01*
X164252343Y-98044315D01*
X164320406Y-98050500D01*
X164320409Y-98050500D01*
X166679591Y-98050500D01*
X166679594Y-98050500D01*
X166747657Y-98044315D01*
X166904270Y-97995512D01*
X166904274Y-97995510D01*
X166964232Y-97959264D01*
X167999500Y-97959264D01*
X167999500Y-98740739D01*
X168013981Y-98832170D01*
X168013981Y-98832171D01*
X168013982Y-98832174D01*
X168013983Y-98832175D01*
X168070140Y-98942390D01*
X168070142Y-98942392D01*
X168070145Y-98942396D01*
X168157603Y-99029854D01*
X168157605Y-99029855D01*
X168157609Y-99029859D01*
X168267825Y-99086017D01*
X168267826Y-99086017D01*
X168267828Y-99086018D01*
X168302947Y-99091579D01*
X168359265Y-99100500D01*
X168745393Y-99100499D01*
X168792845Y-99109938D01*
X168816496Y-99119734D01*
X168816503Y-99119737D01*
X168971148Y-99150498D01*
X168971153Y-99150499D01*
X168971156Y-99150500D01*
X168971158Y-99150500D01*
X170118844Y-99150500D01*
X170118845Y-99150499D01*
X170273497Y-99119737D01*
X170419179Y-99059394D01*
X170550289Y-98971789D01*
X170661789Y-98860289D01*
X170749394Y-98729179D01*
X170809737Y-98583497D01*
X170840500Y-98428842D01*
X170840500Y-98271158D01*
X170840500Y-98271156D01*
X170840500Y-98271155D01*
X170840499Y-98271153D01*
X170834863Y-98242817D01*
X170809737Y-98116503D01*
X170805595Y-98106503D01*
X170762245Y-98001845D01*
X170762245Y-98001844D01*
X170749397Y-97970827D01*
X170749390Y-97970814D01*
X170741672Y-97959264D01*
X172899500Y-97959264D01*
X172899500Y-98740739D01*
X172913981Y-98832170D01*
X172913981Y-98832171D01*
X172913982Y-98832174D01*
X172913983Y-98832175D01*
X172970140Y-98942390D01*
X172970142Y-98942392D01*
X172970145Y-98942396D01*
X173057603Y-99029854D01*
X173057605Y-99029855D01*
X173057609Y-99029859D01*
X173167825Y-99086017D01*
X173167826Y-99086017D01*
X173167828Y-99086018D01*
X173202947Y-99091579D01*
X173259265Y-99100500D01*
X173712413Y-99100499D01*
X173753413Y-99107473D01*
X173904906Y-99160549D01*
X174708289Y-99442017D01*
X174754969Y-99471361D01*
X175104281Y-99820673D01*
X175120763Y-99842753D01*
X175121291Y-99842401D01*
X175124476Y-99847164D01*
X175124479Y-99847168D01*
X175723821Y-100585548D01*
X175745928Y-100626799D01*
X175754488Y-100654269D01*
X175754489Y-100654271D01*
X175839348Y-100794647D01*
X175839351Y-100794651D01*
X175955347Y-100910647D01*
X175955351Y-100910650D01*
X176095727Y-100995510D01*
X176095736Y-100995513D01*
X176127751Y-101005489D01*
X176252343Y-101044314D01*
X176320406Y-101050499D01*
X177094874Y-101050499D01*
X177140463Y-101059183D01*
X178526173Y-101607022D01*
X178568264Y-101634656D01*
X178829519Y-101895911D01*
X178829520Y-101895912D01*
X178904087Y-101970479D01*
X178995413Y-102023206D01*
X179097273Y-102050499D01*
X179202727Y-102050499D01*
X179710542Y-102050499D01*
X179777581Y-102070184D01*
X179780227Y-102071932D01*
X180143132Y-102318492D01*
X180151555Y-102325459D01*
X180157604Y-102329853D01*
X180157609Y-102329858D01*
X180267825Y-102386016D01*
X180267826Y-102386016D01*
X180267828Y-102386017D01*
X180302947Y-102391578D01*
X180359265Y-102400499D01*
X181740734Y-102400498D01*
X181740739Y-102400498D01*
X181740739Y-102400497D01*
X181786454Y-102393257D01*
X181832170Y-102386017D01*
X181832171Y-102386017D01*
X181832172Y-102386016D01*
X181832175Y-102386016D01*
X181942391Y-102329858D01*
X182029859Y-102242390D01*
X182086017Y-102132174D01*
X182086017Y-102132172D01*
X182086018Y-102132171D01*
X182086018Y-102132170D01*
X182095558Y-102071933D01*
X182100500Y-102040734D01*
X182100499Y-101259265D01*
X182100499Y-101259259D01*
X182086018Y-101167828D01*
X182086018Y-101167827D01*
X182086017Y-101167825D01*
X182086017Y-101167824D01*
X182029859Y-101057608D01*
X182029857Y-101057606D01*
X182029854Y-101057602D01*
X181942396Y-100970144D01*
X181942393Y-100970142D01*
X181942391Y-100970140D01*
X181832175Y-100913982D01*
X181832174Y-100913981D01*
X181832171Y-100913980D01*
X181740735Y-100899499D01*
X180359260Y-100899499D01*
X180359260Y-100899500D01*
X180267829Y-100913980D01*
X180267828Y-100913980D01*
X180157609Y-100970140D01*
X180151567Y-100974530D01*
X180143135Y-100981503D01*
X179780226Y-101228066D01*
X179713712Y-101249458D01*
X179710541Y-101249499D01*
X179367255Y-101249499D01*
X179337814Y-101240854D01*
X179307828Y-101234331D01*
X179302812Y-101230576D01*
X179300216Y-101229814D01*
X179279574Y-101213180D01*
X179224233Y-101157839D01*
X179190748Y-101096516D01*
X179189813Y-101048542D01*
X179276835Y-100557090D01*
X179280551Y-100541824D01*
X179294315Y-100497656D01*
X179300500Y-100429593D01*
X179300500Y-99570405D01*
X179294315Y-99502342D01*
X179245512Y-99345729D01*
X179245511Y-99345727D01*
X179245511Y-99345726D01*
X179160651Y-99205350D01*
X179160648Y-99205346D01*
X179044652Y-99089350D01*
X179044648Y-99089347D01*
X178904272Y-99004487D01*
X178904263Y-99004484D01*
X178747664Y-98955686D01*
X178747662Y-98955685D01*
X178747657Y-98955684D01*
X178679594Y-98949499D01*
X176320406Y-98949499D01*
X176252343Y-98955684D01*
X176200660Y-98971789D01*
X176166348Y-98982481D01*
X176143585Y-98987288D01*
X176136703Y-98988077D01*
X175648320Y-99138555D01*
X175578457Y-99139483D01*
X175524127Y-99107733D01*
X175306433Y-98890039D01*
X175282406Y-98856185D01*
X175279567Y-98850294D01*
X175155826Y-98593489D01*
X175012791Y-98296644D01*
X175000499Y-98242817D01*
X175000499Y-97959260D01*
X174986018Y-97867829D01*
X174986018Y-97867828D01*
X174986017Y-97867826D01*
X174986017Y-97867825D01*
X174929859Y-97757609D01*
X174929856Y-97757606D01*
X174929854Y-97757603D01*
X174842396Y-97670145D01*
X174842393Y-97670143D01*
X174842391Y-97670141D01*
X174732175Y-97613983D01*
X174732174Y-97613982D01*
X174732171Y-97613981D01*
X174640735Y-97599500D01*
X173259260Y-97599500D01*
X173259260Y-97599501D01*
X173167829Y-97613981D01*
X173167828Y-97613981D01*
X173057607Y-97670142D01*
X173057603Y-97670145D01*
X172970145Y-97757603D01*
X172970143Y-97757607D01*
X172970141Y-97757609D01*
X172957304Y-97782803D01*
X172913981Y-97867827D01*
X172913981Y-97867828D01*
X172899500Y-97959264D01*
X170741672Y-97959264D01*
X170661789Y-97839711D01*
X170661786Y-97839707D01*
X170550292Y-97728213D01*
X170550288Y-97728210D01*
X170419185Y-97640609D01*
X170419172Y-97640602D01*
X170273501Y-97580264D01*
X170273489Y-97580261D01*
X170118845Y-97549500D01*
X170118842Y-97549500D01*
X168971158Y-97549500D01*
X168971156Y-97549500D01*
X168816505Y-97580262D01*
X168816502Y-97580263D01*
X168792845Y-97590062D01*
X168745394Y-97599500D01*
X168359260Y-97599500D01*
X168359260Y-97599501D01*
X168267829Y-97613981D01*
X168267828Y-97613981D01*
X168157607Y-97670142D01*
X168157603Y-97670145D01*
X168070145Y-97757603D01*
X168070143Y-97757607D01*
X168070141Y-97757609D01*
X168057304Y-97782803D01*
X168013981Y-97867827D01*
X168013981Y-97867828D01*
X167999500Y-97959264D01*
X166964232Y-97959264D01*
X167044648Y-97910651D01*
X167044647Y-97910651D01*
X167044653Y-97910648D01*
X167147065Y-97808236D01*
X167208388Y-97774751D01*
X167210495Y-97774311D01*
X167233497Y-97769737D01*
X167362102Y-97716467D01*
X167379172Y-97709397D01*
X167379172Y-97709396D01*
X167379179Y-97709394D01*
X167510289Y-97621789D01*
X167621789Y-97510289D01*
X167709394Y-97379179D01*
X167769737Y-97233497D01*
X167800500Y-97078842D01*
X167800500Y-96921158D01*
X167800500Y-96921157D01*
X167800500Y-96921155D01*
X167800499Y-96921153D01*
X167769738Y-96766510D01*
X167769738Y-96766509D01*
X167769737Y-96766503D01*
X167727068Y-96663489D01*
X167709395Y-96620822D01*
X167709393Y-96620818D01*
X167675708Y-96570406D01*
X175699500Y-96570406D01*
X175699500Y-97429594D01*
X175705685Y-97497657D01*
X175705686Y-97497662D01*
X175705687Y-97497664D01*
X175754485Y-97654263D01*
X175754488Y-97654272D01*
X175839348Y-97794648D01*
X175839351Y-97794652D01*
X175955347Y-97910648D01*
X175955351Y-97910651D01*
X176095727Y-97995511D01*
X176095736Y-97995514D01*
X176116047Y-98001843D01*
X176252343Y-98044315D01*
X176320406Y-98050500D01*
X176320409Y-98050500D01*
X178679591Y-98050500D01*
X178679594Y-98050500D01*
X178747657Y-98044315D01*
X178904270Y-97995512D01*
X178904275Y-97995508D01*
X178904528Y-97995395D01*
X178912292Y-97991109D01*
X178975780Y-97959263D01*
X179999500Y-97959263D01*
X179999500Y-98740738D01*
X180013981Y-98832169D01*
X180013981Y-98832170D01*
X180013982Y-98832173D01*
X180013983Y-98832174D01*
X180068662Y-98939488D01*
X180070142Y-98942391D01*
X180070145Y-98942395D01*
X180157603Y-99029853D01*
X180157605Y-99029854D01*
X180157609Y-99029858D01*
X180267825Y-99086016D01*
X180267826Y-99086016D01*
X180267828Y-99086017D01*
X180302947Y-99091578D01*
X180359265Y-99100499D01*
X180745393Y-99100498D01*
X180792845Y-99109937D01*
X180816498Y-99119734D01*
X180816503Y-99119736D01*
X180971153Y-99150498D01*
X180971156Y-99150499D01*
X180971158Y-99150499D01*
X182078845Y-99150499D01*
X182078846Y-99150498D01*
X182233498Y-99119736D01*
X182377963Y-99059897D01*
X182379173Y-99059396D01*
X182379173Y-99059395D01*
X182379180Y-99059393D01*
X182510290Y-98971788D01*
X182631789Y-98850289D01*
X182719394Y-98719179D01*
X182779738Y-98573497D01*
X182810500Y-98418842D01*
X182810500Y-98261157D01*
X182779738Y-98106503D01*
X182736387Y-98001845D01*
X182736387Y-98001844D01*
X182719395Y-97960824D01*
X182719394Y-97960821D01*
X182719392Y-97960818D01*
X182719390Y-97960814D01*
X182718354Y-97959263D01*
X184899500Y-97959263D01*
X184899500Y-98740738D01*
X184913981Y-98832169D01*
X184913981Y-98832170D01*
X184913982Y-98832173D01*
X184913983Y-98832174D01*
X184968662Y-98939488D01*
X184970142Y-98942391D01*
X184970145Y-98942395D01*
X185057603Y-99029853D01*
X185057605Y-99029854D01*
X185057609Y-99029858D01*
X185167825Y-99086016D01*
X185167826Y-99086016D01*
X185167828Y-99086017D01*
X185202947Y-99091578D01*
X185259265Y-99100499D01*
X185712416Y-99100498D01*
X185753411Y-99107471D01*
X186708290Y-99442017D01*
X186754968Y-99471360D01*
X187104279Y-99820671D01*
X187120768Y-99842758D01*
X187121294Y-99842407D01*
X187124476Y-99847166D01*
X187723820Y-100585549D01*
X187745928Y-100626801D01*
X187754488Y-100654269D01*
X187754490Y-100654273D01*
X187839348Y-100794647D01*
X187839351Y-100794651D01*
X187955347Y-100910647D01*
X187955351Y-100910650D01*
X188095727Y-100995510D01*
X188095736Y-100995513D01*
X188127751Y-101005489D01*
X188252343Y-101044314D01*
X188320406Y-101050499D01*
X189094874Y-101050499D01*
X189140463Y-101059183D01*
X190526173Y-101607022D01*
X190568264Y-101634656D01*
X190829519Y-101895911D01*
X190829520Y-101895912D01*
X190904087Y-101970479D01*
X190995413Y-102023206D01*
X191097273Y-102050499D01*
X191202727Y-102050499D01*
X191710542Y-102050499D01*
X191777581Y-102070184D01*
X191780227Y-102071932D01*
X192143132Y-102318492D01*
X192151555Y-102325459D01*
X192157604Y-102329853D01*
X192157609Y-102329858D01*
X192267825Y-102386016D01*
X192267826Y-102386016D01*
X192267828Y-102386017D01*
X192302947Y-102391578D01*
X192359265Y-102400499D01*
X193740734Y-102400498D01*
X193740739Y-102400498D01*
X193740739Y-102400497D01*
X193786454Y-102393257D01*
X193832170Y-102386017D01*
X193832171Y-102386017D01*
X193832172Y-102386016D01*
X193832175Y-102386016D01*
X193942391Y-102329858D01*
X194029859Y-102242390D01*
X194086017Y-102132174D01*
X194086017Y-102132172D01*
X194086018Y-102132171D01*
X194086018Y-102132170D01*
X194095558Y-102071933D01*
X194100500Y-102040734D01*
X194100499Y-101259265D01*
X194100499Y-101259259D01*
X194086018Y-101167828D01*
X194086018Y-101167827D01*
X194086017Y-101167825D01*
X194086017Y-101167824D01*
X194029859Y-101057608D01*
X194029857Y-101057606D01*
X194029854Y-101057602D01*
X193942396Y-100970144D01*
X193942393Y-100970142D01*
X193942391Y-100970140D01*
X193832175Y-100913982D01*
X193832174Y-100913981D01*
X193832171Y-100913980D01*
X193740735Y-100899499D01*
X192359260Y-100899499D01*
X192359260Y-100899500D01*
X192267829Y-100913980D01*
X192267828Y-100913980D01*
X192157609Y-100970140D01*
X192151567Y-100974530D01*
X192143135Y-100981503D01*
X191780226Y-101228066D01*
X191713712Y-101249458D01*
X191710541Y-101249499D01*
X191367255Y-101249499D01*
X191337814Y-101240854D01*
X191307828Y-101234331D01*
X191302812Y-101230576D01*
X191300216Y-101229814D01*
X191279574Y-101213180D01*
X191224233Y-101157839D01*
X191190748Y-101096516D01*
X191189813Y-101048542D01*
X191276835Y-100557090D01*
X191280551Y-100541824D01*
X191294315Y-100497656D01*
X191300500Y-100429593D01*
X191300500Y-99570405D01*
X191294315Y-99502342D01*
X191245512Y-99345729D01*
X191245511Y-99345727D01*
X191245511Y-99345726D01*
X191160651Y-99205350D01*
X191160648Y-99205346D01*
X191044652Y-99089350D01*
X191044648Y-99089347D01*
X190904272Y-99004487D01*
X190904263Y-99004484D01*
X190747664Y-98955686D01*
X190747662Y-98955685D01*
X190747657Y-98955684D01*
X190679594Y-98949499D01*
X188320406Y-98949499D01*
X188291236Y-98952149D01*
X188252339Y-98955684D01*
X188166340Y-98982482D01*
X188143580Y-98987288D01*
X188136708Y-98988076D01*
X188136705Y-98988076D01*
X187648319Y-99138556D01*
X187578456Y-99139484D01*
X187524126Y-99107734D01*
X187306432Y-98890040D01*
X187282405Y-98856185D01*
X187012791Y-98296645D01*
X187000499Y-98242819D01*
X187000499Y-97959259D01*
X186986018Y-97867828D01*
X186986018Y-97867827D01*
X186986017Y-97867825D01*
X186986017Y-97867824D01*
X186929859Y-97757608D01*
X186929857Y-97757606D01*
X186929854Y-97757602D01*
X186842396Y-97670144D01*
X186842393Y-97670142D01*
X186842391Y-97670140D01*
X186732175Y-97613982D01*
X186732174Y-97613981D01*
X186732171Y-97613980D01*
X186640735Y-97599499D01*
X185259260Y-97599499D01*
X185259260Y-97599500D01*
X185167829Y-97613980D01*
X185167828Y-97613980D01*
X185057607Y-97670141D01*
X185057603Y-97670144D01*
X184970145Y-97757602D01*
X184970143Y-97757606D01*
X184970141Y-97757608D01*
X184951421Y-97794346D01*
X184913981Y-97867826D01*
X184913981Y-97867827D01*
X184899500Y-97959263D01*
X182718354Y-97959263D01*
X182631789Y-97829711D01*
X182631786Y-97829707D01*
X182520292Y-97718213D01*
X182520288Y-97718210D01*
X182389185Y-97630609D01*
X182389175Y-97630604D01*
X182243497Y-97570262D01*
X182243489Y-97570260D01*
X182088847Y-97539500D01*
X182088843Y-97539500D01*
X181931158Y-97539500D01*
X181892864Y-97547117D01*
X181868674Y-97549499D01*
X180971156Y-97549499D01*
X180816505Y-97580261D01*
X180816502Y-97580262D01*
X180792845Y-97590061D01*
X180745394Y-97599499D01*
X180359260Y-97599499D01*
X180359260Y-97599500D01*
X180267829Y-97613980D01*
X180267828Y-97613980D01*
X180157607Y-97670141D01*
X180157603Y-97670144D01*
X180070145Y-97757602D01*
X180070143Y-97757606D01*
X180070141Y-97757608D01*
X180051421Y-97794346D01*
X180013981Y-97867826D01*
X180013981Y-97867827D01*
X179999500Y-97959263D01*
X178975780Y-97959263D01*
X179279588Y-97806871D01*
X179310986Y-97796094D01*
X179443497Y-97769737D01*
X179567898Y-97718209D01*
X179589172Y-97709397D01*
X179589172Y-97709396D01*
X179589179Y-97709394D01*
X179720289Y-97621789D01*
X179831789Y-97510289D01*
X179919394Y-97379179D01*
X179979737Y-97233497D01*
X180010500Y-97078842D01*
X180010500Y-96921158D01*
X180010500Y-96921157D01*
X180010500Y-96921155D01*
X180010499Y-96921153D01*
X179979738Y-96766510D01*
X179979738Y-96766509D01*
X179979737Y-96766503D01*
X179937068Y-96663489D01*
X179919395Y-96620822D01*
X179919393Y-96620818D01*
X179885708Y-96570406D01*
X187699500Y-96570406D01*
X187699500Y-97429594D01*
X187705685Y-97497657D01*
X187705686Y-97497662D01*
X187705687Y-97497664D01*
X187754485Y-97654263D01*
X187754488Y-97654272D01*
X187839348Y-97794648D01*
X187839351Y-97794652D01*
X187955347Y-97910648D01*
X187955351Y-97910651D01*
X188095727Y-97995511D01*
X188095736Y-97995514D01*
X188116047Y-98001843D01*
X188252343Y-98044315D01*
X188320406Y-98050500D01*
X188320409Y-98050500D01*
X190679591Y-98050500D01*
X190679594Y-98050500D01*
X190747657Y-98044315D01*
X190904270Y-97995512D01*
X190904274Y-97995510D01*
X190964234Y-97959263D01*
X191999500Y-97959263D01*
X191999500Y-98740738D01*
X192013981Y-98832169D01*
X192013981Y-98832170D01*
X192013982Y-98832173D01*
X192013983Y-98832174D01*
X192068662Y-98939488D01*
X192070142Y-98942391D01*
X192070145Y-98942395D01*
X192157603Y-99029853D01*
X192157605Y-99029854D01*
X192157609Y-99029858D01*
X192267825Y-99086016D01*
X192267826Y-99086016D01*
X192267828Y-99086017D01*
X192302947Y-99091578D01*
X192359265Y-99100499D01*
X192745393Y-99100498D01*
X192792845Y-99109937D01*
X192816498Y-99119734D01*
X192816503Y-99119736D01*
X192971153Y-99150498D01*
X192971156Y-99150499D01*
X192971158Y-99150499D01*
X193848664Y-99150499D01*
X193872853Y-99152880D01*
X193911158Y-99160500D01*
X193911159Y-99160500D01*
X194068844Y-99160500D01*
X194068845Y-99160499D01*
X194223498Y-99129738D01*
X194369179Y-99069394D01*
X194500290Y-98981789D01*
X194611789Y-98870290D01*
X194699394Y-98739179D01*
X194759738Y-98593498D01*
X194790500Y-98438843D01*
X194790500Y-98281158D01*
X194759738Y-98126503D01*
X194725694Y-98044314D01*
X194708103Y-98001845D01*
X194708102Y-98001843D01*
X194699398Y-97980829D01*
X194699390Y-97980814D01*
X194684990Y-97959263D01*
X196899500Y-97959263D01*
X196899500Y-98740738D01*
X196913981Y-98832169D01*
X196913981Y-98832170D01*
X196913982Y-98832173D01*
X196913983Y-98832174D01*
X196968662Y-98939488D01*
X196970142Y-98942391D01*
X196970145Y-98942395D01*
X197057603Y-99029853D01*
X197057605Y-99029854D01*
X197057609Y-99029858D01*
X197167825Y-99086016D01*
X197167826Y-99086016D01*
X197167828Y-99086017D01*
X197202947Y-99091578D01*
X197259265Y-99100499D01*
X197712416Y-99100498D01*
X197753416Y-99107473D01*
X198126989Y-99238356D01*
X198448931Y-99351150D01*
X198708286Y-99442016D01*
X198754967Y-99471360D01*
X199104275Y-99820668D01*
X199120761Y-99842752D01*
X199121287Y-99842401D01*
X199124470Y-99847161D01*
X199723820Y-100585550D01*
X199745928Y-100626802D01*
X199754488Y-100654270D01*
X199754490Y-100654274D01*
X199839348Y-100794648D01*
X199839351Y-100794652D01*
X199955347Y-100910648D01*
X199955351Y-100910651D01*
X200095727Y-100995511D01*
X200095730Y-100995512D01*
X200252343Y-101044315D01*
X200320406Y-101050500D01*
X201094874Y-101050500D01*
X201140463Y-101059184D01*
X202526173Y-101607023D01*
X202568264Y-101634657D01*
X202829519Y-101895912D01*
X202829520Y-101895913D01*
X202904087Y-101970480D01*
X202995413Y-102023207D01*
X203097273Y-102050500D01*
X203202727Y-102050500D01*
X203710542Y-102050500D01*
X203777581Y-102070185D01*
X203780227Y-102071933D01*
X204143132Y-102318493D01*
X204151555Y-102325460D01*
X204157604Y-102329854D01*
X204157609Y-102329859D01*
X204267825Y-102386017D01*
X204267826Y-102386017D01*
X204267828Y-102386018D01*
X204302947Y-102391579D01*
X204359265Y-102400500D01*
X205740734Y-102400499D01*
X205740739Y-102400499D01*
X205740739Y-102400498D01*
X205786454Y-102393258D01*
X205832170Y-102386018D01*
X205832171Y-102386018D01*
X205832172Y-102386017D01*
X205832175Y-102386017D01*
X205942391Y-102329859D01*
X206029859Y-102242391D01*
X206086017Y-102132175D01*
X206086017Y-102132173D01*
X206086018Y-102132172D01*
X206086018Y-102132171D01*
X206089901Y-102107650D01*
X206100500Y-102040735D01*
X206100499Y-101259266D01*
X206100499Y-101259265D01*
X206100499Y-101259260D01*
X206086018Y-101167829D01*
X206086018Y-101167828D01*
X206086017Y-101167826D01*
X206086017Y-101167825D01*
X206029859Y-101057609D01*
X206029856Y-101057606D01*
X206029854Y-101057603D01*
X205942396Y-100970145D01*
X205942393Y-100970143D01*
X205942391Y-100970141D01*
X205832175Y-100913983D01*
X205832174Y-100913982D01*
X205832171Y-100913981D01*
X205740735Y-100899500D01*
X204359260Y-100899500D01*
X204359260Y-100899501D01*
X204267829Y-100913981D01*
X204267828Y-100913981D01*
X204157609Y-100970141D01*
X204151567Y-100974531D01*
X204143135Y-100981504D01*
X203780226Y-101228067D01*
X203713712Y-101249459D01*
X203710541Y-101249500D01*
X203367255Y-101249500D01*
X203337814Y-101240855D01*
X203307828Y-101234332D01*
X203302812Y-101230577D01*
X203300216Y-101229815D01*
X203279574Y-101213181D01*
X203224233Y-101157840D01*
X203190748Y-101096517D01*
X203190748Y-101096516D01*
X203189813Y-101048543D01*
X203276835Y-100557091D01*
X203280548Y-100541833D01*
X203294315Y-100497657D01*
X203300500Y-100429594D01*
X203300500Y-99570406D01*
X203294315Y-99502343D01*
X203251981Y-99366490D01*
X203245514Y-99345736D01*
X203245511Y-99345727D01*
X203160651Y-99205351D01*
X203160648Y-99205347D01*
X203044652Y-99089351D01*
X203044648Y-99089348D01*
X202904272Y-99004488D01*
X202904263Y-99004485D01*
X202747664Y-98955687D01*
X202747662Y-98955686D01*
X202747657Y-98955685D01*
X202679594Y-98949500D01*
X200320406Y-98949500D01*
X200252343Y-98955685D01*
X200200660Y-98971790D01*
X200166348Y-98982482D01*
X200143585Y-98987289D01*
X200136708Y-98988077D01*
X200136705Y-98988077D01*
X200136704Y-98988078D01*
X200001109Y-99029857D01*
X199648319Y-99138557D01*
X199578456Y-99139485D01*
X199524126Y-99107735D01*
X199306430Y-98890039D01*
X199282403Y-98856184D01*
X199270834Y-98832175D01*
X199012791Y-98296647D01*
X199000499Y-98242821D01*
X199000499Y-97959259D01*
X198986018Y-97867828D01*
X198986018Y-97867827D01*
X198986017Y-97867825D01*
X198986017Y-97867824D01*
X198929859Y-97757608D01*
X198929857Y-97757606D01*
X198929854Y-97757602D01*
X198842396Y-97670144D01*
X198842393Y-97670142D01*
X198842391Y-97670140D01*
X198732175Y-97613982D01*
X198732174Y-97613981D01*
X198732171Y-97613980D01*
X198640735Y-97599499D01*
X197259260Y-97599499D01*
X197259260Y-97599500D01*
X197167829Y-97613980D01*
X197167828Y-97613980D01*
X197057607Y-97670141D01*
X197057603Y-97670144D01*
X196970145Y-97757602D01*
X196970143Y-97757606D01*
X196970141Y-97757608D01*
X196951421Y-97794346D01*
X196913981Y-97867826D01*
X196913981Y-97867827D01*
X196899500Y-97959263D01*
X194684990Y-97959263D01*
X194611789Y-97849711D01*
X194611786Y-97849707D01*
X194490291Y-97728212D01*
X194490287Y-97728209D01*
X194359184Y-97640608D01*
X194359171Y-97640601D01*
X194213500Y-97580263D01*
X194213488Y-97580260D01*
X194058844Y-97549499D01*
X194058841Y-97549499D01*
X192971158Y-97549499D01*
X192971156Y-97549499D01*
X192816505Y-97580261D01*
X192816502Y-97580262D01*
X192792845Y-97590061D01*
X192745394Y-97599499D01*
X192359260Y-97599499D01*
X192359260Y-97599500D01*
X192267829Y-97613980D01*
X192267828Y-97613980D01*
X192157607Y-97670141D01*
X192157603Y-97670144D01*
X192070145Y-97757602D01*
X192070143Y-97757606D01*
X192070141Y-97757608D01*
X192051421Y-97794346D01*
X192013981Y-97867826D01*
X192013981Y-97867827D01*
X191999500Y-97959263D01*
X190964234Y-97959263D01*
X191044648Y-97910651D01*
X191044647Y-97910651D01*
X191044653Y-97910648D01*
X191147065Y-97808236D01*
X191208388Y-97774751D01*
X191210495Y-97774311D01*
X191233497Y-97769737D01*
X191362102Y-97716467D01*
X191379172Y-97709397D01*
X191379172Y-97709396D01*
X191379179Y-97709394D01*
X191510289Y-97621789D01*
X191621789Y-97510289D01*
X191709394Y-97379179D01*
X191769737Y-97233497D01*
X191800500Y-97078842D01*
X191800500Y-96921158D01*
X191800500Y-96921157D01*
X191800500Y-96921155D01*
X191800499Y-96921153D01*
X191769738Y-96766510D01*
X191769738Y-96766509D01*
X191769737Y-96766503D01*
X191727068Y-96663489D01*
X191709395Y-96620822D01*
X191709393Y-96620818D01*
X191675708Y-96570406D01*
X199699500Y-96570406D01*
X199699500Y-97429594D01*
X199705685Y-97497657D01*
X199705686Y-97497662D01*
X199705687Y-97497664D01*
X199754485Y-97654263D01*
X199754488Y-97654272D01*
X199839348Y-97794648D01*
X199839351Y-97794652D01*
X199955347Y-97910648D01*
X199955351Y-97910651D01*
X200095727Y-97995511D01*
X200095736Y-97995514D01*
X200116047Y-98001843D01*
X200252343Y-98044315D01*
X200320406Y-98050500D01*
X200320409Y-98050500D01*
X202679591Y-98050500D01*
X202679594Y-98050500D01*
X202747657Y-98044315D01*
X202904270Y-97995512D01*
X202904274Y-97995510D01*
X202964232Y-97959264D01*
X203999500Y-97959264D01*
X203999500Y-98740739D01*
X204013981Y-98832170D01*
X204013981Y-98832171D01*
X204013982Y-98832174D01*
X204013983Y-98832175D01*
X204070140Y-98942390D01*
X204070142Y-98942392D01*
X204070145Y-98942396D01*
X204157603Y-99029854D01*
X204157605Y-99029855D01*
X204157609Y-99029859D01*
X204267825Y-99086017D01*
X204267826Y-99086017D01*
X204267828Y-99086018D01*
X204302947Y-99091579D01*
X204359265Y-99100500D01*
X204745393Y-99100499D01*
X204792845Y-99109938D01*
X204816496Y-99119734D01*
X204816503Y-99119737D01*
X204971148Y-99150498D01*
X204971153Y-99150499D01*
X204971156Y-99150500D01*
X204971158Y-99150500D01*
X206088844Y-99150500D01*
X206088845Y-99150499D01*
X206243497Y-99119737D01*
X206389179Y-99059394D01*
X206520289Y-98971789D01*
X206641789Y-98850289D01*
X206729393Y-98719179D01*
X206789737Y-98573497D01*
X206818510Y-98428847D01*
X206820500Y-98418845D01*
X206820500Y-98261155D01*
X206820499Y-98261153D01*
X206820499Y-98261152D01*
X206789737Y-98106503D01*
X206729393Y-97960821D01*
X206729388Y-97960814D01*
X206641790Y-97829712D01*
X206641784Y-97829705D01*
X206530294Y-97718215D01*
X206530287Y-97718209D01*
X206399180Y-97630607D01*
X206253497Y-97570263D01*
X206253489Y-97570261D01*
X206098845Y-97539500D01*
X206098842Y-97539500D01*
X205941157Y-97539500D01*
X205941156Y-97539500D01*
X205921459Y-97543418D01*
X205902863Y-97547117D01*
X205878672Y-97549500D01*
X204971156Y-97549500D01*
X204816505Y-97580262D01*
X204816502Y-97580263D01*
X204792845Y-97590062D01*
X204745394Y-97599500D01*
X204359260Y-97599500D01*
X204359260Y-97599501D01*
X204267829Y-97613981D01*
X204267828Y-97613981D01*
X204157607Y-97670142D01*
X204157603Y-97670145D01*
X204070145Y-97757603D01*
X204070143Y-97757607D01*
X204070141Y-97757609D01*
X204057304Y-97782803D01*
X204013981Y-97867827D01*
X204013981Y-97867828D01*
X203999500Y-97959264D01*
X202964232Y-97959264D01*
X203044648Y-97910651D01*
X203044647Y-97910651D01*
X203044653Y-97910648D01*
X203147065Y-97808236D01*
X203208388Y-97774751D01*
X203210495Y-97774311D01*
X203233497Y-97769737D01*
X203362102Y-97716467D01*
X203379172Y-97709397D01*
X203379172Y-97709396D01*
X203379179Y-97709394D01*
X203510289Y-97621789D01*
X203621789Y-97510289D01*
X203709394Y-97379179D01*
X203769737Y-97233497D01*
X203800500Y-97078842D01*
X203800500Y-96921158D01*
X203800500Y-96921157D01*
X203800500Y-96921155D01*
X203800499Y-96921153D01*
X203769738Y-96766510D01*
X203769738Y-96766509D01*
X203769737Y-96766503D01*
X203727068Y-96663489D01*
X203709397Y-96620827D01*
X203709390Y-96620814D01*
X203621789Y-96489711D01*
X203621786Y-96489707D01*
X203510292Y-96378213D01*
X203510287Y-96378209D01*
X203510227Y-96378169D01*
X203510225Y-96378168D01*
X203379185Y-96290609D01*
X203379172Y-96290602D01*
X203356372Y-96281158D01*
X207309500Y-96281158D01*
X207309500Y-96289122D01*
X207309500Y-97008846D01*
X207340261Y-97163489D01*
X207340264Y-97163501D01*
X207400602Y-97309172D01*
X207400609Y-97309185D01*
X207488210Y-97440288D01*
X207488213Y-97440292D01*
X207599707Y-97551786D01*
X207599711Y-97551789D01*
X207730814Y-97639390D01*
X207730827Y-97639397D01*
X207864108Y-97694603D01*
X207876503Y-97699737D01*
X208019656Y-97728212D01*
X208031153Y-97730499D01*
X208031156Y-97730500D01*
X208031158Y-97730500D01*
X208188844Y-97730500D01*
X208188845Y-97730499D01*
X208343497Y-97699737D01*
X208486253Y-97640606D01*
X208489172Y-97639397D01*
X208489172Y-97639396D01*
X208489179Y-97639394D01*
X208620289Y-97551789D01*
X208731789Y-97440289D01*
X208819394Y-97309179D01*
X208879737Y-97163497D01*
X208910500Y-97008842D01*
X208910500Y-96281158D01*
X208910500Y-96281155D01*
X208910499Y-96281153D01*
X208879739Y-96126511D01*
X208879738Y-96126509D01*
X208879737Y-96126503D01*
X208868913Y-96100372D01*
X208860363Y-96067721D01*
X208850359Y-95984410D01*
X208797364Y-95850025D01*
X208797363Y-95850024D01*
X208797363Y-95850023D01*
X208710078Y-95734921D01*
X208594976Y-95647636D01*
X208460588Y-95594640D01*
X208417242Y-95589435D01*
X208376144Y-95584500D01*
X208376138Y-95584500D01*
X208326736Y-95584500D01*
X208302545Y-95582117D01*
X208267354Y-95575117D01*
X208188844Y-95559500D01*
X208188842Y-95559500D01*
X208031158Y-95559500D01*
X208031156Y-95559500D01*
X207952645Y-95575117D01*
X207917454Y-95582117D01*
X207893264Y-95584500D01*
X207843856Y-95584500D01*
X207805841Y-95589065D01*
X207759411Y-95594640D01*
X207625023Y-95647636D01*
X207509921Y-95734921D01*
X207422636Y-95850023D01*
X207369640Y-95984411D01*
X207366775Y-96008274D01*
X207359636Y-96067716D01*
X207357902Y-96074338D01*
X207357375Y-96080686D01*
X207355052Y-96090797D01*
X207340263Y-96126503D01*
X207309500Y-96281158D01*
X203356372Y-96281158D01*
X203233501Y-96230264D01*
X203233490Y-96230261D01*
X203210554Y-96225699D01*
X203148643Y-96193315D01*
X203147064Y-96191763D01*
X203044652Y-96089351D01*
X203044648Y-96089348D01*
X202904272Y-96004488D01*
X202904263Y-96004485D01*
X202747664Y-95955687D01*
X202747662Y-95955686D01*
X202747657Y-95955685D01*
X202679594Y-95949500D01*
X200320406Y-95949500D01*
X200252343Y-95955685D01*
X200252339Y-95955686D01*
X200252335Y-95955687D01*
X200095736Y-96004485D01*
X200095727Y-96004488D01*
X199955351Y-96089348D01*
X199955347Y-96089351D01*
X199839351Y-96205347D01*
X199839348Y-96205351D01*
X199754488Y-96345727D01*
X199754485Y-96345736D01*
X199705687Y-96502335D01*
X199705685Y-96502343D01*
X199699500Y-96570406D01*
X191675708Y-96570406D01*
X191621789Y-96489711D01*
X191621786Y-96489707D01*
X191510292Y-96378213D01*
X191510288Y-96378210D01*
X191379185Y-96290609D01*
X191379172Y-96290602D01*
X191233501Y-96230264D01*
X191233490Y-96230261D01*
X191210554Y-96225699D01*
X191148643Y-96193315D01*
X191147064Y-96191763D01*
X191044652Y-96089351D01*
X191044648Y-96089348D01*
X190904272Y-96004488D01*
X190904263Y-96004485D01*
X190747664Y-95955687D01*
X190747662Y-95955686D01*
X190747657Y-95955685D01*
X190679594Y-95949500D01*
X188320406Y-95949500D01*
X188252343Y-95955685D01*
X188252339Y-95955686D01*
X188252335Y-95955687D01*
X188095736Y-96004485D01*
X188095727Y-96004488D01*
X187955351Y-96089348D01*
X187955347Y-96089351D01*
X187839351Y-96205347D01*
X187839348Y-96205351D01*
X187754488Y-96345727D01*
X187754485Y-96345736D01*
X187705687Y-96502335D01*
X187705685Y-96502343D01*
X187699500Y-96570406D01*
X179885708Y-96570406D01*
X179831789Y-96489711D01*
X179831786Y-96489707D01*
X179720292Y-96378213D01*
X179720288Y-96378210D01*
X179589185Y-96290609D01*
X179589172Y-96290602D01*
X179443501Y-96230264D01*
X179443491Y-96230261D01*
X179310992Y-96203905D01*
X179279587Y-96193126D01*
X179031841Y-96068856D01*
X178911065Y-96008274D01*
X178909093Y-96007403D01*
X178904270Y-96004488D01*
X178898205Y-96002598D01*
X178883535Y-95996123D01*
X178883533Y-95996122D01*
X178883519Y-95996116D01*
X178883504Y-95996110D01*
X178881405Y-95995305D01*
X178846238Y-95984195D01*
X178838756Y-95982807D01*
X178838889Y-95982088D01*
X178823075Y-95979186D01*
X178747657Y-95955685D01*
X178747659Y-95955685D01*
X178720431Y-95953211D01*
X178679594Y-95949500D01*
X176320406Y-95949500D01*
X176252343Y-95955685D01*
X176252339Y-95955686D01*
X176252335Y-95955687D01*
X176095736Y-96004485D01*
X176095727Y-96004488D01*
X175955351Y-96089348D01*
X175955347Y-96089351D01*
X175839351Y-96205347D01*
X175839348Y-96205351D01*
X175754488Y-96345727D01*
X175754485Y-96345736D01*
X175705687Y-96502335D01*
X175705685Y-96502343D01*
X175699500Y-96570406D01*
X167675708Y-96570406D01*
X167621789Y-96489711D01*
X167621786Y-96489707D01*
X167510292Y-96378213D01*
X167510288Y-96378210D01*
X167379185Y-96290609D01*
X167379172Y-96290602D01*
X167233501Y-96230264D01*
X167233490Y-96230261D01*
X167210554Y-96225699D01*
X167148643Y-96193315D01*
X167147064Y-96191763D01*
X167044652Y-96089351D01*
X167044648Y-96089348D01*
X166904272Y-96004488D01*
X166904263Y-96004485D01*
X166747664Y-95955687D01*
X166747662Y-95955686D01*
X166747657Y-95955685D01*
X166679594Y-95949500D01*
X164320406Y-95949500D01*
X164252343Y-95955685D01*
X164252339Y-95955686D01*
X164252335Y-95955687D01*
X164095736Y-96004485D01*
X164095727Y-96004488D01*
X163955351Y-96089348D01*
X163955347Y-96089351D01*
X163839351Y-96205347D01*
X163839348Y-96205351D01*
X163754488Y-96345727D01*
X163754485Y-96345736D01*
X163705687Y-96502335D01*
X163705685Y-96502343D01*
X163699500Y-96570406D01*
X155675708Y-96570406D01*
X155621789Y-96489711D01*
X155621786Y-96489707D01*
X155510292Y-96378213D01*
X155510288Y-96378210D01*
X155379185Y-96290609D01*
X155379172Y-96290602D01*
X155233501Y-96230264D01*
X155233490Y-96230261D01*
X155210554Y-96225699D01*
X155148643Y-96193315D01*
X155147064Y-96191763D01*
X155044652Y-96089351D01*
X155044648Y-96089348D01*
X154904272Y-96004488D01*
X154904263Y-96004485D01*
X154747664Y-95955687D01*
X154747662Y-95955686D01*
X154747657Y-95955685D01*
X154679594Y-95949500D01*
X152320406Y-95949500D01*
X152252343Y-95955685D01*
X152252339Y-95955686D01*
X152252335Y-95955687D01*
X152095736Y-96004485D01*
X152095727Y-96004488D01*
X151955351Y-96089348D01*
X151955347Y-96089351D01*
X151839351Y-96205347D01*
X151839348Y-96205351D01*
X151754488Y-96345727D01*
X151754485Y-96345736D01*
X151705687Y-96502335D01*
X151705685Y-96502343D01*
X151699500Y-96570406D01*
X143675707Y-96570406D01*
X143621788Y-96489711D01*
X143621785Y-96489707D01*
X143510292Y-96378214D01*
X143510288Y-96378211D01*
X143379185Y-96290610D01*
X143379175Y-96290605D01*
X143233497Y-96230263D01*
X143233494Y-96230262D01*
X143210550Y-96225698D01*
X143148640Y-96193311D01*
X143147063Y-96191763D01*
X143044653Y-96089353D01*
X143044650Y-96089351D01*
X143044648Y-96089349D01*
X142904272Y-96004489D01*
X142904263Y-96004486D01*
X142747664Y-95955688D01*
X142747662Y-95955687D01*
X142747657Y-95955686D01*
X142679594Y-95949501D01*
X140320406Y-95949501D01*
X140252343Y-95955686D01*
X140252339Y-95955687D01*
X140252335Y-95955688D01*
X140095736Y-96004486D01*
X140095727Y-96004489D01*
X139955351Y-96089349D01*
X139955347Y-96089352D01*
X139839351Y-96205348D01*
X139839348Y-96205352D01*
X139754488Y-96345728D01*
X139754485Y-96345737D01*
X139705687Y-96502336D01*
X139705685Y-96502344D01*
X139699500Y-96570407D01*
X131675707Y-96570407D01*
X131621788Y-96489711D01*
X131621785Y-96489707D01*
X131510292Y-96378214D01*
X131510288Y-96378211D01*
X131379185Y-96290610D01*
X131379175Y-96290605D01*
X131233497Y-96230263D01*
X131233494Y-96230262D01*
X131210550Y-96225698D01*
X131148640Y-96193311D01*
X131147063Y-96191763D01*
X131044653Y-96089353D01*
X131044650Y-96089351D01*
X131044648Y-96089349D01*
X130904272Y-96004489D01*
X130904263Y-96004486D01*
X130747664Y-95955688D01*
X130747662Y-95955687D01*
X130747657Y-95955686D01*
X130679594Y-95949501D01*
X128320406Y-95949501D01*
X128252343Y-95955686D01*
X128252339Y-95955687D01*
X128252335Y-95955688D01*
X128095736Y-96004486D01*
X128095727Y-96004489D01*
X127955351Y-96089349D01*
X127955347Y-96089352D01*
X127839351Y-96205348D01*
X127839348Y-96205352D01*
X127754488Y-96345728D01*
X127754485Y-96345737D01*
X127705687Y-96502336D01*
X127705685Y-96502344D01*
X127699500Y-96570407D01*
X119675709Y-96570407D01*
X119621788Y-96489710D01*
X119621785Y-96489706D01*
X119510291Y-96378212D01*
X119510287Y-96378209D01*
X119379184Y-96290608D01*
X119379171Y-96290601D01*
X119233500Y-96230263D01*
X119233490Y-96230260D01*
X119210554Y-96225698D01*
X119148643Y-96193313D01*
X119147065Y-96191763D01*
X119044653Y-96089351D01*
X119044650Y-96089349D01*
X119044648Y-96089347D01*
X118904272Y-96004487D01*
X118904263Y-96004484D01*
X118747664Y-95955686D01*
X118747662Y-95955685D01*
X118747657Y-95955684D01*
X118679594Y-95949499D01*
X116320406Y-95949499D01*
X116252343Y-95955684D01*
X116252339Y-95955685D01*
X116252335Y-95955686D01*
X116095736Y-96004484D01*
X116095727Y-96004487D01*
X115955351Y-96089347D01*
X115955347Y-96089350D01*
X115839351Y-96205346D01*
X115839348Y-96205350D01*
X115754488Y-96345726D01*
X115754485Y-96345735D01*
X115705687Y-96502334D01*
X115705685Y-96502342D01*
X115699500Y-96570405D01*
X107675707Y-96570405D01*
X107621789Y-96489711D01*
X107621786Y-96489707D01*
X107510292Y-96378213D01*
X107510288Y-96378210D01*
X107379185Y-96290609D01*
X107379172Y-96290602D01*
X107233501Y-96230264D01*
X107233490Y-96230261D01*
X107210554Y-96225699D01*
X107148643Y-96193315D01*
X107147064Y-96191763D01*
X107044652Y-96089351D01*
X107044648Y-96089348D01*
X106904272Y-96004488D01*
X106904263Y-96004485D01*
X106747664Y-95955687D01*
X106747662Y-95955686D01*
X106747657Y-95955685D01*
X106679594Y-95949500D01*
X104320406Y-95949500D01*
X104252343Y-95955685D01*
X104252339Y-95955686D01*
X104252335Y-95955687D01*
X104095736Y-96004485D01*
X104095727Y-96004488D01*
X103955351Y-96089348D01*
X103955347Y-96089351D01*
X103839351Y-96205347D01*
X103839348Y-96205351D01*
X103754488Y-96345727D01*
X103754485Y-96345736D01*
X103705687Y-96502335D01*
X103705685Y-96502343D01*
X103699500Y-96570406D01*
X95875708Y-96570406D01*
X95821789Y-96489711D01*
X95821786Y-96489707D01*
X95710292Y-96378213D01*
X95710288Y-96378210D01*
X95579185Y-96290609D01*
X95579172Y-96290602D01*
X95433501Y-96230264D01*
X95433491Y-96230261D01*
X95303549Y-96204414D01*
X95271122Y-96193116D01*
X94914812Y-96010248D01*
X94914808Y-96010246D01*
X94913623Y-96009638D01*
X94910363Y-96008171D01*
X94904270Y-96004488D01*
X94897454Y-96002364D01*
X94890808Y-95999374D01*
X94890417Y-95999197D01*
X94884991Y-95996756D01*
X94884985Y-95996754D01*
X94882728Y-95995875D01*
X94846193Y-95984233D01*
X94838634Y-95982822D01*
X94838770Y-95982090D01*
X94823236Y-95979236D01*
X94747664Y-95955687D01*
X94747662Y-95955686D01*
X94747657Y-95955685D01*
X94679594Y-95949500D01*
X92320406Y-95949500D01*
X92252343Y-95955685D01*
X92252339Y-95955686D01*
X92252335Y-95955687D01*
X92095736Y-96004485D01*
X92095727Y-96004488D01*
X91955351Y-96089348D01*
X91955347Y-96089351D01*
X91839351Y-96205347D01*
X91839347Y-96205352D01*
X91780617Y-96302506D01*
X91729090Y-96349694D01*
X91660230Y-96361533D01*
X91595902Y-96334265D01*
X91556527Y-96276546D01*
X91550500Y-96238357D01*
X91550500Y-95424500D01*
X91570185Y-95357461D01*
X91622989Y-95311706D01*
X91674500Y-95300500D01*
X92710438Y-95300500D01*
X103710438Y-95300500D01*
X215325500Y-95300500D01*
X215392539Y-95320185D01*
G37*
%TD.AperFunction*%
%TD*%
%TA.AperFunction,Conductor*%
%TO.N,DO1*%
G36*
X102701220Y-98291563D02*
G01*
X102703722Y-98294535D01*
X103084301Y-98939679D01*
X103085553Y-98948546D01*
X103082497Y-98953897D01*
X102952204Y-99084190D01*
X102943931Y-99087617D01*
X102941024Y-99087250D01*
X101832856Y-98802982D01*
X101825694Y-98797607D01*
X101824430Y-98788742D01*
X101824496Y-98788495D01*
X101947075Y-98357097D01*
X101952632Y-98350077D01*
X101957379Y-98348635D01*
X102692696Y-98288819D01*
X102701220Y-98291563D01*
G37*
%TD.AperFunction*%
%TD*%
%TA.AperFunction,Conductor*%
%TO.N,DO1*%
G36*
X104378913Y-99252609D02*
G01*
X105478865Y-99986141D01*
X105483847Y-99993582D01*
X105482108Y-100002366D01*
X105475273Y-100007210D01*
X104009552Y-100382026D01*
X104000687Y-100380756D01*
X103997134Y-100377493D01*
X103732541Y-100007210D01*
X103404722Y-99548445D01*
X103402701Y-99539723D01*
X103405967Y-99533373D01*
X103537783Y-99401557D01*
X103543996Y-99398314D01*
X104370369Y-99250826D01*
X104378913Y-99252609D01*
G37*
%TD.AperFunction*%
%TD*%
%TA.AperFunction,Conductor*%
%TO.N,DO2*%
G36*
X114701220Y-98291563D02*
G01*
X114703722Y-98294535D01*
X115084301Y-98939679D01*
X115085553Y-98948546D01*
X115082497Y-98953897D01*
X114952204Y-99084190D01*
X114943931Y-99087617D01*
X114941024Y-99087250D01*
X113832856Y-98802982D01*
X113825694Y-98797607D01*
X113824430Y-98788742D01*
X113824496Y-98788495D01*
X113947075Y-98357097D01*
X113952632Y-98350077D01*
X113957379Y-98348635D01*
X114692696Y-98288819D01*
X114701220Y-98291563D01*
G37*
%TD.AperFunction*%
%TD*%
%TA.AperFunction,Conductor*%
%TO.N,DO2*%
G36*
X116378914Y-99252609D02*
G01*
X117478865Y-99986140D01*
X117483847Y-99993581D01*
X117482108Y-100002365D01*
X117475273Y-100007209D01*
X116009552Y-100382025D01*
X116000687Y-100380755D01*
X115997134Y-100377492D01*
X115722802Y-99993581D01*
X115404721Y-99548445D01*
X115402700Y-99539723D01*
X115405966Y-99533373D01*
X115537783Y-99401556D01*
X115543996Y-99398313D01*
X116370369Y-99250825D01*
X116378914Y-99252609D01*
G37*
%TD.AperFunction*%
%TD*%
%TA.AperFunction,Conductor*%
%TO.N,DO3*%
G36*
X126692672Y-98351258D02*
G01*
X126700935Y-98354707D01*
X126703180Y-98357879D01*
X127028666Y-99033369D01*
X127029170Y-99042310D01*
X127026399Y-99046721D01*
X126896050Y-99177070D01*
X126887777Y-99180497D01*
X126883908Y-99179839D01*
X125810607Y-98803803D01*
X125803933Y-98797833D01*
X125803371Y-98789079D01*
X125946626Y-98357328D01*
X125952484Y-98350556D01*
X125957760Y-98349314D01*
X126692672Y-98351258D01*
G37*
%TD.AperFunction*%
%TD*%
%TA.AperFunction,Conductor*%
%TO.N,DO3*%
G36*
X128235575Y-99280873D02*
G01*
X128235879Y-99281039D01*
X128878091Y-99646448D01*
X129477282Y-99987378D01*
X129482778Y-99994448D01*
X129481665Y-100003333D01*
X129474974Y-100008718D01*
X128024969Y-100460126D01*
X128016051Y-100459313D01*
X128012408Y-100456330D01*
X127637498Y-99994448D01*
X127361673Y-99654636D01*
X127359120Y-99646052D01*
X127362483Y-99638990D01*
X127494397Y-99507076D01*
X127499219Y-99504171D01*
X128226661Y-99280034D01*
X128235575Y-99280873D01*
G37*
%TD.AperFunction*%
%TD*%
%TA.AperFunction,Conductor*%
%TO.N,DO4*%
G36*
X138692673Y-98351259D02*
G01*
X138700936Y-98354708D01*
X138703181Y-98357880D01*
X139028667Y-99033370D01*
X139029171Y-99042311D01*
X139026400Y-99046722D01*
X138896051Y-99177071D01*
X138887778Y-99180498D01*
X138883909Y-99179840D01*
X137810608Y-98803804D01*
X137803934Y-98797834D01*
X137803372Y-98789080D01*
X137946627Y-98357329D01*
X137952485Y-98350557D01*
X137957761Y-98349315D01*
X138692673Y-98351259D01*
G37*
%TD.AperFunction*%
%TD*%
%TA.AperFunction,Conductor*%
%TO.N,DO4*%
G36*
X140235574Y-99280873D02*
G01*
X140235890Y-99281046D01*
X141477281Y-99987378D01*
X141482777Y-99994448D01*
X141481664Y-100003333D01*
X141474973Y-100008718D01*
X140024968Y-100460126D01*
X140016050Y-100459313D01*
X140012407Y-100456330D01*
X139637498Y-99994448D01*
X139361673Y-99654635D01*
X139359120Y-99646051D01*
X139362483Y-99638989D01*
X139494396Y-99507076D01*
X139499218Y-99504171D01*
X140226660Y-99280034D01*
X140235574Y-99280873D01*
G37*
%TD.AperFunction*%
%TD*%
%TA.AperFunction,Conductor*%
%TO.N,DO5*%
G36*
X150692673Y-98351258D02*
G01*
X150700936Y-98354707D01*
X150703181Y-98357879D01*
X151028667Y-99033370D01*
X151029171Y-99042311D01*
X151026400Y-99046722D01*
X150896051Y-99177071D01*
X150887778Y-99180498D01*
X150883909Y-99179840D01*
X149810607Y-98803804D01*
X149803933Y-98797834D01*
X149803371Y-98789080D01*
X149946626Y-98357329D01*
X149952484Y-98350557D01*
X149957760Y-98349315D01*
X150692673Y-98351258D01*
G37*
%TD.AperFunction*%
%TD*%
%TA.AperFunction,Conductor*%
%TO.N,DO5*%
G36*
X152235574Y-99280873D02*
G01*
X152235890Y-99281046D01*
X153477281Y-99987378D01*
X153482777Y-99994448D01*
X153481664Y-100003333D01*
X153474973Y-100008718D01*
X152024968Y-100460126D01*
X152016050Y-100459313D01*
X152012407Y-100456330D01*
X151637498Y-99994448D01*
X151361673Y-99654635D01*
X151359120Y-99646051D01*
X151362483Y-99638989D01*
X151494396Y-99507076D01*
X151499218Y-99504171D01*
X152226660Y-99280034D01*
X152235574Y-99280873D01*
G37*
%TD.AperFunction*%
%TD*%
%TA.AperFunction,Conductor*%
%TO.N,DO6*%
G36*
X162692673Y-98351258D02*
G01*
X162700936Y-98354707D01*
X162703181Y-98357879D01*
X163028667Y-99033370D01*
X163029171Y-99042311D01*
X163026400Y-99046722D01*
X162896051Y-99177071D01*
X162887778Y-99180498D01*
X162883909Y-99179840D01*
X161810607Y-98803804D01*
X161803933Y-98797834D01*
X161803371Y-98789080D01*
X161946626Y-98357329D01*
X161952484Y-98350557D01*
X161957760Y-98349315D01*
X162692673Y-98351258D01*
G37*
%TD.AperFunction*%
%TD*%
%TA.AperFunction,Conductor*%
%TO.N,DO6*%
G36*
X164235574Y-99280873D02*
G01*
X164235890Y-99281046D01*
X165477281Y-99987378D01*
X165482777Y-99994448D01*
X165481664Y-100003333D01*
X165474973Y-100008718D01*
X164024968Y-100460126D01*
X164016050Y-100459313D01*
X164012407Y-100456330D01*
X163637498Y-99994448D01*
X163361673Y-99654635D01*
X163359120Y-99646051D01*
X163362483Y-99638989D01*
X163494396Y-99507076D01*
X163499218Y-99504171D01*
X164226660Y-99280034D01*
X164235574Y-99280873D01*
G37*
%TD.AperFunction*%
%TD*%
%TA.AperFunction,Conductor*%
%TO.N,DO7*%
G36*
X174692673Y-98351258D02*
G01*
X174700936Y-98354707D01*
X174703181Y-98357879D01*
X175028667Y-99033369D01*
X175029171Y-99042310D01*
X175026400Y-99046721D01*
X174896051Y-99177070D01*
X174887778Y-99180497D01*
X174883909Y-99179839D01*
X173810607Y-98803804D01*
X173803933Y-98797834D01*
X173803371Y-98789080D01*
X173946626Y-98357329D01*
X173952484Y-98350557D01*
X173957760Y-98349315D01*
X174692673Y-98351258D01*
G37*
%TD.AperFunction*%
%TD*%
%TA.AperFunction,Conductor*%
%TO.N,DO7*%
G36*
X176235574Y-99280872D02*
G01*
X176235890Y-99281045D01*
X177477281Y-99987377D01*
X177482777Y-99994447D01*
X177481664Y-100003332D01*
X177474973Y-100008717D01*
X176024968Y-100460125D01*
X176016050Y-100459312D01*
X176012407Y-100456329D01*
X175637498Y-99994447D01*
X175361673Y-99654634D01*
X175359120Y-99646050D01*
X175362483Y-99638988D01*
X175494396Y-99507075D01*
X175499218Y-99504170D01*
X176226660Y-99280033D01*
X176235574Y-99280872D01*
G37*
%TD.AperFunction*%
%TD*%
%TA.AperFunction,Conductor*%
%TO.N,DO8*%
G36*
X188235574Y-99280872D02*
G01*
X188235878Y-99281038D01*
X188878090Y-99646447D01*
X189477281Y-99987377D01*
X189482777Y-99994447D01*
X189481664Y-100003332D01*
X189474973Y-100008717D01*
X188024968Y-100460125D01*
X188016050Y-100459312D01*
X188012407Y-100456329D01*
X187631759Y-99987377D01*
X187361673Y-99654635D01*
X187359120Y-99646051D01*
X187362483Y-99638989D01*
X187494396Y-99507076D01*
X187499218Y-99504171D01*
X188226660Y-99280033D01*
X188235574Y-99280872D01*
G37*
%TD.AperFunction*%
%TD*%
%TA.AperFunction,Conductor*%
%TO.N,DO8*%
G36*
X186692672Y-98351258D02*
G01*
X186700935Y-98354707D01*
X186703180Y-98357879D01*
X187028666Y-99033369D01*
X187029170Y-99042310D01*
X187026399Y-99046721D01*
X186896050Y-99177070D01*
X186887777Y-99180497D01*
X186883908Y-99179839D01*
X185810607Y-98803803D01*
X185803933Y-98797833D01*
X185803371Y-98789079D01*
X185946626Y-98357328D01*
X185952484Y-98350556D01*
X185957760Y-98349314D01*
X186692672Y-98351258D01*
G37*
%TD.AperFunction*%
%TD*%
%TA.AperFunction,Conductor*%
%TO.N,DO9*%
G36*
X198692672Y-98351258D02*
G01*
X198700935Y-98354707D01*
X198703180Y-98357879D01*
X199028665Y-99033369D01*
X199029169Y-99042310D01*
X199026398Y-99046721D01*
X198896049Y-99177070D01*
X198887776Y-99180497D01*
X198883907Y-99179839D01*
X197810607Y-98803803D01*
X197803933Y-98797833D01*
X197803371Y-98789079D01*
X197946626Y-98357328D01*
X197952484Y-98350556D01*
X197957760Y-98349314D01*
X198692672Y-98351258D01*
G37*
%TD.AperFunction*%
%TD*%
%TA.AperFunction,Conductor*%
%TO.N,DO9*%
G36*
X200235574Y-99280873D02*
G01*
X200235878Y-99281039D01*
X200878090Y-99646448D01*
X201477281Y-99987378D01*
X201482777Y-99994448D01*
X201481664Y-100003333D01*
X201474973Y-100008718D01*
X200024968Y-100460126D01*
X200016050Y-100459313D01*
X200012407Y-100456330D01*
X199637497Y-99994448D01*
X199361672Y-99654636D01*
X199359119Y-99646052D01*
X199362482Y-99638990D01*
X199494396Y-99507076D01*
X199499218Y-99504171D01*
X200226660Y-99280034D01*
X200235574Y-99280873D01*
G37*
%TD.AperFunction*%
%TD*%
%TA.AperFunction,Conductor*%
%TO.N,DO*%
G36*
X212236918Y-99281630D02*
G01*
X213479934Y-99988887D01*
X213485430Y-99995957D01*
X213484317Y-100004842D01*
X213478631Y-100009863D01*
X212084221Y-100588280D01*
X212075266Y-100588285D01*
X212071611Y-100585890D01*
X211290367Y-99831494D01*
X211286796Y-99823282D01*
X211290077Y-99814950D01*
X211290149Y-99814877D01*
X211421881Y-99683144D01*
X211424924Y-99680953D01*
X212225910Y-99281329D01*
X212234842Y-99280703D01*
X212236918Y-99281630D01*
G37*
%TD.AperFunction*%
%TD*%
%TA.AperFunction,Conductor*%
%TO.N,DO*%
G36*
X210691489Y-98462308D02*
G01*
X210699152Y-98466942D01*
X210701295Y-98472114D01*
X210788017Y-99041637D01*
X210785874Y-99050331D01*
X210784723Y-99051671D01*
X210653146Y-99183248D01*
X210644873Y-99186675D01*
X210640161Y-99185684D01*
X209774062Y-98804601D01*
X209767870Y-98798133D01*
X209767955Y-98789436D01*
X209945794Y-98357784D01*
X209952114Y-98351441D01*
X209958370Y-98350675D01*
X210691489Y-98462308D01*
G37*
%TD.AperFunction*%
%TD*%
%TA.AperFunction,Conductor*%
%TO.N,GND*%
G36*
X206788762Y-103239699D02*
G01*
X207014050Y-103492211D01*
X207017001Y-103500666D01*
X207014050Y-103507789D01*
X206788762Y-103760300D01*
X206780698Y-103764192D01*
X206772279Y-103761274D01*
X206593947Y-103603492D01*
X206590022Y-103595443D01*
X206590000Y-103594729D01*
X206590000Y-103405270D01*
X206593427Y-103396997D01*
X206593932Y-103396520D01*
X206772279Y-103238724D01*
X206780746Y-103235810D01*
X206788762Y-103239699D01*
G37*
%TD.AperFunction*%
%TD*%
%TA.AperFunction,Conductor*%
%TO.N,GND*%
G36*
X206929283Y-103286173D02*
G01*
X207017450Y-103396800D01*
X207020000Y-103404092D01*
X207020000Y-103595907D01*
X207017450Y-103603199D01*
X206929283Y-103713826D01*
X206921447Y-103718160D01*
X206913646Y-103716271D01*
X206603616Y-103509737D01*
X206598631Y-103502298D01*
X206600366Y-103493513D01*
X206603616Y-103490263D01*
X206913647Y-103283727D01*
X206922431Y-103281993D01*
X206929283Y-103286173D01*
G37*
%TD.AperFunction*%
%TD*%
%TA.AperFunction,Conductor*%
%TO.N,GND*%
G36*
X194788188Y-103239133D02*
G01*
X194957271Y-103430507D01*
X195012430Y-103492937D01*
X195015340Y-103501406D01*
X195012410Y-103508454D01*
X194791532Y-103757139D01*
X194783476Y-103761049D01*
X194775014Y-103758117D01*
X194772783Y-103755440D01*
X194660712Y-103570709D01*
X194528783Y-103438780D01*
X194525356Y-103430507D01*
X194528783Y-103422234D01*
X194529981Y-103421188D01*
X194772358Y-103237554D01*
X194781019Y-103235291D01*
X194788188Y-103239133D01*
G37*
%TD.AperFunction*%
%TD*%
%TA.AperFunction,Conductor*%
%TO.N,GND*%
G36*
X194929283Y-103286173D02*
G01*
X195017450Y-103396798D01*
X195020000Y-103404090D01*
X195020000Y-103595905D01*
X195017450Y-103603197D01*
X194929283Y-103713826D01*
X194921447Y-103718160D01*
X194913646Y-103716271D01*
X194603616Y-103509737D01*
X194598631Y-103502298D01*
X194600366Y-103493513D01*
X194603616Y-103490263D01*
X194913647Y-103283727D01*
X194922431Y-103281993D01*
X194929283Y-103286173D01*
G37*
%TD.AperFunction*%
%TD*%
%TA.AperFunction,Conductor*%
%TO.N,GND*%
G36*
X182788762Y-103239698D02*
G01*
X183014050Y-103492210D01*
X183017001Y-103500665D01*
X183014050Y-103507788D01*
X182788762Y-103760299D01*
X182780698Y-103764191D01*
X182772279Y-103761273D01*
X182593947Y-103603492D01*
X182590022Y-103595443D01*
X182590000Y-103594729D01*
X182590000Y-103405270D01*
X182593427Y-103396997D01*
X182593933Y-103396520D01*
X182772279Y-103238723D01*
X182780746Y-103235809D01*
X182788762Y-103239698D01*
G37*
%TD.AperFunction*%
%TD*%
%TA.AperFunction,Conductor*%
%TO.N,GND*%
G36*
X182929283Y-103286173D02*
G01*
X183017450Y-103396799D01*
X183020000Y-103404091D01*
X183020000Y-103595906D01*
X183017450Y-103603198D01*
X182929283Y-103713826D01*
X182921447Y-103718160D01*
X182913646Y-103716271D01*
X182603616Y-103509737D01*
X182598631Y-103502298D01*
X182600366Y-103493513D01*
X182603616Y-103490263D01*
X182913647Y-103283727D01*
X182922431Y-103281993D01*
X182929283Y-103286173D01*
G37*
%TD.AperFunction*%
%TD*%
%TA.AperFunction,Conductor*%
%TO.N,GND*%
G36*
X170788762Y-103239699D02*
G01*
X171014050Y-103492211D01*
X171017001Y-103500666D01*
X171014050Y-103507789D01*
X170788762Y-103760300D01*
X170780698Y-103764192D01*
X170772279Y-103761274D01*
X170593947Y-103603492D01*
X170590022Y-103595443D01*
X170590000Y-103594729D01*
X170590000Y-103405270D01*
X170593427Y-103396997D01*
X170593932Y-103396520D01*
X170772279Y-103238724D01*
X170780746Y-103235810D01*
X170788762Y-103239699D01*
G37*
%TD.AperFunction*%
%TD*%
%TA.AperFunction,Conductor*%
%TO.N,GND*%
G36*
X170929283Y-103286173D02*
G01*
X171017450Y-103396800D01*
X171020000Y-103404092D01*
X171020000Y-103595907D01*
X171017450Y-103603199D01*
X170929283Y-103713826D01*
X170921447Y-103718160D01*
X170913646Y-103716271D01*
X170603616Y-103509737D01*
X170598631Y-103502298D01*
X170600366Y-103493513D01*
X170603616Y-103490263D01*
X170913647Y-103283727D01*
X170922431Y-103281993D01*
X170929283Y-103286173D01*
G37*
%TD.AperFunction*%
%TD*%
%TA.AperFunction,Conductor*%
%TO.N,GND*%
G36*
X158788762Y-103239699D02*
G01*
X159014050Y-103492211D01*
X159017001Y-103500666D01*
X159014050Y-103507789D01*
X158788762Y-103760300D01*
X158780698Y-103764192D01*
X158772279Y-103761274D01*
X158593947Y-103603492D01*
X158590022Y-103595443D01*
X158590000Y-103594729D01*
X158590000Y-103405270D01*
X158593427Y-103396997D01*
X158593932Y-103396520D01*
X158772279Y-103238724D01*
X158780746Y-103235810D01*
X158788762Y-103239699D01*
G37*
%TD.AperFunction*%
%TD*%
%TA.AperFunction,Conductor*%
%TO.N,GND*%
G36*
X158929283Y-103286173D02*
G01*
X159017450Y-103396800D01*
X159020000Y-103404092D01*
X159020000Y-103595907D01*
X159017450Y-103603199D01*
X158929283Y-103713826D01*
X158921447Y-103718160D01*
X158913646Y-103716271D01*
X158603616Y-103509737D01*
X158598631Y-103502298D01*
X158600366Y-103493513D01*
X158603616Y-103490263D01*
X158913647Y-103283727D01*
X158922431Y-103281993D01*
X158929283Y-103286173D01*
G37*
%TD.AperFunction*%
%TD*%
%TA.AperFunction,Conductor*%
%TO.N,GND*%
G36*
X146788762Y-103239698D02*
G01*
X147014050Y-103492210D01*
X147017001Y-103500665D01*
X147014050Y-103507788D01*
X146788762Y-103760299D01*
X146780698Y-103764191D01*
X146772279Y-103761273D01*
X146593947Y-103603492D01*
X146590022Y-103595443D01*
X146590000Y-103594729D01*
X146590000Y-103405270D01*
X146593427Y-103396997D01*
X146593933Y-103396520D01*
X146772279Y-103238723D01*
X146780746Y-103235809D01*
X146788762Y-103239698D01*
G37*
%TD.AperFunction*%
%TD*%
%TA.AperFunction,Conductor*%
%TO.N,GND*%
G36*
X146929283Y-103286173D02*
G01*
X147017450Y-103396799D01*
X147020000Y-103404091D01*
X147020000Y-103595906D01*
X147017450Y-103603198D01*
X146929283Y-103713826D01*
X146921447Y-103718160D01*
X146913646Y-103716271D01*
X146603616Y-103509737D01*
X146598631Y-103502298D01*
X146600366Y-103493513D01*
X146603616Y-103490263D01*
X146913647Y-103283727D01*
X146922431Y-103281993D01*
X146929283Y-103286173D01*
G37*
%TD.AperFunction*%
%TD*%
%TA.AperFunction,Conductor*%
%TO.N,GND*%
G36*
X134788764Y-103239699D02*
G01*
X135014052Y-103492211D01*
X135017003Y-103500666D01*
X135014052Y-103507789D01*
X134788764Y-103760300D01*
X134780700Y-103764192D01*
X134772281Y-103761274D01*
X134593947Y-103603492D01*
X134590022Y-103595443D01*
X134590000Y-103594729D01*
X134590000Y-103405270D01*
X134593427Y-103396997D01*
X134593932Y-103396521D01*
X134772281Y-103238724D01*
X134780748Y-103235810D01*
X134788764Y-103239699D01*
G37*
%TD.AperFunction*%
%TD*%
%TA.AperFunction,Conductor*%
%TO.N,GND*%
G36*
X134929283Y-103286173D02*
G01*
X135017452Y-103396800D01*
X135020002Y-103404092D01*
X135020002Y-103595907D01*
X135017452Y-103603199D01*
X134929283Y-103713826D01*
X134921446Y-103718160D01*
X134913646Y-103716271D01*
X134603616Y-103509737D01*
X134598631Y-103502298D01*
X134600366Y-103493513D01*
X134603616Y-103490263D01*
X134913647Y-103283727D01*
X134922431Y-103281993D01*
X134929283Y-103286173D01*
G37*
%TD.AperFunction*%
%TD*%
%TA.AperFunction,Conductor*%
%TO.N,GND*%
G36*
X122788762Y-103239698D02*
G01*
X123014050Y-103492210D01*
X123017001Y-103500665D01*
X123014050Y-103507788D01*
X122788762Y-103760299D01*
X122780698Y-103764191D01*
X122772279Y-103761273D01*
X122593947Y-103603492D01*
X122590022Y-103595443D01*
X122590000Y-103594729D01*
X122590000Y-103405270D01*
X122593427Y-103396997D01*
X122593933Y-103396520D01*
X122772279Y-103238723D01*
X122780746Y-103235809D01*
X122788762Y-103239698D01*
G37*
%TD.AperFunction*%
%TD*%
%TA.AperFunction,Conductor*%
%TO.N,GND*%
G36*
X122929283Y-103286173D02*
G01*
X123017450Y-103396799D01*
X123020000Y-103404091D01*
X123020000Y-103595906D01*
X123017450Y-103603198D01*
X122929283Y-103713826D01*
X122921447Y-103718160D01*
X122913646Y-103716271D01*
X122603616Y-103509737D01*
X122598631Y-103502298D01*
X122600366Y-103493513D01*
X122603616Y-103490263D01*
X122913647Y-103283727D01*
X122922431Y-103281993D01*
X122929283Y-103286173D01*
G37*
%TD.AperFunction*%
%TD*%
%TA.AperFunction,Conductor*%
%TO.N,GND*%
G36*
X110788873Y-103240720D02*
G01*
X110791704Y-103243043D01*
X111013781Y-103492914D01*
X111016716Y-103501374D01*
X111013761Y-103508481D01*
X110788510Y-103760594D01*
X110780442Y-103764481D01*
X110772326Y-103761813D01*
X110689222Y-103693048D01*
X110539193Y-103568904D01*
X110535005Y-103560992D01*
X110537639Y-103552433D01*
X110538369Y-103551630D01*
X110670710Y-103419290D01*
X110772865Y-103244899D01*
X110780002Y-103239495D01*
X110788873Y-103240720D01*
G37*
%TD.AperFunction*%
%TD*%
%TA.AperFunction,Conductor*%
%TO.N,GND*%
G36*
X110939038Y-103277530D02*
G01*
X110939063Y-103277566D01*
X111018060Y-103397065D01*
X111020000Y-103403517D01*
X111020000Y-103595982D01*
X111017530Y-103603170D01*
X110983133Y-103647332D01*
X110939263Y-103703657D01*
X110931476Y-103708078D01*
X110923546Y-103706204D01*
X110613616Y-103499737D01*
X110608631Y-103492298D01*
X110610366Y-103483513D01*
X110613616Y-103480263D01*
X110728820Y-103403517D01*
X110922817Y-103274280D01*
X110931601Y-103272546D01*
X110939038Y-103277530D01*
G37*
%TD.AperFunction*%
%TD*%
%TA.AperFunction,Conductor*%
%TO.N,GND*%
G36*
X98788762Y-103239699D02*
G01*
X99014050Y-103492211D01*
X99017001Y-103500666D01*
X99014050Y-103507789D01*
X98788762Y-103760300D01*
X98780698Y-103764192D01*
X98772279Y-103761274D01*
X98593947Y-103603492D01*
X98590022Y-103595443D01*
X98590000Y-103594729D01*
X98590000Y-103405270D01*
X98593427Y-103396997D01*
X98593932Y-103396520D01*
X98772279Y-103238724D01*
X98780746Y-103235810D01*
X98788762Y-103239699D01*
G37*
%TD.AperFunction*%
%TD*%
%TA.AperFunction,Conductor*%
%TO.N,GND*%
G36*
X98929283Y-103286173D02*
G01*
X99017450Y-103396800D01*
X99020000Y-103404092D01*
X99020000Y-103595907D01*
X99017450Y-103603199D01*
X98929283Y-103713826D01*
X98921447Y-103718160D01*
X98913646Y-103716271D01*
X98603616Y-103509737D01*
X98598631Y-103502298D01*
X98600366Y-103493513D01*
X98603616Y-103490263D01*
X98913647Y-103283727D01*
X98922431Y-103281993D01*
X98929283Y-103286173D01*
G37*
%TD.AperFunction*%
%TD*%
%TA.AperFunction,Conductor*%
%TO.N,GND*%
G36*
X94774131Y-96281432D02*
G01*
X95193643Y-96496737D01*
X95199438Y-96503562D01*
X95200000Y-96507145D01*
X95200000Y-97492854D01*
X95196573Y-97501127D01*
X95193642Y-97503263D01*
X94774131Y-97718567D01*
X94765206Y-97719296D01*
X94763008Y-97718330D01*
X93516899Y-97010172D01*
X93511400Y-97003105D01*
X93512508Y-96994219D01*
X93516899Y-96989828D01*
X94763009Y-96281668D01*
X94771894Y-96280561D01*
X94774131Y-96281432D01*
G37*
%TD.AperFunction*%
%TD*%
%TA.AperFunction,Conductor*%
%TO.N,GND*%
G36*
X178774091Y-96281346D02*
G01*
X179203546Y-96496763D01*
X179209404Y-96503534D01*
X179210000Y-96507220D01*
X179210000Y-97492779D01*
X179206573Y-97501052D01*
X179203546Y-97503237D01*
X178774095Y-97718651D01*
X178765163Y-97719297D01*
X178763071Y-97718366D01*
X177516898Y-97010171D01*
X177511400Y-97003105D01*
X177512508Y-96994219D01*
X177516899Y-96989828D01*
X178763071Y-96281633D01*
X178771954Y-96280526D01*
X178774091Y-96281346D01*
G37*
%TD.AperFunction*%
%TD*%
%TA.AperFunction,Conductor*%
%TO.N,DO9*%
G36*
X204332729Y-101230083D02*
G01*
X204964085Y-101599187D01*
X205033722Y-101639899D01*
X205039135Y-101647033D01*
X205037918Y-101655905D01*
X205033722Y-101660101D01*
X204332733Y-102069914D01*
X204323861Y-102071131D01*
X204320253Y-102069491D01*
X203855125Y-101753481D01*
X203850208Y-101745997D01*
X203850000Y-101743803D01*
X203850000Y-101556196D01*
X203853427Y-101547923D01*
X203855125Y-101546518D01*
X204320255Y-101230507D01*
X204329022Y-101228694D01*
X204332729Y-101230083D01*
G37*
%TD.AperFunction*%
%TD*%
%TA.AperFunction,Conductor*%
%TO.N,DO9*%
G36*
X202979209Y-100425750D02*
G01*
X202986208Y-100431333D01*
X202987489Y-100439032D01*
X202851682Y-101205991D01*
X202848434Y-101212224D01*
X202715050Y-101345608D01*
X202706777Y-101349035D01*
X202702476Y-101348216D01*
X202143757Y-101127327D01*
X201200385Y-100754366D01*
X201193952Y-100748137D01*
X201193806Y-100739183D01*
X201193873Y-100739020D01*
X201495298Y-100008967D01*
X201501621Y-100002630D01*
X201509350Y-100002191D01*
X202979209Y-100425750D01*
G37*
%TD.AperFunction*%
%TD*%
%TA.AperFunction,Conductor*%
%TO.N,DO8*%
G36*
X192332729Y-101230082D02*
G01*
X192964085Y-101599186D01*
X193033722Y-101639898D01*
X193039135Y-101647032D01*
X193037918Y-101655904D01*
X193033722Y-101660100D01*
X192332733Y-102069913D01*
X192323861Y-102071130D01*
X192320253Y-102069490D01*
X191855125Y-101753480D01*
X191850208Y-101745996D01*
X191850000Y-101743802D01*
X191850000Y-101556195D01*
X191853427Y-101547922D01*
X191855125Y-101546517D01*
X192320255Y-101230506D01*
X192329022Y-101228693D01*
X192332729Y-101230082D01*
G37*
%TD.AperFunction*%
%TD*%
%TA.AperFunction,Conductor*%
%TO.N,DO8*%
G36*
X190979209Y-100425749D02*
G01*
X190986208Y-100431332D01*
X190987489Y-100439031D01*
X190851682Y-101205990D01*
X190848434Y-101212223D01*
X190715050Y-101345607D01*
X190706777Y-101349034D01*
X190702476Y-101348215D01*
X190143757Y-101127326D01*
X189200385Y-100754365D01*
X189193952Y-100748136D01*
X189193806Y-100739182D01*
X189193873Y-100739019D01*
X189495298Y-100008966D01*
X189501621Y-100002629D01*
X189509350Y-100002190D01*
X190979209Y-100425749D01*
G37*
%TD.AperFunction*%
%TD*%
%TA.AperFunction,Conductor*%
%TO.N,DO7*%
G36*
X180332729Y-101230082D02*
G01*
X180964085Y-101599186D01*
X181033722Y-101639898D01*
X181039135Y-101647032D01*
X181037918Y-101655904D01*
X181033722Y-101660100D01*
X180332733Y-102069913D01*
X180323861Y-102071130D01*
X180320253Y-102069490D01*
X179855125Y-101753480D01*
X179850208Y-101745996D01*
X179850000Y-101743802D01*
X179850000Y-101556195D01*
X179853427Y-101547922D01*
X179855125Y-101546517D01*
X180320255Y-101230506D01*
X180329022Y-101228693D01*
X180332729Y-101230082D01*
G37*
%TD.AperFunction*%
%TD*%
%TA.AperFunction,Conductor*%
%TO.N,DO7*%
G36*
X178979209Y-100425749D02*
G01*
X178986208Y-100431332D01*
X178987489Y-100439031D01*
X178851682Y-101205990D01*
X178848434Y-101212223D01*
X178715050Y-101345607D01*
X178706777Y-101349034D01*
X178702476Y-101348215D01*
X178143757Y-101127326D01*
X177200385Y-100754365D01*
X177193952Y-100748136D01*
X177193806Y-100739182D01*
X177193873Y-100739019D01*
X177495298Y-100008966D01*
X177501621Y-100002629D01*
X177509350Y-100002190D01*
X178979209Y-100425749D01*
G37*
%TD.AperFunction*%
%TD*%
%TA.AperFunction,Conductor*%
%TO.N,DO6*%
G36*
X168332729Y-101230083D02*
G01*
X168964085Y-101599187D01*
X169033722Y-101639899D01*
X169039135Y-101647033D01*
X169037918Y-101655905D01*
X169033722Y-101660101D01*
X168332733Y-102069914D01*
X168323861Y-102071131D01*
X168320253Y-102069491D01*
X167855125Y-101753481D01*
X167850208Y-101745997D01*
X167850000Y-101743803D01*
X167850000Y-101556196D01*
X167853427Y-101547923D01*
X167855125Y-101546518D01*
X168320255Y-101230507D01*
X168329022Y-101228694D01*
X168332729Y-101230083D01*
G37*
%TD.AperFunction*%
%TD*%
%TA.AperFunction,Conductor*%
%TO.N,DO6*%
G36*
X166979209Y-100425750D02*
G01*
X166986208Y-100431333D01*
X166987489Y-100439032D01*
X166851682Y-101205991D01*
X166848434Y-101212224D01*
X166715050Y-101345608D01*
X166706777Y-101349035D01*
X166702476Y-101348216D01*
X166143757Y-101127327D01*
X165200385Y-100754366D01*
X165193952Y-100748137D01*
X165193806Y-100739183D01*
X165193873Y-100739020D01*
X165495298Y-100008967D01*
X165501621Y-100002630D01*
X165509350Y-100002191D01*
X166979209Y-100425750D01*
G37*
%TD.AperFunction*%
%TD*%
%TA.AperFunction,Conductor*%
%TO.N,DO5*%
G36*
X156332729Y-101230083D02*
G01*
X156964085Y-101599187D01*
X157033722Y-101639899D01*
X157039135Y-101647033D01*
X157037918Y-101655905D01*
X157033722Y-101660101D01*
X156332733Y-102069914D01*
X156323861Y-102071131D01*
X156320253Y-102069491D01*
X155855125Y-101753481D01*
X155850208Y-101745997D01*
X155850000Y-101743803D01*
X155850000Y-101556196D01*
X155853427Y-101547923D01*
X155855125Y-101546518D01*
X156320255Y-101230507D01*
X156329022Y-101228694D01*
X156332729Y-101230083D01*
G37*
%TD.AperFunction*%
%TD*%
%TA.AperFunction,Conductor*%
%TO.N,DO5*%
G36*
X154979209Y-100425750D02*
G01*
X154986208Y-100431333D01*
X154987489Y-100439032D01*
X154851682Y-101205991D01*
X154848434Y-101212224D01*
X154715050Y-101345608D01*
X154706777Y-101349035D01*
X154702476Y-101348216D01*
X154143757Y-101127327D01*
X153200385Y-100754366D01*
X153193952Y-100748137D01*
X153193806Y-100739183D01*
X153193873Y-100739020D01*
X153495298Y-100008967D01*
X153501621Y-100002630D01*
X153509350Y-100002191D01*
X154979209Y-100425750D01*
G37*
%TD.AperFunction*%
%TD*%
%TA.AperFunction,Conductor*%
%TO.N,DO4*%
G36*
X144332729Y-101230083D02*
G01*
X144964085Y-101599187D01*
X145033722Y-101639899D01*
X145039135Y-101647033D01*
X145037918Y-101655905D01*
X145033722Y-101660101D01*
X144332733Y-102069914D01*
X144323861Y-102071131D01*
X144320253Y-102069491D01*
X143855125Y-101753481D01*
X143850208Y-101745997D01*
X143850000Y-101743803D01*
X143850000Y-101556196D01*
X143853427Y-101547923D01*
X143855125Y-101546518D01*
X144320255Y-101230507D01*
X144329022Y-101228694D01*
X144332729Y-101230083D01*
G37*
%TD.AperFunction*%
%TD*%
%TA.AperFunction,Conductor*%
%TO.N,DO4*%
G36*
X142979209Y-100425750D02*
G01*
X142986208Y-100431333D01*
X142987489Y-100439032D01*
X142851682Y-101205991D01*
X142848434Y-101212224D01*
X142715050Y-101345608D01*
X142706777Y-101349035D01*
X142702476Y-101348216D01*
X142143757Y-101127327D01*
X141200385Y-100754366D01*
X141193952Y-100748137D01*
X141193806Y-100739183D01*
X141193873Y-100739020D01*
X141495298Y-100008967D01*
X141501621Y-100002630D01*
X141509350Y-100002191D01*
X142979209Y-100425750D01*
G37*
%TD.AperFunction*%
%TD*%
%TA.AperFunction,Conductor*%
%TO.N,DO3*%
G36*
X132332730Y-101230083D02*
G01*
X132964086Y-101599187D01*
X133033723Y-101639899D01*
X133039136Y-101647033D01*
X133037919Y-101655905D01*
X133033723Y-101660101D01*
X132332734Y-102069914D01*
X132323862Y-102071131D01*
X132320254Y-102069491D01*
X131855126Y-101753481D01*
X131850209Y-101745997D01*
X131850001Y-101743803D01*
X131850001Y-101556196D01*
X131853428Y-101547923D01*
X131855126Y-101546518D01*
X132320256Y-101230507D01*
X132329023Y-101228694D01*
X132332730Y-101230083D01*
G37*
%TD.AperFunction*%
%TD*%
%TA.AperFunction,Conductor*%
%TO.N,DO3*%
G36*
X130979210Y-100425750D02*
G01*
X130986209Y-100431333D01*
X130987490Y-100439032D01*
X130851683Y-101205991D01*
X130848435Y-101212224D01*
X130715051Y-101345608D01*
X130706778Y-101349035D01*
X130702477Y-101348216D01*
X130143758Y-101127327D01*
X129200386Y-100754366D01*
X129193953Y-100748137D01*
X129193807Y-100739183D01*
X129193874Y-100739020D01*
X129495299Y-100008967D01*
X129501622Y-100002630D01*
X129509351Y-100002191D01*
X130979210Y-100425750D01*
G37*
%TD.AperFunction*%
%TD*%
%TA.AperFunction,Conductor*%
%TO.N,DO2*%
G36*
X120332729Y-101230082D02*
G01*
X120964085Y-101599186D01*
X121033722Y-101639898D01*
X121039135Y-101647032D01*
X121037918Y-101655904D01*
X121033722Y-101660100D01*
X120332733Y-102069913D01*
X120323861Y-102071130D01*
X120320253Y-102069490D01*
X119855125Y-101753480D01*
X119850208Y-101745996D01*
X119850000Y-101743802D01*
X119850000Y-101556195D01*
X119853427Y-101547922D01*
X119855125Y-101546517D01*
X120320255Y-101230506D01*
X120329022Y-101228693D01*
X120332729Y-101230082D01*
G37*
%TD.AperFunction*%
%TD*%
%TA.AperFunction,Conductor*%
%TO.N,DO2*%
G36*
X118979209Y-100425749D02*
G01*
X118986208Y-100431332D01*
X118987489Y-100439031D01*
X118851682Y-101205990D01*
X118848434Y-101212223D01*
X118715050Y-101345607D01*
X118706777Y-101349034D01*
X118702476Y-101348215D01*
X118143757Y-101127326D01*
X117200385Y-100754365D01*
X117193952Y-100748136D01*
X117193806Y-100739182D01*
X117193873Y-100739019D01*
X117495298Y-100008966D01*
X117501621Y-100002629D01*
X117509350Y-100002190D01*
X118979209Y-100425749D01*
G37*
%TD.AperFunction*%
%TD*%
%TA.AperFunction,Conductor*%
%TO.N,DO1*%
G36*
X108332729Y-101230083D02*
G01*
X108964085Y-101599187D01*
X109033722Y-101639899D01*
X109039135Y-101647033D01*
X109037918Y-101655905D01*
X109033722Y-101660101D01*
X108332733Y-102069914D01*
X108323861Y-102071131D01*
X108320253Y-102069491D01*
X107855125Y-101753481D01*
X107850208Y-101745997D01*
X107850000Y-101743803D01*
X107850000Y-101556196D01*
X107853427Y-101547923D01*
X107855125Y-101546518D01*
X108320255Y-101230507D01*
X108329022Y-101228694D01*
X108332729Y-101230083D01*
G37*
%TD.AperFunction*%
%TD*%
%TA.AperFunction,Conductor*%
%TO.N,DO1*%
G36*
X106979209Y-100425750D02*
G01*
X106986208Y-100431333D01*
X106987489Y-100439032D01*
X106851682Y-101205991D01*
X106848434Y-101212224D01*
X106715050Y-101345608D01*
X106706777Y-101349035D01*
X106702476Y-101348216D01*
X106143757Y-101127327D01*
X105200385Y-100754366D01*
X105193952Y-100748137D01*
X105193806Y-100739183D01*
X105193873Y-100739020D01*
X105495298Y-100008967D01*
X105501621Y-100002630D01*
X105509350Y-100002191D01*
X106979209Y-100425750D01*
G37*
%TD.AperFunction*%
%TD*%
%TA.AperFunction,Conductor*%
%TO.N,/Segment/DI*%
G36*
X96332729Y-101230083D02*
G01*
X96964085Y-101599187D01*
X97033722Y-101639899D01*
X97039135Y-101647033D01*
X97037918Y-101655905D01*
X97033722Y-101660101D01*
X96332733Y-102069914D01*
X96323861Y-102071131D01*
X96320253Y-102069491D01*
X95855125Y-101753481D01*
X95850208Y-101745997D01*
X95850000Y-101743803D01*
X95850000Y-101556196D01*
X95853427Y-101547923D01*
X95855125Y-101546518D01*
X96320255Y-101230507D01*
X96329022Y-101228694D01*
X96332729Y-101230083D01*
G37*
%TD.AperFunction*%
%TD*%
%TA.AperFunction,Conductor*%
%TO.N,/Segment/DI*%
G36*
X94979209Y-100425750D02*
G01*
X94986208Y-100431333D01*
X94987489Y-100439032D01*
X94851682Y-101205991D01*
X94848434Y-101212224D01*
X94715050Y-101345608D01*
X94706777Y-101349035D01*
X94702476Y-101348216D01*
X94143757Y-101127327D01*
X93200385Y-100754366D01*
X93193952Y-100748137D01*
X93193806Y-100739183D01*
X93193873Y-100739020D01*
X93495298Y-100008967D01*
X93501621Y-100002630D01*
X93509350Y-100002191D01*
X94979209Y-100425750D01*
G37*
%TD.AperFunction*%
%TD*%
M02*
