M48
; DRILL file {KiCad 9.0.7} date 2026-02-12T08:28:05+0100
; FORMAT={-:-/ absolute / metric / decimal}
; #@! TF.CreationDate,2026-02-12T08:28:05+01:00
; #@! TF.GenerationSoftware,Kicad,Pcbnew,9.0.7
; #@! TF.FileFunction,Plated,1,2,PTH
FMAT,2
METRIC
; #@! TA.AperFunction,Plated,PTH,ViaDrill
T1C0.300
%
G90
G05
T1
X95.2Y-97.0
X98.0Y-98.36
X98.59Y-103.5
X107.0Y-97.0
X110.01Y-98.35
X110.6Y-103.49
X119.0Y-97.0
X122.01Y-98.35
X122.59Y-103.5
X131.0Y-97.0
X134.01Y-98.36
X134.59Y-103.5
X143.0Y-97.0
X146.02Y-98.35
X146.59Y-103.5
X155.0Y-97.0
X158.01Y-98.35
X158.59Y-103.5
X167.0Y-97.0
X170.04Y-98.35
X170.59Y-103.5
X179.21Y-97.0
X182.01Y-98.34
X182.59Y-103.5
X183.325Y-96.97
X187.6Y-96.5
M30
