%TF.GenerationSoftware,KiCad,Pcbnew,9.0.7*%
%TF.CreationDate,2026-02-12T08:28:03+01:00*%
%TF.ProjectId,PCB_Neopixel,5043425f-4e65-46f7-9069-78656c2e6b69,rev?*%
%TF.SameCoordinates,Original*%
%TF.FileFunction,Soldermask,Top*%
%TF.FilePolarity,Negative*%
%FSLAX46Y46*%
G04 Gerber Fmt 4.6, Leading zero omitted, Abs format (unit mm)*
G04 Created by KiCad (PCBNEW 9.0.7) date 2026-02-12 08:28:03*
%MOMM*%
%LPD*%
G01*
G04 APERTURE LIST*
G04 Aperture macros list*
%AMRoundRect*
0 Rectangle with rounded corners*
0 $1 Rounding radius*
0 $2 $3 $4 $5 $6 $7 $8 $9 X,Y pos of 4 corners*
0 Add a 4 corners polygon primitive as box body*
4,1,4,$2,$3,$4,$5,$6,$7,$8,$9,$2,$3,0*
0 Add four circle primitives for the rounded corners*
1,1,$1+$1,$2,$3*
1,1,$1+$1,$4,$5*
1,1,$1+$1,$6,$7*
1,1,$1+$1,$8,$9*
0 Add four rect primitives between the rounded corners*
20,1,$1+$1,$2,$3,$4,$5,0*
20,1,$1+$1,$4,$5,$6,$7,0*
20,1,$1+$1,$6,$7,$8,$9,0*
20,1,$1+$1,$8,$9,$2,$3,0*%
G04 Aperture macros list end*
%ADD10RoundRect,0.225000X0.225000X0.250000X-0.225000X0.250000X-0.225000X-0.250000X0.225000X-0.250000X0*%
%ADD11RoundRect,0.375000X1.125000X-0.375000X1.125000X0.375000X-1.125000X0.375000X-1.125000X-0.375000X0*%
%ADD12RoundRect,0.140000X0.140000X0.170000X-0.140000X0.170000X-0.140000X-0.170000X0.140000X-0.170000X0*%
%ADD13RoundRect,0.090000X0.660000X0.360000X-0.660000X0.360000X-0.660000X-0.360000X0.660000X-0.360000X0*%
G04 APERTURE END LIST*
D10*
%TO.C,C101*%
X184875000Y-96400000D03*
X183325000Y-96400000D03*
%TD*%
D11*
%TO.C,J501*%
X129500000Y-103000000D03*
%TD*%
D12*
%TO.C,C401*%
X123980000Y-103499999D03*
X123020000Y-103499999D03*
%TD*%
%TO.C,C801*%
X171980000Y-103500000D03*
X171020000Y-103500000D03*
%TD*%
D13*
%TO.C,D301*%
X113950000Y-101650000D03*
X113950000Y-98350000D03*
X109050000Y-98350000D03*
X109050000Y-101650000D03*
%TD*%
%TO.C,D401*%
X125950000Y-101649999D03*
X125950000Y-98349999D03*
X121050000Y-98349999D03*
X121050000Y-101649999D03*
%TD*%
%TO.C,D801*%
X173950000Y-101650000D03*
X173950000Y-98350000D03*
X169050000Y-98350000D03*
X169050000Y-101650000D03*
%TD*%
D11*
%TO.C,J301*%
X105500000Y-103000000D03*
%TD*%
%TO.C,J302*%
X105500000Y-97000000D03*
%TD*%
%TO.C,J303*%
X105500000Y-100000000D03*
%TD*%
%TO.C,J401*%
X117500000Y-102999999D03*
%TD*%
%TO.C,J402*%
X117500000Y-96999999D03*
%TD*%
%TO.C,J403*%
X117500000Y-99999999D03*
%TD*%
%TO.C,J801*%
X165500000Y-103000000D03*
%TD*%
%TO.C,J802*%
X165500000Y-97000000D03*
%TD*%
%TO.C,J803*%
X165500000Y-100000000D03*
%TD*%
D12*
%TO.C,C301*%
X111980000Y-103500000D03*
X111020000Y-103500000D03*
%TD*%
%TO.C,C501*%
X135020002Y-103500000D03*
X135980002Y-103500000D03*
%TD*%
%TO.C,C601*%
X147020000Y-103499999D03*
X147980000Y-103499999D03*
%TD*%
%TO.C,C901*%
X183020000Y-103499999D03*
X183980000Y-103499999D03*
%TD*%
D13*
%TO.C,D501*%
X133050001Y-101650000D03*
X133050001Y-98350000D03*
X137950001Y-98350000D03*
X137950001Y-101650000D03*
%TD*%
%TO.C,D601*%
X145050000Y-101650000D03*
X145050000Y-98350000D03*
X149950000Y-98350000D03*
X149950000Y-101650000D03*
%TD*%
%TO.C,D901*%
X181050000Y-101649999D03*
X181050000Y-98349999D03*
X185950000Y-98349999D03*
X185950000Y-101649999D03*
%TD*%
D11*
%TO.C,J502*%
X129500000Y-97000001D03*
%TD*%
%TO.C,J503*%
X129500001Y-100000000D03*
%TD*%
%TO.C,J601*%
X141500000Y-103000000D03*
%TD*%
%TO.C,J602*%
X141500000Y-97000001D03*
%TD*%
%TO.C,J603*%
X141500000Y-100000000D03*
%TD*%
%TO.C,J901*%
X177500000Y-102999999D03*
%TD*%
%TO.C,J902*%
X177500000Y-97000000D03*
%TD*%
%TO.C,J903*%
X177500000Y-99999999D03*
%TD*%
%TO.C,J1001*%
X189100000Y-102999999D03*
%TD*%
%TO.C,J1002*%
X189110000Y-97000000D03*
%TD*%
%TO.C,J1003*%
X189100000Y-100000000D03*
%TD*%
D13*
%TO.C,D201*%
X97050000Y-101650000D03*
X97050000Y-98350000D03*
X101950000Y-98350000D03*
X101950000Y-101650000D03*
%TD*%
D11*
%TO.C,J701*%
X153500000Y-103000000D03*
%TD*%
%TO.C,J703*%
X153500000Y-100000000D03*
%TD*%
D13*
%TO.C,D701*%
X161950000Y-101650000D03*
X161950000Y-98350000D03*
X157050000Y-98350000D03*
X157050000Y-101650000D03*
%TD*%
D12*
%TO.C,C701*%
X159980000Y-103500000D03*
X159020000Y-103500000D03*
%TD*%
D11*
%TO.C,J702*%
X153500000Y-97000000D03*
%TD*%
D12*
%TO.C,C201*%
X99020000Y-103500000D03*
X99980000Y-103500000D03*
%TD*%
D11*
%TO.C,J203*%
X93500000Y-100000000D03*
%TD*%
%TO.C,J202*%
X93500000Y-97000000D03*
%TD*%
%TO.C,J201*%
X93500000Y-103000000D03*
%TD*%
M02*
