M48
; DRILL file {KiCad 9.0.7} date 2026-02-05T13:38:55+0100
; FORMAT={-:-/ absolute / metric / decimal}
; #@! TF.CreationDate,2026-02-05T13:38:55+01:00
; #@! TF.GenerationSoftware,Kicad,Pcbnew,9.0.7
; #@! TF.FileFunction,Plated,1,4,PTH
FMAT,2
METRIC
; #@! TA.AperFunction,Plated,PTH,ViaDrill
T1C0.300
; #@! TA.AperFunction,Plated,PTH,ComponentDrill
T2C0.500
; #@! TA.AperFunction,Plated,PTH,ViaDrill
T3C0.600
; #@! TA.AperFunction,Plated,PTH,ComponentDrill
T4C0.750
; #@! TA.AperFunction,Plated,PTH,ComponentDrill
T5C1.000
; #@! TA.AperFunction,Plated,PTH,ComponentDrill
T6C1.850
; #@! TA.AperFunction,Plated,PTH,ComponentDrill
T7C2.700
; #@! TA.AperFunction,Plated,PTH,ComponentDrill
T8C3.200
%
G90
G05
T1
X150.79Y-106.73
X150.93Y-97.29
X150.96Y-84.72
X151.0Y-99.3
X151.0Y-101.35
X151.26Y-78.62
X151.36Y-112.71
X151.47Y-81.31
X151.61Y-90.39
X151.73Y-68.12
X151.9Y-96.1
X152.01Y-86.02
X152.75Y-93.7
X153.45Y-84.15
X153.5Y-75.15
X154.0Y-100.55
X154.1Y-90.5
X154.15Y-110.1
X154.2Y-108.2
X154.55Y-97.65
X155.25Y-79.3
X155.65Y-70.25
X155.89Y-67.7
X156.09Y-101.96
X156.38Y-99.29
X156.45Y-87.66
X156.5Y-108.2
X156.7Y-94.2
X156.7Y-84.7
X156.76Y-72.98
X156.82Y-96.63
X156.9Y-79.55
X156.9Y-80.6
X156.92Y-112.6
X156.97Y-90.47
X157.05Y-69.65
X157.45Y-68.5
X157.6Y-77.23
X157.7Y-94.2
X157.7Y-84.7
X157.9Y-103.95
X157.95Y-105.05
X158.0Y-98.1
X158.3Y-99.6
X158.34Y-61.59
X158.45Y-70.04
X158.49Y-87.87
X158.56Y-64.54
X158.7Y-94.2
X158.7Y-84.7
X159.24Y-73.39
X159.4Y-105.6
X159.51Y-91.43
X159.65Y-66.3
X159.7Y-94.2
X159.7Y-84.7
X159.8Y-61.1
X159.8Y-97.1
X159.83Y-111.12
X160.18Y-80.24
X160.27Y-89.41
X160.3Y-97.65
X160.35Y-64.75
X160.35Y-101.0
X160.5Y-68.45
X160.5Y-69.45
X160.5Y-70.45
X160.5Y-71.45
X160.5Y-72.45
X160.5Y-75.05
X160.5Y-76.05
X160.5Y-77.05
X160.5Y-78.05
X160.5Y-79.05
X160.7Y-94.2
X160.7Y-84.7
X160.85Y-96.05
X160.9Y-62.5
X160.95Y-98.47
X161.1Y-100.7
X161.4Y-87.5
X161.419Y-107.531
X161.6Y-106.45
X161.9Y-88.0
X162.088Y-101.9
X162.088Y-102.9
X162.088Y-103.9
X162.1Y-64.4
X162.3Y-63.15
X162.4Y-65.8
X162.4Y-88.45
X162.7Y-106.45
X163.01Y-61.14
X163.05Y-82.1
X163.088Y-101.9
X163.088Y-102.9
X163.088Y-103.9
X163.1Y-108.412
X163.3Y-84.7
X163.3Y-94.2
X163.33Y-97.82
X163.48Y-91.61
X163.6Y-106.1
X164.05Y-102.9
X164.088Y-101.9
X164.088Y-103.9
X164.26Y-86.82
X164.3Y-84.7
X164.3Y-94.2
X164.45Y-112.05
X164.7Y-108.417
X165.0Y-66.3
X165.1Y-61.1
X165.29Y-92.24
X165.3Y-84.7
X165.3Y-94.2
X165.4Y-100.9
X165.6Y-98.31
X165.6Y-100.3
X165.76Y-81.08
X166.06Y-87.96
X166.2Y-67.95
X166.3Y-84.7
X166.3Y-94.2
X166.3Y-112.2
X166.32Y-97.78
X166.35Y-62.55
X166.35Y-108.4
X166.45Y-78.45
X166.5Y-71.6
X166.61Y-82.79
X166.85Y-107.0
X166.88Y-76.11
X166.95Y-69.55
X167.2Y-105.95
X167.3Y-84.7
X167.3Y-94.2
X167.35Y-64.45
X167.65Y-63.0
X167.75Y-65.7
X167.75Y-101.8
X167.8Y-73.5
X167.95Y-70.1
X168.0Y-71.45
X168.15Y-105.0
X168.225Y-100.8
X168.32Y-61.09
X168.35Y-94.4
X168.45Y-72.5
X168.55Y-85.3
X168.585Y-99.335
X168.65Y-98.15
X168.75Y-101.7
X168.8Y-89.7
X168.98Y-108.58
X169.03Y-114.3
X169.05Y-78.4
X169.2Y-93.2
X169.298Y-101.006
X169.3Y-97.25
X169.45Y-100.4
X169.685Y-88.635
X169.8Y-73.38
X170.05Y-99.35
X170.08Y-98.2
X170.23Y-89.85
X170.39Y-88.89
X170.6Y-76.9
X170.95Y-83.8
X171.0Y-101.8
X171.0Y-102.425
X171.15Y-78.4
X171.15Y-98.95
X171.25Y-87.6
X171.4Y-89.3
X171.4Y-92.3
X171.5Y-93.4
X171.5Y-103.1
X171.75Y-88.1
X171.93Y-75.23
X172.046Y-80.475
X172.046Y-81.475
X172.144Y-106.044
X172.7Y-61.7
X172.7Y-66.3
X172.75Y-87.35
X172.75Y-101.05
X172.75Y-102.15
X172.957Y-108.895
X173.1Y-64.3
X173.2Y-63.0
X173.2Y-105.35
X173.3Y-68.7
X173.3Y-73.3
X173.3Y-98.2
X173.5Y-103.77
X173.6Y-71.2
X173.6Y-85.2
X173.63Y-91.45
X173.7Y-70.1
X173.75Y-87.35
X174.02Y-61.14
X174.243Y-86.966
X174.3Y-72.4
X174.8Y-86.5
X175.006Y-102.094
X175.1Y-105.35
X175.25Y-85.25
X175.308Y-86.099
X175.33Y-78.4
X175.36Y-74.47
X175.57Y-95.84
X175.79Y-109.11
X175.8Y-101.3
X175.9Y-61.7
X175.9Y-66.1
X175.9Y-86.3
X176.006Y-102.106
X176.5Y-73.3
X176.53Y-90.32
X176.635Y-101.035
X176.9Y-76.9
X176.94Y-119.15
X177.05Y-83.7
X177.45Y-78.4
X177.56Y-93.93
X177.75Y-100.8
X178.3Y-63.0
X178.3Y-80.5
X178.3Y-81.5
X178.4Y-64.2
X178.5Y-65.6
X178.52Y-117.9
X178.549Y-107.1
X178.549Y-108.3
X178.549Y-109.8
X178.6Y-68.7
X178.6Y-86.9
X178.68Y-113.59
X178.9Y-70.1
X178.9Y-71.3
X178.9Y-98.5
X179.25Y-100.7
X179.28Y-101.8
X179.3Y-87.1
X179.35Y-72.45
X179.8Y-102.18
X179.8Y-107.775
X180.04Y-74.75
X180.08Y-94.047
X180.09Y-66.55
X180.3Y-100.225
X180.6Y-93.7
X180.7Y-85.4
X181.0Y-102.2
X181.31Y-63.95
X181.45Y-78.4
X181.735Y-103.836
X181.82Y-88.93
X182.7Y-90.75
X182.7Y-92.25
X182.75Y-95.75
X182.9Y-76.85
X183.1Y-83.85
X183.3Y-94.2
X183.35Y-78.4
X183.4Y-89.25
X183.8Y-64.3
X183.9Y-73.3
X184.0Y-65.5
X184.0Y-68.7
X184.0Y-91.5
X184.02Y-108.88
X184.2Y-70.1
X184.2Y-71.3
X184.3Y-93.2
X184.31Y-95.6
X184.319Y-80.5
X184.319Y-81.5
X184.55Y-60.81
X184.8Y-99.36
X185.3Y-93.7
X185.4Y-72.5
X185.42Y-66.23
X185.44Y-115.04
X185.51Y-68.6
X185.54Y-91.86
X185.776Y-101.799
X185.8Y-96.0
X186.42Y-75.16
X186.68Y-63.43
X186.8Y-85.2
X187.08Y-88.96
X187.14Y-87.65
X187.23Y-98.97
X187.5Y-78.4
X188.5Y-66.3
X188.6Y-61.7
X188.79Y-93.52
X188.95Y-76.9
X189.0Y-86.5
X189.1Y-63.1
X189.1Y-83.75
X189.2Y-64.1
X189.2Y-68.7
X189.2Y-73.2
X189.2Y-100.8
X189.45Y-78.4
X189.5Y-71.5
X189.51Y-95.62
X189.6Y-70.1
X189.87Y-89.83
X189.94Y-60.83
X190.1Y-65.6
X190.25Y-88.0
X190.4Y-80.462
X190.4Y-81.462
X190.4Y-92.7
X190.47Y-99.2
X191.0Y-73.5
X191.25Y-86.5
X191.69Y-118.23
X191.75Y-85.85
X191.968Y-77.85
X191.97Y-63.8
X191.98Y-77.05
X191.98Y-78.75
X192.0Y-76.25
X192.08Y-105.91
X192.3Y-85.3
X192.3Y-92.9
X192.38Y-114.05
X192.4Y-87.4
X192.5Y-88.8
X192.5Y-94.2
X193.37Y-102.37
X193.37Y-109.18
X193.9Y-61.7
X193.9Y-66.3
X193.92Y-99.58
X194.1Y-90.0
X194.1Y-95.3
X194.162Y-93.263
X194.212Y-87.912
X194.4Y-63.0
X194.4Y-64.2
X194.5Y-68.7
X194.5Y-73.3
X194.7Y-71.4
X194.8Y-70.0
X195.15Y-112.1
X195.5Y-65.6
X195.6Y-87.4
X195.67Y-66.78
X195.7Y-92.7
X195.9Y-89.18
X196.1Y-114.2
X196.15Y-111.3
X196.25Y-78.4
X196.28Y-82.21
X196.44Y-90.1
X196.5Y-76.5
X196.6Y-92.7
X196.65Y-87.45
X196.68Y-74.89
X196.75Y-115.7
X196.75Y-118.5
X196.76Y-94.54
X196.8Y-114.9
X196.8Y-116.9
X196.9Y-99.812
X196.9Y-106.587
X197.1Y-66.3
X197.13Y-80.43
X197.25Y-77.0
X197.35Y-109.35
X197.35Y-110.75
X197.35Y-111.85
X197.9Y-99.812
X197.9Y-106.587
X197.95Y-114.9
X198.41Y-85.27
X198.5Y-87.6
X198.5Y-92.9
X198.6Y-89.0
X198.6Y-94.3
X198.67Y-98.06
X198.9Y-99.812
X198.9Y-103.2
X198.9Y-106.587
X199.043Y-117.748
X199.1Y-61.7
X199.6Y-64.3
X199.7Y-63.0
X199.7Y-73.3
X199.8Y-68.7
X199.812Y-76.587
X199.812Y-83.8
X199.9Y-99.812
X199.9Y-106.587
X200.0Y-65.75
X200.1Y-71.3
X200.2Y-70.1
X200.3Y-90.0
X200.3Y-95.3
X200.337Y-93.237
X200.45Y-80.225
X200.562Y-78.938
X200.575Y-87.925
X200.9Y-99.812
X200.9Y-106.587
X201.28Y-60.99
X201.7Y-76.88
X201.75Y-78.6
X201.75Y-80.38
X201.75Y-83.17
X201.8Y-87.4
X201.8Y-92.7
X201.86Y-108.53
X201.87Y-66.28
X201.91Y-113.32
X202.1Y-83.6
X202.15Y-76.4
X202.24Y-95.3
X202.25Y-80.0
X202.273Y-78.386
X202.55Y-74.3
X202.65Y-75.65
X202.7Y-87.35
X202.75Y-98.3
X202.8Y-78.05
X202.85Y-93.2
X202.9Y-110.9
X203.0Y-79.8
X203.05Y-83.4
X203.11Y-89.99
X203.19Y-68.01
X203.5Y-73.9
X203.95Y-85.85
X204.1Y-75.75
X204.25Y-69.8
X204.25Y-79.55
X204.25Y-101.1
X204.3Y-81.0
X204.3Y-84.55
X204.35Y-77.4
X204.35Y-98.45
X204.39Y-74.09
X204.4Y-87.9
X204.4Y-93.05
X204.4Y-103.75
X204.45Y-82.9
X204.462Y-107.837
X204.75Y-71.35
X204.9Y-95.0
X204.95Y-89.7
X205.3Y-73.3
X205.4Y-69.85
X205.45Y-85.85
X205.67Y-81.33
X205.71Y-74.64
X205.72Y-77.97
X205.74Y-84.72
X205.8Y-109.6
X205.9Y-89.7
X205.9Y-95.05
X205.9Y-102.25
X206.4Y-83.8
X206.45Y-73.4
X206.45Y-80.3
X206.5Y-69.9
X206.5Y-76.75
X206.5Y-87.25
X206.65Y-93.55
X206.65Y-98.95
X206.65Y-104.15
X206.75Y-81.65
X206.95Y-78.1
X207.0Y-88.55
X207.1Y-107.3
X207.18Y-84.51
X207.3Y-70.8
X207.4Y-110.0
X207.625Y-79.875
X207.625Y-83.525
X207.63Y-82.07
X207.65Y-69.55
X207.675Y-76.425
X207.69Y-85.67
X207.725Y-72.975
X207.725Y-86.975
X207.87Y-89.63
X208.05Y-78.82
X208.35Y-76.35
X208.35Y-79.9
X208.35Y-96.43
X208.45Y-83.4
X208.48Y-86.45
X208.5Y-71.4
X208.5Y-72.8
X208.9Y-93.15
X208.94Y-67.01
X209.0Y-98.5
X209.0Y-103.8
X209.0Y-110.9
X209.5Y-81.77
X209.52Y-84.44
X209.57Y-78.18
T2
X151.6Y-64.0
X151.6Y-116.0
X152.303Y-62.303
X152.303Y-65.697
X152.303Y-114.303
X152.303Y-117.697
X154.0Y-61.6
X154.0Y-66.4
X154.0Y-113.6
X154.0Y-118.4
X155.697Y-62.303
X155.697Y-65.697
X155.697Y-114.303
X155.697Y-117.697
X156.4Y-64.0
X156.4Y-116.0
X203.6Y-64.0
X203.6Y-116.0
X204.303Y-62.303
X204.303Y-65.697
X204.303Y-114.303
X204.303Y-117.697
X206.0Y-61.6
X206.0Y-66.4
X206.0Y-113.6
X206.0Y-118.4
X207.697Y-62.303
X207.697Y-65.697
X207.697Y-114.303
X207.697Y-117.697
X208.4Y-64.0
X208.4Y-116.0
T3
X164.25Y-70.75
X164.25Y-71.75
X164.25Y-78.0
X164.25Y-79.0
T4
X153.55Y-70.25
X153.55Y-72.25
X153.55Y-74.25
X153.55Y-79.3
X153.55Y-81.3
X153.55Y-83.3
X199.1Y-110.9
X199.1Y-112.9
X199.1Y-114.9
X199.1Y-116.9
T5
X186.46Y-103.45
X189.0Y-103.45
X191.54Y-103.45
T6
X171.6Y-115.25
X173.76Y-127.95
X176.3Y-115.25
X178.84Y-127.95
X181.0Y-115.25
T7
X161.0Y-116.0
X166.0Y-116.0
T8
X154.0Y-64.0
X154.0Y-116.0
X206.0Y-64.0
X206.0Y-116.0
M30
