%TF.GenerationSoftware,KiCad,Pcbnew,9.0.7*%
%TF.CreationDate,2026-02-05T13:38:50+01:00*%
%TF.ProjectId,PCB_Aquarium_v2,5043425f-4171-4756-9172-69756d5f7632,rev?*%
%TF.SameCoordinates,Original*%
%TF.FileFunction,Soldermask,Bot*%
%TF.FilePolarity,Negative*%
%FSLAX46Y46*%
G04 Gerber Fmt 4.6, Leading zero omitted, Abs format (unit mm)*
G04 Created by KiCad (PCBNEW 9.0.7) date 2026-02-05 13:38:50*
%MOMM*%
%LPD*%
G01*
G04 APERTURE LIST*
G04 Aperture macros list*
%AMRoundRect*
0 Rectangle with rounded corners*
0 $1 Rounding radius*
0 $2 $3 $4 $5 $6 $7 $8 $9 X,Y pos of 4 corners*
0 Add a 4 corners polygon primitive as box body*
4,1,4,$2,$3,$4,$5,$6,$7,$8,$9,$2,$3,0*
0 Add four circle primitives for the rounded corners*
1,1,$1+$1,$2,$3*
1,1,$1+$1,$4,$5*
1,1,$1+$1,$6,$7*
1,1,$1+$1,$8,$9*
0 Add four rect primitives between the rounded corners*
20,1,$1+$1,$2,$3,$4,$5,0*
20,1,$1+$1,$4,$5,$6,$7,0*
20,1,$1+$1,$6,$7,$8,$9,0*
20,1,$1+$1,$8,$9,$2,$3,0*%
G04 Aperture macros list end*
%ADD10C,2.000000*%
%ADD11C,2.775000*%
%ADD12R,2.775000X2.775000*%
%ADD13RoundRect,0.760000X-1.140000X-1.140000X1.140000X-1.140000X1.140000X1.140000X-1.140000X1.140000X0*%
%ADD14C,3.800000*%
%ADD15C,0.800000*%
%ADD16C,6.400000*%
%ADD17RoundRect,0.250000X-0.625000X0.350000X-0.625000X-0.350000X0.625000X-0.350000X0.625000X0.350000X0*%
%ADD18O,1.750000X1.200000*%
%ADD19C,1.600000*%
%ADD20RoundRect,0.250000X0.625000X-0.350000X0.625000X0.350000X-0.625000X0.350000X-0.625000X-0.350000X0*%
%ADD21RoundRect,0.225000X0.225000X0.250000X-0.225000X0.250000X-0.225000X-0.250000X0.225000X-0.250000X0*%
%ADD22RoundRect,0.225000X0.250000X-0.225000X0.250000X0.225000X-0.250000X0.225000X-0.250000X-0.225000X0*%
%ADD23RoundRect,0.225000X-0.225000X-0.250000X0.225000X-0.250000X0.225000X0.250000X-0.225000X0.250000X0*%
G04 APERTURE END LIST*
D10*
%TO.C,TP102*%
X185900000Y-92050000D03*
%TD*%
%TO.C,TP101*%
X187430000Y-89250000D03*
%TD*%
D11*
%TO.C,SW102*%
X173760250Y-127950000D03*
X178840250Y-127950000D03*
X171600250Y-115250000D03*
X176300250Y-115250000D03*
D12*
X181000250Y-115250000D03*
%TD*%
D13*
%TO.C,J103*%
X161000000Y-116000000D03*
D14*
X166000000Y-116000000D03*
%TD*%
D15*
%TO.C,H103*%
X203600000Y-116000000D03*
X204302944Y-114302944D03*
X204302944Y-117697056D03*
X206000000Y-113600000D03*
D16*
X206000000Y-116000000D03*
D15*
X206000000Y-118400000D03*
X207697056Y-114302944D03*
X207697056Y-117697056D03*
X208400000Y-116000000D03*
%TD*%
%TO.C,H104*%
X151600000Y-116000000D03*
X152302944Y-114302944D03*
X152302944Y-117697056D03*
X154000000Y-113600000D03*
D16*
X154000000Y-116000000D03*
D15*
X154000000Y-118400000D03*
X155697056Y-114302944D03*
X155697056Y-117697056D03*
X156400000Y-116000000D03*
%TD*%
%TO.C,H101*%
X151600000Y-64000000D03*
X152302944Y-62302944D03*
X152302944Y-65697056D03*
X154000000Y-61600000D03*
D16*
X154000000Y-64000000D03*
D15*
X154000000Y-66400000D03*
X155697056Y-62302944D03*
X155697056Y-65697056D03*
X156400000Y-64000000D03*
%TD*%
D17*
%TO.C,J102*%
X153550000Y-79300000D03*
D18*
X153550000Y-81300001D03*
X153550000Y-83300000D03*
%TD*%
D15*
%TO.C,H102*%
X203600000Y-64000000D03*
X204302944Y-62302944D03*
X204302944Y-65697056D03*
X206000000Y-61600000D03*
D16*
X206000000Y-64000000D03*
D15*
X206000000Y-66400000D03*
X207697056Y-62302944D03*
X207697056Y-65697056D03*
X208400000Y-64000000D03*
%TD*%
D19*
%TO.C,U301*%
X186460000Y-103450000D03*
X189000000Y-103450000D03*
X191540000Y-103450000D03*
%TD*%
D17*
%TO.C,J805*%
X153550000Y-70250001D03*
D18*
X153550000Y-72250002D03*
X153550000Y-74250001D03*
%TD*%
D20*
%TO.C,J104*%
X199100000Y-116900000D03*
D18*
X199100000Y-114900000D03*
X199100000Y-112900000D03*
X199100000Y-110900000D03*
%TD*%
D21*
%TO.C,C202*%
X193975000Y-88150000D03*
X192425000Y-88150000D03*
%TD*%
%TO.C,C605*%
X206675000Y-84500000D03*
X205125000Y-84500000D03*
%TD*%
D22*
%TO.C,C903*%
X182900000Y-64775000D03*
X182900000Y-63225000D03*
%TD*%
D21*
%TO.C,C403*%
X206675000Y-92800000D03*
X205125000Y-92800000D03*
%TD*%
%TO.C,C401*%
X206675000Y-98100000D03*
X205125000Y-98100000D03*
%TD*%
%TO.C,C602*%
X206675000Y-74200000D03*
X205125000Y-74200000D03*
%TD*%
%TO.C,C606*%
X206675000Y-88000000D03*
X205125000Y-88000000D03*
%TD*%
D22*
%TO.C,C911*%
X193700000Y-64575000D03*
X193700000Y-63025000D03*
%TD*%
%TO.C,C905*%
X194000000Y-71725000D03*
X194000000Y-70175000D03*
%TD*%
D21*
%TO.C,C604*%
X206675000Y-81000000D03*
X205125000Y-81000000D03*
%TD*%
D22*
%TO.C,C904*%
X199300000Y-71825000D03*
X199300000Y-70275000D03*
%TD*%
D21*
%TO.C,C204*%
X200025000Y-88250000D03*
X198475000Y-88250000D03*
%TD*%
D22*
%TO.C,C807*%
X167100000Y-71775000D03*
X167100000Y-70225000D03*
%TD*%
%TO.C,C809*%
X161080000Y-64775000D03*
X161080000Y-63225000D03*
%TD*%
%TO.C,C902*%
X177400000Y-64775000D03*
X177400000Y-63225000D03*
%TD*%
%TO.C,C910*%
X188400000Y-64775000D03*
X188400000Y-63225000D03*
%TD*%
D21*
%TO.C,C601*%
X206675000Y-70800000D03*
X205125000Y-70800000D03*
%TD*%
%TO.C,C402*%
X206675000Y-103400000D03*
X205125000Y-103400000D03*
%TD*%
%TO.C,C201*%
X200025000Y-93550000D03*
X198475000Y-93550000D03*
%TD*%
D22*
%TO.C,C808*%
X166600000Y-64725000D03*
X166600000Y-63175000D03*
%TD*%
D23*
%TO.C,C101*%
X205225000Y-110100000D03*
X206775000Y-110100000D03*
%TD*%
D22*
%TO.C,C906*%
X183500000Y-71775000D03*
X183500000Y-70225000D03*
%TD*%
D21*
%TO.C,C203*%
X193875000Y-93550000D03*
X192325000Y-93550000D03*
%TD*%
D22*
%TO.C,C909*%
X188800000Y-71775000D03*
X188800000Y-70225000D03*
%TD*%
%TO.C,C907*%
X178150000Y-71725000D03*
X178150000Y-70175000D03*
%TD*%
%TO.C,C912*%
X199000000Y-64775000D03*
X199000000Y-63225000D03*
%TD*%
D21*
%TO.C,C603*%
X206675000Y-77500000D03*
X205125000Y-77500000D03*
%TD*%
D22*
%TO.C,C901*%
X172400000Y-64775000D03*
X172400000Y-63225000D03*
%TD*%
%TO.C,C908*%
X172650000Y-71775000D03*
X172650000Y-70225000D03*
%TD*%
M02*
