%TF.GenerationSoftware,KiCad,Pcbnew,9.0.7*%
%TF.CreationDate,2026-02-05T13:38:50+01:00*%
%TF.ProjectId,PCB_Aquarium_v2,5043425f-4171-4756-9172-69756d5f7632,rev?*%
%TF.SameCoordinates,Original*%
%TF.FileFunction,Soldermask,Top*%
%TF.FilePolarity,Negative*%
%FSLAX46Y46*%
G04 Gerber Fmt 4.6, Leading zero omitted, Abs format (unit mm)*
G04 Created by KiCad (PCBNEW 9.0.7) date 2026-02-05 13:38:50*
%MOMM*%
%LPD*%
G01*
G04 APERTURE LIST*
G04 Aperture macros list*
%AMRoundRect*
0 Rectangle with rounded corners*
0 $1 Rounding radius*
0 $2 $3 $4 $5 $6 $7 $8 $9 X,Y pos of 4 corners*
0 Add a 4 corners polygon primitive as box body*
4,1,4,$2,$3,$4,$5,$6,$7,$8,$9,$2,$3,0*
0 Add four circle primitives for the rounded corners*
1,1,$1+$1,$2,$3*
1,1,$1+$1,$4,$5*
1,1,$1+$1,$6,$7*
1,1,$1+$1,$8,$9*
0 Add four rect primitives between the rounded corners*
20,1,$1+$1,$2,$3,$4,$5,0*
20,1,$1+$1,$4,$5,$6,$7,0*
20,1,$1+$1,$6,$7,$8,$9,0*
20,1,$1+$1,$8,$9,$2,$3,0*%
G04 Aperture macros list end*
%ADD10RoundRect,0.100000X0.130000X0.100000X-0.130000X0.100000X-0.130000X-0.100000X0.130000X-0.100000X0*%
%ADD11RoundRect,0.100000X-0.100000X0.130000X-0.100000X-0.130000X0.100000X-0.130000X0.100000X0.130000X0*%
%ADD12RoundRect,0.100000X-0.130000X-0.100000X0.130000X-0.100000X0.130000X0.100000X-0.130000X0.100000X0*%
%ADD13RoundRect,0.100000X0.100000X-0.130000X0.100000X0.130000X-0.100000X0.130000X-0.100000X-0.130000X0*%
%ADD14C,2.775000*%
%ADD15R,2.775000X2.775000*%
%ADD16RoundRect,0.075000X-0.075000X-0.700000X0.075000X-0.700000X0.075000X0.700000X-0.075000X0.700000X0*%
%ADD17RoundRect,0.075000X-0.700000X-0.075000X0.700000X-0.075000X0.700000X0.075000X-0.700000X0.075000X0*%
%ADD18R,2.700000X2.700000*%
%ADD19RoundRect,0.062500X-0.062500X-0.475000X0.062500X-0.475000X0.062500X0.475000X-0.062500X0.475000X0*%
%ADD20RoundRect,0.062500X-0.475000X-0.062500X0.475000X-0.062500X0.475000X0.062500X-0.475000X0.062500X0*%
%ADD21RoundRect,0.075000X0.175000X-0.425000X0.175000X0.425000X-0.175000X0.425000X-0.175000X-0.425000X0*%
%ADD22RoundRect,0.180000X0.420000X-0.670000X0.420000X0.670000X-0.420000X0.670000X-0.420000X-0.670000X0*%
%ADD23RoundRect,0.186000X0.434000X0.759000X-0.434000X0.759000X-0.434000X-0.759000X0.434000X-0.759000X0*%
%ADD24RoundRect,0.140000X0.140000X0.170000X-0.140000X0.170000X-0.140000X-0.170000X0.140000X-0.170000X0*%
%ADD25RoundRect,0.140000X0.170000X-0.140000X0.170000X0.140000X-0.170000X0.140000X-0.170000X-0.140000X0*%
%ADD26RoundRect,0.150000X0.625000X-0.150000X0.625000X0.150000X-0.625000X0.150000X-0.625000X-0.150000X0*%
%ADD27RoundRect,0.250000X0.650000X-0.350000X0.650000X0.350000X-0.650000X0.350000X-0.650000X-0.350000X0*%
%ADD28RoundRect,0.135000X0.135000X0.185000X-0.135000X0.185000X-0.135000X-0.185000X0.135000X-0.185000X0*%
%ADD29RoundRect,0.135000X-0.185000X0.135000X-0.185000X-0.135000X0.185000X-0.135000X0.185000X0.135000X0*%
%ADD30RoundRect,0.760000X-1.140000X-1.140000X1.140000X-1.140000X1.140000X1.140000X-1.140000X1.140000X0*%
%ADD31C,3.800000*%
%ADD32R,1.600000X4.500000*%
%ADD33RoundRect,0.250001X0.799999X-2.049999X0.799999X2.049999X-0.799999X2.049999X-0.799999X-2.049999X0*%
%ADD34RoundRect,0.150000X-0.150000X-0.625000X0.150000X-0.625000X0.150000X0.625000X-0.150000X0.625000X0*%
%ADD35RoundRect,0.250000X-0.350000X-0.650000X0.350000X-0.650000X0.350000X0.650000X-0.350000X0.650000X0*%
%ADD36R,4.500000X1.600000*%
%ADD37RoundRect,0.218750X-0.256250X0.218750X-0.256250X-0.218750X0.256250X-0.218750X0.256250X0.218750X0*%
%ADD38RoundRect,0.135000X-0.135000X-0.185000X0.135000X-0.185000X0.135000X0.185000X-0.135000X0.185000X0*%
%ADD39RoundRect,0.200000X-0.200000X-0.275000X0.200000X-0.275000X0.200000X0.275000X-0.200000X0.275000X0*%
%ADD40RoundRect,0.090000X-0.210000X0.235000X-0.210000X-0.235000X0.210000X-0.235000X0.210000X0.235000X0*%
%ADD41RoundRect,0.052500X-0.297500X0.122500X-0.297500X-0.122500X0.297500X-0.122500X0.297500X0.122500X0*%
%ADD42RoundRect,0.150000X0.200000X-0.150000X0.200000X0.150000X-0.200000X0.150000X-0.200000X-0.150000X0*%
%ADD43RoundRect,0.218750X-0.218750X-0.256250X0.218750X-0.256250X0.218750X0.256250X-0.218750X0.256250X0*%
%ADD44RoundRect,0.140000X-0.140000X-0.170000X0.140000X-0.170000X0.140000X0.170000X-0.140000X0.170000X0*%
%ADD45C,0.800000*%
%ADD46C,6.400000*%
%ADD47RoundRect,0.150000X0.150000X0.625000X-0.150000X0.625000X-0.150000X-0.625000X0.150000X-0.625000X0*%
%ADD48RoundRect,0.250000X0.350000X0.650000X-0.350000X0.650000X-0.350000X-0.650000X0.350000X-0.650000X0*%
%ADD49RoundRect,0.135000X0.185000X-0.135000X0.185000X0.135000X-0.185000X0.135000X-0.185000X-0.135000X0*%
%ADD50RoundRect,0.375000X0.375000X-0.625000X0.375000X0.625000X-0.375000X0.625000X-0.375000X-0.625000X0*%
%ADD51RoundRect,0.500000X1.400000X-0.500000X1.400000X0.500000X-1.400000X0.500000X-1.400000X-0.500000X0*%
%ADD52RoundRect,0.250000X-0.625000X0.350000X-0.625000X-0.350000X0.625000X-0.350000X0.625000X0.350000X0*%
%ADD53O,1.750000X1.200000*%
%ADD54RoundRect,0.150000X-0.587500X-0.150000X0.587500X-0.150000X0.587500X0.150000X-0.587500X0.150000X0*%
%ADD55RoundRect,0.140000X-0.170000X0.140000X-0.170000X-0.140000X0.170000X-0.140000X0.170000X0.140000X0*%
%ADD56RoundRect,0.250000X-0.550000X1.137500X-0.550000X-1.137500X0.550000X-1.137500X0.550000X1.137500X0*%
%ADD57RoundRect,0.250000X2.475000X-0.712500X2.475000X0.712500X-2.475000X0.712500X-2.475000X-0.712500X0*%
%ADD58RoundRect,0.200000X0.200000X0.275000X-0.200000X0.275000X-0.200000X-0.275000X0.200000X-0.275000X0*%
%ADD59RoundRect,0.140000X0.021213X-0.219203X0.219203X-0.021213X-0.021213X0.219203X-0.219203X0.021213X0*%
%ADD60C,1.600000*%
%ADD61RoundRect,0.100000X0.637500X0.100000X-0.637500X0.100000X-0.637500X-0.100000X0.637500X-0.100000X0*%
%ADD62R,2.400000X0.740000*%
%ADD63RoundRect,0.225000X-0.250000X0.225000X-0.250000X-0.225000X0.250000X-0.225000X0.250000X0.225000X0*%
%ADD64RoundRect,0.225000X0.250000X-0.225000X0.250000X0.225000X-0.250000X0.225000X-0.250000X-0.225000X0*%
%ADD65RoundRect,0.250000X0.625000X-0.350000X0.625000X0.350000X-0.625000X0.350000X-0.625000X-0.350000X0*%
%ADD66RoundRect,0.150000X-0.625000X0.150000X-0.625000X-0.150000X0.625000X-0.150000X0.625000X0.150000X0*%
%ADD67RoundRect,0.250000X-0.650000X0.350000X-0.650000X-0.350000X0.650000X-0.350000X0.650000X0.350000X0*%
G04 APERTURE END LIST*
D10*
%TO.C,R101*%
X183180000Y-93200000D03*
X183820000Y-93200000D03*
%TD*%
D11*
%TO.C,R102*%
X183500000Y-92220000D03*
X183500000Y-91580000D03*
%TD*%
D12*
%TO.C,R602*%
X192607500Y-78250000D03*
X191967500Y-78250000D03*
%TD*%
D13*
%TO.C,R603*%
X201350000Y-82530000D03*
X201350000Y-83170000D03*
%TD*%
D11*
%TO.C,R604*%
X202150000Y-81020000D03*
X202150000Y-80380000D03*
%TD*%
%TO.C,R605*%
X202150000Y-79270000D03*
X202150000Y-78630000D03*
%TD*%
%TO.C,R606*%
X202150000Y-77520000D03*
X202150000Y-76880000D03*
%TD*%
D12*
%TO.C,R607*%
X192620000Y-76650000D03*
X191980000Y-76650000D03*
%TD*%
%TO.C,R608*%
X192620000Y-79050000D03*
X191980000Y-79050000D03*
%TD*%
D13*
%TO.C,R609*%
X202150000Y-82530000D03*
X202150000Y-83170000D03*
%TD*%
D11*
%TO.C,R610*%
X201350000Y-81020000D03*
X201350000Y-80380000D03*
%TD*%
%TO.C,R611*%
X201350000Y-79270000D03*
X201350000Y-78630000D03*
%TD*%
%TO.C,R612*%
X201350000Y-77520000D03*
X201350000Y-76880000D03*
%TD*%
D12*
%TO.C,R613*%
X192570000Y-77450000D03*
X191930000Y-77450000D03*
%TD*%
D14*
%TO.C,SW102*%
X173760250Y-127950000D03*
X178840250Y-127950000D03*
X171600250Y-115250000D03*
X176300250Y-115250000D03*
D15*
X181000250Y-115250000D03*
%TD*%
D16*
%TO.C,U101*%
X172250000Y-88325000D03*
X172750000Y-88325000D03*
X173250000Y-88325000D03*
X173750000Y-88325000D03*
X174250000Y-88325000D03*
X174750000Y-88325000D03*
X175250000Y-88325000D03*
X175750000Y-88325000D03*
X176250000Y-88325000D03*
X176750000Y-88325000D03*
X177250000Y-88325000D03*
X177750000Y-88325000D03*
X178250000Y-88325000D03*
X178750000Y-88325000D03*
X179250000Y-88325000D03*
X179750000Y-88325000D03*
D17*
X181675000Y-90250000D03*
X181675000Y-90750000D03*
X181675000Y-91250000D03*
X181675000Y-91750000D03*
X181675000Y-92250000D03*
X181675000Y-92750000D03*
X181675000Y-93250000D03*
X181675000Y-93750000D03*
X181675000Y-94250000D03*
X181675000Y-94750000D03*
X181675000Y-95250000D03*
X181675000Y-95750000D03*
X181675000Y-96250000D03*
X181675000Y-96750000D03*
X181675000Y-97250000D03*
X181675000Y-97750000D03*
D16*
X179750000Y-99675000D03*
X179250000Y-99675000D03*
X178750000Y-99675000D03*
X178250000Y-99675000D03*
X177750000Y-99675000D03*
X177250000Y-99675000D03*
X176750000Y-99675000D03*
X176250000Y-99675000D03*
X175750000Y-99675000D03*
X175250000Y-99675000D03*
X174750000Y-99675000D03*
X174250000Y-99675000D03*
X173750000Y-99675000D03*
X173250000Y-99675000D03*
X172750000Y-99675000D03*
X172250000Y-99675000D03*
D17*
X170325000Y-97750000D03*
X170325000Y-97250000D03*
X170325000Y-96750000D03*
X170325000Y-96250000D03*
X170325000Y-95750000D03*
X170325000Y-95250000D03*
X170325000Y-94750000D03*
X170325000Y-94250000D03*
X170325000Y-93750000D03*
X170325000Y-93250000D03*
X170325000Y-92750000D03*
X170325000Y-92250000D03*
X170325000Y-91750000D03*
X170325000Y-91250000D03*
X170325000Y-90750000D03*
X170325000Y-90250000D03*
%TD*%
D18*
%TO.C,U801*%
X163087500Y-102900000D03*
D19*
X161587500Y-100587500D03*
X162087500Y-100587500D03*
X162587500Y-100587500D03*
X163087500Y-100587500D03*
X163587500Y-100587500D03*
X164087500Y-100587500D03*
X164587500Y-100587500D03*
D20*
X165400000Y-101400000D03*
X165400000Y-101900000D03*
X165400000Y-102400000D03*
X165400000Y-102900000D03*
X165400000Y-103400000D03*
X165400000Y-103900000D03*
X165400000Y-104400000D03*
D19*
X164587500Y-105212500D03*
X164087500Y-105212500D03*
X163587500Y-105212500D03*
X163087500Y-105212500D03*
X162587500Y-105212500D03*
X162087500Y-105212500D03*
X161587500Y-105212500D03*
D20*
X160775000Y-104400000D03*
X160775000Y-103900000D03*
X160775000Y-103400000D03*
X160775000Y-102900000D03*
X160775000Y-102400000D03*
X160775000Y-101900000D03*
X160775000Y-101400000D03*
%TD*%
D21*
%TO.C,J605*%
X204800000Y-79450000D03*
X205600000Y-79450000D03*
X206400000Y-79450000D03*
X207200000Y-79450000D03*
D22*
X203500001Y-80900000D03*
X208499999Y-80900000D03*
%TD*%
D23*
%TO.C,D702*%
X184318605Y-81000000D03*
X180238606Y-81000000D03*
%TD*%
D24*
%TO.C,C111*%
X170080000Y-98800000D03*
X169120000Y-98800000D03*
%TD*%
D25*
%TO.C,C107*%
X154000000Y-101980000D03*
X154000000Y-101020000D03*
%TD*%
D26*
%TO.C,J904*%
X190625000Y-72000000D03*
X190624999Y-71000000D03*
X190625000Y-70000000D03*
D27*
X188099999Y-73300000D03*
X188099999Y-68700000D03*
%TD*%
D24*
%TO.C,C108*%
X177330000Y-101300000D03*
X176370000Y-101300000D03*
%TD*%
D28*
%TO.C,R801*%
X165909999Y-106600000D03*
X164890001Y-106600000D03*
%TD*%
D29*
%TO.C,R702*%
X186800000Y-83790001D03*
X186800000Y-84809999D03*
%TD*%
%TO.C,R708*%
X174600000Y-83790001D03*
X174600000Y-84809999D03*
%TD*%
D30*
%TO.C,J103*%
X161000000Y-116000000D03*
D31*
X166000000Y-116000000D03*
%TD*%
D32*
%TO.C,C810*%
X160500000Y-70450001D03*
X160500000Y-77049999D03*
%TD*%
D33*
%TO.C,C303*%
X188900000Y-117000000D03*
X188900000Y-108200000D03*
%TD*%
D34*
%TO.C,J203*%
X192600000Y-89975000D03*
X193600000Y-89975000D03*
D35*
X191300000Y-87450000D03*
X194900000Y-87450000D03*
%TD*%
D36*
%TO.C,C805*%
X158700000Y-94200000D03*
X165300000Y-94200000D03*
%TD*%
D29*
%TO.C,R704*%
X180700000Y-83835714D03*
X180700000Y-84855712D03*
%TD*%
%TO.C,R803*%
X167750000Y-102070001D03*
X167750000Y-103089999D03*
%TD*%
D37*
%TO.C,D303*%
X162300000Y-108412499D03*
X162300000Y-109987501D03*
%TD*%
D26*
%TO.C,J901*%
X174125000Y-65000000D03*
X174124999Y-64000000D03*
X174125000Y-63000000D03*
D27*
X171599999Y-66300000D03*
X171599999Y-61700000D03*
%TD*%
D38*
%TO.C,R804*%
X162840000Y-106850000D03*
X163860000Y-106850000D03*
%TD*%
D39*
%TO.C,R805*%
X166575000Y-100200000D03*
X168225000Y-100200000D03*
%TD*%
D40*
%TO.C,SW101*%
X152700000Y-98700000D03*
X152700000Y-101849999D03*
X150999999Y-98700000D03*
X151000000Y-101850000D03*
D41*
X151850000Y-98550000D03*
X151850000Y-102000000D03*
%TD*%
D26*
%TO.C,J910*%
X200625000Y-65000000D03*
X200624999Y-64000000D03*
X200625000Y-63000000D03*
D27*
X198099999Y-66300000D03*
X198099999Y-61700000D03*
%TD*%
D42*
%TO.C,D101*%
X196100000Y-112200000D03*
X196100000Y-113600000D03*
%TD*%
D21*
%TO.C,J602*%
X204800000Y-75950000D03*
X205600000Y-75950000D03*
X206400000Y-75950000D03*
X207200000Y-75950000D03*
D22*
X203500001Y-77400000D03*
X208499999Y-77400000D03*
%TD*%
D23*
%TO.C,D703*%
X172046175Y-80975198D03*
X167966176Y-80975198D03*
%TD*%
D43*
%TO.C,L101*%
X175512499Y-102600000D03*
X177087501Y-102600000D03*
%TD*%
D44*
%TO.C,C105*%
X181820000Y-89250000D03*
X182780000Y-89250000D03*
%TD*%
D45*
%TO.C,H103*%
X203600000Y-116000000D03*
X204302944Y-114302944D03*
X204302944Y-117697056D03*
X206000000Y-113600000D03*
D46*
X206000000Y-116000000D03*
D45*
X206000000Y-118400000D03*
X207697056Y-114302944D03*
X207697056Y-117697056D03*
X208400000Y-116000000D03*
%TD*%
D24*
%TO.C,C113*%
X179280000Y-102300000D03*
X178320000Y-102300000D03*
%TD*%
D26*
%TO.C,J905*%
X174725000Y-72000000D03*
X174724999Y-71000000D03*
X174725000Y-70000000D03*
D27*
X172199999Y-73300000D03*
X172199999Y-68700000D03*
%TD*%
D47*
%TO.C,J403*%
X206900000Y-90675000D03*
X205900000Y-90675001D03*
X204900000Y-90675000D03*
D48*
X208200000Y-93200001D03*
X203600000Y-93200001D03*
%TD*%
D29*
%TO.C,R703*%
X179699999Y-83835714D03*
X179699999Y-84855712D03*
%TD*%
D47*
%TO.C,J101*%
X207000000Y-108375000D03*
X206000000Y-108375001D03*
X205000000Y-108375000D03*
D48*
X208300000Y-110900001D03*
X203700000Y-110900001D03*
%TD*%
D45*
%TO.C,H104*%
X151600000Y-116000000D03*
X152302944Y-114302944D03*
X152302944Y-117697056D03*
X154000000Y-113600000D03*
D46*
X154000000Y-116000000D03*
D45*
X154000000Y-118400000D03*
X155697056Y-114302944D03*
X155697056Y-117697056D03*
X156400000Y-116000000D03*
%TD*%
D49*
%TO.C,R303*%
X162300000Y-112209999D03*
X162300000Y-111190001D03*
%TD*%
D45*
%TO.C,H101*%
X151600000Y-64000000D03*
X152302944Y-62302944D03*
X152302944Y-65697056D03*
X154000000Y-61600000D03*
D46*
X154000000Y-64000000D03*
D45*
X154000000Y-66400000D03*
X155697056Y-62302944D03*
X155697056Y-65697056D03*
X156400000Y-64000000D03*
%TD*%
D50*
%TO.C,U302*%
X175450000Y-111650000D03*
X177750000Y-111649999D03*
D51*
X177750000Y-105350001D03*
D50*
X180050000Y-111650000D03*
%TD*%
D26*
%TO.C,J909*%
X185325000Y-72000000D03*
X185324999Y-71000000D03*
X185325000Y-70000000D03*
D27*
X182799999Y-73300000D03*
X182799999Y-68700000D03*
%TD*%
D25*
%TO.C,C802*%
X166750000Y-103060000D03*
X166750000Y-102100000D03*
%TD*%
D52*
%TO.C,J102*%
X153550000Y-79300000D03*
D53*
X153550000Y-81300001D03*
X153550000Y-83300000D03*
%TD*%
D26*
%TO.C,J908*%
X180025000Y-72000000D03*
X180024999Y-71000000D03*
X180025000Y-70000000D03*
D27*
X177499999Y-73300000D03*
X177499999Y-68700000D03*
%TD*%
D34*
%TO.C,J201*%
X198750000Y-89975000D03*
X199750000Y-89975000D03*
D35*
X197450000Y-87450000D03*
X201050000Y-87450000D03*
%TD*%
D34*
%TO.C,J202*%
X198750000Y-95275000D03*
X199750000Y-95275000D03*
D35*
X197450000Y-92750000D03*
X201050000Y-92750000D03*
%TD*%
D54*
%TO.C,Q704*%
X176162500Y-82750000D03*
X176162500Y-84650000D03*
X178037501Y-83700000D03*
%TD*%
D45*
%TO.C,H102*%
X203600000Y-64000000D03*
X204302944Y-62302944D03*
X204302944Y-65697056D03*
X206000000Y-61600000D03*
D46*
X206000000Y-64000000D03*
D45*
X206000000Y-66400000D03*
X207697056Y-62302944D03*
X207697056Y-65697056D03*
X208400000Y-64000000D03*
%TD*%
D55*
%TO.C,C103*%
X156300000Y-79520000D03*
X156300000Y-80480000D03*
%TD*%
D38*
%TO.C,R601*%
X193527501Y-85250000D03*
X194547499Y-85250000D03*
%TD*%
D26*
%TO.C,J911*%
X195325000Y-65000000D03*
X195324999Y-64000000D03*
X195325000Y-63000000D03*
D27*
X192799999Y-66300000D03*
X192799999Y-61700000D03*
%TD*%
D54*
%TO.C,Q702*%
X182281105Y-82850000D03*
X182281105Y-84750000D03*
X184156106Y-83800000D03*
%TD*%
D56*
%TO.C,C302*%
X171000000Y-107187500D03*
X171000000Y-111312500D03*
%TD*%
D57*
%TO.C,F101*%
X198900000Y-106587500D03*
X198900000Y-99812500D03*
%TD*%
D21*
%TO.C,J603*%
X204800000Y-82950000D03*
X205600000Y-82950000D03*
X206400000Y-82950000D03*
X207200000Y-82950000D03*
D22*
X203500001Y-84400000D03*
X208499999Y-84400000D03*
%TD*%
D58*
%TO.C,R806*%
X159525000Y-100200000D03*
X157875000Y-100200000D03*
%TD*%
D26*
%TO.C,J802*%
X168625000Y-65000000D03*
X168624999Y-64000000D03*
X168625000Y-63000000D03*
D27*
X166099999Y-66300000D03*
X166099999Y-61700000D03*
%TD*%
D23*
%TO.C,D701*%
X190400000Y-80962296D03*
X186320001Y-80962296D03*
%TD*%
D47*
%TO.C,J402*%
X206900000Y-101275000D03*
X205900000Y-101275001D03*
X204900000Y-101275000D03*
D48*
X208200000Y-103800001D03*
X203600000Y-103800001D03*
%TD*%
D44*
%TO.C,C112*%
X178320000Y-101300000D03*
X179280000Y-101300000D03*
%TD*%
D26*
%TO.C,J902*%
X179425000Y-65000000D03*
X179424999Y-64000000D03*
X179425000Y-63000000D03*
D27*
X176899999Y-66300000D03*
X176899999Y-61700000D03*
%TD*%
D55*
%TO.C,C110*%
X180300000Y-101220000D03*
X180300000Y-102180000D03*
%TD*%
D59*
%TO.C,C811*%
X156460589Y-69439411D03*
X157139411Y-68760589D03*
%TD*%
D60*
%TO.C,U301*%
X186460000Y-103450000D03*
X189000000Y-103450000D03*
X191540000Y-103450000D03*
%TD*%
D25*
%TO.C,C801*%
X166800000Y-105280000D03*
X166800000Y-104320000D03*
%TD*%
D61*
%TO.C,U601*%
X199812500Y-84125000D03*
X199812500Y-83475000D03*
X199812500Y-82825000D03*
X199812500Y-82175000D03*
X199812500Y-81525000D03*
X199812500Y-80875000D03*
X199812500Y-80225000D03*
X199812500Y-79575000D03*
X199812500Y-78925000D03*
X199812500Y-78275000D03*
X199812500Y-77625000D03*
X199812500Y-76975000D03*
X194087500Y-76975000D03*
X194087500Y-77625000D03*
X194087500Y-78275000D03*
X194087500Y-78925000D03*
X194087500Y-79575000D03*
X194087500Y-80225000D03*
X194087500Y-80875000D03*
X194087500Y-81525000D03*
X194087500Y-82175000D03*
X194087500Y-82825000D03*
X194087500Y-83475000D03*
X194087500Y-84125000D03*
%TD*%
D24*
%TO.C,C109*%
X170230000Y-89300000D03*
X169270000Y-89300000D03*
%TD*%
D55*
%TO.C,C114*%
X196300000Y-114720000D03*
X196300000Y-115680000D03*
%TD*%
D34*
%TO.C,J204*%
X192600000Y-95265000D03*
X193600000Y-95265000D03*
D35*
X191300000Y-92740000D03*
X194900000Y-92740000D03*
%TD*%
D47*
%TO.C,J702*%
X182900000Y-75875000D03*
X181900000Y-75875000D03*
D48*
X184200000Y-78400000D03*
X180600000Y-78400000D03*
%TD*%
D62*
%TO.C,J105*%
X156500000Y-111360000D03*
X152600000Y-111360000D03*
X156500000Y-110090000D03*
X152600000Y-110090000D03*
X156500000Y-108820000D03*
X152600000Y-108820000D03*
X156500000Y-107550000D03*
X152600000Y-107550000D03*
X156500000Y-106280000D03*
X152600000Y-106280000D03*
X156500000Y-105010000D03*
X152600000Y-105010000D03*
X156500000Y-103740000D03*
X152600000Y-103740000D03*
%TD*%
D36*
%TO.C,C102*%
X158700001Y-84700000D03*
X165299999Y-84700000D03*
%TD*%
D21*
%TO.C,J604*%
X204800000Y-68950001D03*
X205600000Y-68950001D03*
X206400000Y-68950001D03*
X207200000Y-68950001D03*
D22*
X203500001Y-70400001D03*
X208499999Y-70400001D03*
%TD*%
D26*
%TO.C,J903*%
X184725000Y-65000000D03*
X184724999Y-64000000D03*
X184725000Y-63000000D03*
D27*
X182199999Y-66300000D03*
X182199999Y-61700000D03*
%TD*%
D23*
%TO.C,D704*%
X178300000Y-81000000D03*
X174220001Y-81000000D03*
%TD*%
D55*
%TO.C,C803*%
X159400000Y-102120000D03*
X159400000Y-103080000D03*
%TD*%
D47*
%TO.C,J704*%
X176900000Y-75875000D03*
X175900000Y-75875000D03*
D48*
X178200000Y-78400000D03*
X174600000Y-78400000D03*
%TD*%
D29*
%TO.C,R701*%
X185800001Y-83790002D03*
X185800001Y-84810000D03*
%TD*%
D26*
%TO.C,J907*%
X195925000Y-72000000D03*
X195924999Y-71000000D03*
X195925000Y-70000000D03*
D27*
X193399999Y-73300000D03*
X193399999Y-68700000D03*
%TD*%
D25*
%TO.C,C804*%
X159400000Y-104980000D03*
X159400000Y-104020000D03*
%TD*%
D26*
%TO.C,J906*%
X201225000Y-72000000D03*
X201224999Y-71000000D03*
X201225000Y-70000000D03*
D27*
X198699999Y-73300000D03*
X198699999Y-68700000D03*
%TD*%
D28*
%TO.C,R705*%
X169559999Y-86850000D03*
X168540001Y-86850000D03*
%TD*%
D26*
%TO.C,J803*%
X169325000Y-72000000D03*
X169324999Y-71000000D03*
X169325000Y-70000000D03*
D27*
X166799999Y-73300000D03*
X166799999Y-68700000D03*
%TD*%
D26*
%TO.C,J801*%
X163325000Y-65000000D03*
X163324999Y-64000000D03*
X163325000Y-63000000D03*
D27*
X160799999Y-66300000D03*
X160799999Y-61700000D03*
%TD*%
D21*
%TO.C,J601*%
X204800000Y-86450000D03*
X205600000Y-86450000D03*
X206400000Y-86450000D03*
X207200000Y-86450000D03*
D22*
X203500001Y-87900000D03*
X208499999Y-87900000D03*
%TD*%
D47*
%TO.C,J701*%
X189000000Y-75875000D03*
X188000000Y-75875000D03*
D48*
X190300000Y-78400000D03*
X186700000Y-78400000D03*
%TD*%
D47*
%TO.C,J401*%
X206900000Y-95975000D03*
X205900000Y-95975001D03*
X204900000Y-95975000D03*
D48*
X208200000Y-98500001D03*
X203600000Y-98500001D03*
%TD*%
D52*
%TO.C,J805*%
X153550000Y-70250001D03*
D53*
X153550000Y-72250002D03*
X153550000Y-74250001D03*
%TD*%
D28*
%TO.C,R706*%
X169559999Y-85850000D03*
X168540001Y-85850000D03*
%TD*%
D21*
%TO.C,J606*%
X204800000Y-72450000D03*
X205600000Y-72450000D03*
X206400000Y-72450000D03*
X207200000Y-72450000D03*
D22*
X203500001Y-73900000D03*
X208499999Y-73900000D03*
%TD*%
D63*
%TO.C,C104*%
X170050000Y-100075000D03*
X170050000Y-101625000D03*
%TD*%
D64*
%TO.C,C301*%
X182300000Y-112175000D03*
X182300000Y-110625000D03*
%TD*%
D49*
%TO.C,R301*%
X165599999Y-112209999D03*
X165599999Y-111190001D03*
%TD*%
D55*
%TO.C,C806*%
X160600000Y-106220000D03*
X160600000Y-107180000D03*
%TD*%
D65*
%TO.C,J104*%
X199100000Y-116900000D03*
D53*
X199100000Y-114900000D03*
X199100000Y-112900000D03*
X199100000Y-110900000D03*
%TD*%
D37*
%TO.C,D302*%
X163948140Y-108416875D03*
X163948140Y-109991877D03*
%TD*%
D26*
%TO.C,J912*%
X190025000Y-65000000D03*
X190024999Y-64000000D03*
X190025000Y-63000000D03*
D27*
X187499999Y-66300000D03*
X187499999Y-61700000D03*
%TD*%
D29*
%TO.C,R707*%
X173599999Y-83790001D03*
X173599999Y-84809999D03*
%TD*%
D37*
%TO.C,D301*%
X165599999Y-108412499D03*
X165599999Y-109987501D03*
%TD*%
D24*
%TO.C,C106*%
X171180000Y-88100000D03*
X170220000Y-88100000D03*
%TD*%
D49*
%TO.C,R302*%
X163900000Y-112209999D03*
X163900000Y-111190001D03*
%TD*%
D66*
%TO.C,J804*%
X151575000Y-92600000D03*
X151575000Y-93600000D03*
X151575000Y-94600000D03*
X151575000Y-95600000D03*
D67*
X154100000Y-91300000D03*
X154100000Y-96900000D03*
%TD*%
D63*
%TO.C,C115*%
X196100000Y-116925000D03*
X196100000Y-118475000D03*
%TD*%
D47*
%TO.C,J703*%
X170600000Y-75875000D03*
X169600000Y-75875000D03*
D48*
X171900000Y-78400000D03*
X168300000Y-78400000D03*
%TD*%
D54*
%TO.C,Q703*%
X170008675Y-82825198D03*
X170008675Y-84725198D03*
X171883676Y-83775198D03*
%TD*%
D29*
%TO.C,R802*%
X168750000Y-102070001D03*
X168750000Y-103089999D03*
%TD*%
D54*
%TO.C,Q701*%
X188353607Y-82812296D03*
X188353607Y-84712296D03*
X190228608Y-83762296D03*
%TD*%
M02*
